<mxfile host="app.diagrams.net" modified="2024-01-11T14:56:36.463Z" agent="Mozilla/5.0 (Macintosh; Intel Mac OS X 10_15_7) AppleWebKit/537.36 (KHTML, like Gecko) Chrome/120.0.0.0 Safari/537.36" etag="x3AtA2JSLXQvcQ3qvBPJ" version="22.1.18" type="google" pages="4">
  <diagram name="ECS Flows" id="R0JAbmn7_zGJjvv71T-E">
    <mxGraphModel grid="1" page="1" gridSize="10" guides="1" tooltips="1" connect="1" arrows="1" fold="1" pageScale="1" pageWidth="850" pageHeight="1100" math="0" shadow="0">
      <root>
        <mxCell id="0" />
        <mxCell id="1" parent="0" />
        <mxCell id="i61UPkSoCj4cJeS-I2aR-31" value="" style="edgeStyle=orthogonalEdgeStyle;rounded=0;sketch=1;hachureGap=4;jiggle=2;curveFitting=1;orthogonalLoop=1;jettySize=auto;html=1;fontFamily=Architects Daughter;fontSource=https%3A%2F%2Ffonts.googleapis.com%2Fcss%3Ffamily%3DArchitects%2BDaughter;fontSize=16;entryX=0.5;entryY=0;entryDx=0;entryDy=0;" edge="1" parent="1" source="Lco-4d1pUUgPBGDJDoPw-9" target="Lco-4d1pUUgPBGDJDoPw-2">
          <mxGeometry relative="1" as="geometry">
            <mxPoint x="428" y="140" as="targetPoint" />
            <mxPoint x="428" y="55" as="sourcePoint" />
          </mxGeometry>
        </mxCell>
        <mxCell id="i61UPkSoCj4cJeS-I2aR-18" style="edgeStyle=orthogonalEdgeStyle;rounded=0;sketch=1;hachureGap=4;jiggle=2;curveFitting=1;orthogonalLoop=1;jettySize=auto;html=1;exitX=0.5;exitY=1;exitDx=0;exitDy=0;fontFamily=Architects Daughter;fontSource=https%3A%2F%2Ffonts.googleapis.com%2Fcss%3Ffamily%3DArchitects%2BDaughter;fontSize=16;" edge="1" parent="1" source="Lco-4d1pUUgPBGDJDoPw-2" target="i61UPkSoCj4cJeS-I2aR-4">
          <mxGeometry relative="1" as="geometry">
            <mxPoint x="428" y="210" as="sourcePoint" />
            <mxPoint x="428" y="280" as="targetPoint" />
          </mxGeometry>
        </mxCell>
        <mxCell id="i61UPkSoCj4cJeS-I2aR-51" style="edgeStyle=orthogonalEdgeStyle;rounded=0;sketch=1;hachureGap=4;jiggle=2;curveFitting=1;orthogonalLoop=1;jettySize=auto;html=1;exitX=0;exitY=0.5;exitDx=0;exitDy=0;fontFamily=Architects Daughter;fontSource=https%3A%2F%2Ffonts.googleapis.com%2Fcss%3Ffamily%3DArchitects%2BDaughter;fontSize=16;strokeColor=#3399FF;" edge="1" parent="1" source="Lco-4d1pUUgPBGDJDoPw-2" target="Lco-4d1pUUgPBGDJDoPw-10">
          <mxGeometry relative="1" as="geometry">
            <Array as="points">
              <mxPoint x="382" y="170" />
              <mxPoint x="150" y="170" />
              <mxPoint x="150" y="690" />
            </Array>
            <mxPoint x="368" y="175" as="sourcePoint" />
            <mxPoint x="248" y="690" as="targetPoint" />
          </mxGeometry>
        </mxCell>
        <mxCell id="i61UPkSoCj4cJeS-I2aR-17" value="" style="group" vertex="1" connectable="0" parent="1">
          <mxGeometry x="350" y="188.5" width="167" height="150" as="geometry" />
        </mxCell>
        <mxCell id="i61UPkSoCj4cJeS-I2aR-4" value="&lt;font size=&quot;1&quot; style=&quot;&quot;&gt;&lt;b style=&quot;font-size: 17px;&quot;&gt;Build Image&lt;/b&gt;&lt;/font&gt;" style="image;sketch=0;aspect=fixed;html=1;points=[];align=center;fontSize=12;image=img/lib/mscae/Docker.svg;hachureGap=4;jiggle=2;curveFitting=1;fontFamily=Architects Daughter;fontSource=https%3A%2F%2Ffonts.googleapis.com%2Fcss%3Ffamily%3DArchitects%2BDaughter;" vertex="1" parent="i61UPkSoCj4cJeS-I2aR-17">
          <mxGeometry x="44.53333333333333" y="94.59459459459458" width="67.56756756756756" height="55.4054054054054" as="geometry" />
        </mxCell>
        <mxCell id="i61UPkSoCj4cJeS-I2aR-28" value="" style="edgeStyle=orthogonalEdgeStyle;rounded=0;sketch=1;hachureGap=4;jiggle=2;curveFitting=1;orthogonalLoop=1;jettySize=auto;html=1;fontFamily=Architects Daughter;fontSource=https%3A%2F%2Ffonts.googleapis.com%2Fcss%3Ffamily%3DArchitects%2BDaughter;fontSize=16;exitX=1;exitY=0.5;exitDx=0;exitDy=0;strokeColor=#3399FF;" edge="1" parent="1" source="i61UPkSoCj4cJeS-I2aR-21" target="Lco-4d1pUUgPBGDJDoPw-10">
          <mxGeometry relative="1" as="geometry">
            <mxPoint x="340" y="650" as="targetPoint" />
            <Array as="points">
              <mxPoint x="330" y="436" />
            </Array>
          </mxGeometry>
        </mxCell>
        <mxCell id="i61UPkSoCj4cJeS-I2aR-21" value="image vulnerability scan" style="whiteSpace=wrap;html=1;fontSize=20;fontFamily=Architects Daughter;rounded=1;sketch=1;hachureGap=4;jiggle=2;curveFitting=1;fontSource=https%3A%2F%2Ffonts.googleapis.com%2Fcss%3Ffamily%3DArchitects%2BDaughter;" vertex="1" parent="1">
          <mxGeometry x="168" y="401" width="120" height="70" as="geometry" />
        </mxCell>
        <mxCell id="i61UPkSoCj4cJeS-I2aR-22" value="" style="edgeStyle=orthogonalEdgeStyle;rounded=0;sketch=1;hachureGap=4;jiggle=2;curveFitting=1;orthogonalLoop=1;jettySize=auto;html=1;fontFamily=Architects Daughter;fontSource=https%3A%2F%2Ffonts.googleapis.com%2Fcss%3Ffamily%3DArchitects%2BDaughter;fontSize=16;" edge="1" parent="1" source="i61UPkSoCj4cJeS-I2aR-4" target="i61UPkSoCj4cJeS-I2aR-21">
          <mxGeometry relative="1" as="geometry">
            <mxPoint x="368" y="310" as="sourcePoint" />
          </mxGeometry>
        </mxCell>
        <mxCell id="i61UPkSoCj4cJeS-I2aR-29" style="edgeStyle=orthogonalEdgeStyle;rounded=0;sketch=1;hachureGap=4;jiggle=2;curveFitting=1;orthogonalLoop=1;jettySize=auto;html=1;exitX=0;exitY=0.5;exitDx=0;exitDy=0;exitPerimeter=0;fontFamily=Architects Daughter;fontSource=https%3A%2F%2Ffonts.googleapis.com%2Fcss%3Ffamily%3DArchitects%2BDaughter;fontSize=16;strokeColor=#3399FF;startArrow=classic;startFill=1;" edge="1" parent="1" source="i61UPkSoCj4cJeS-I2aR-23" target="Lco-4d1pUUgPBGDJDoPw-10">
          <mxGeometry relative="1" as="geometry">
            <mxPoint x="340" y="650" as="targetPoint" />
            <Array as="points">
              <mxPoint x="330" y="436" />
            </Array>
          </mxGeometry>
        </mxCell>
        <mxCell id="i61UPkSoCj4cJeS-I2aR-36" style="edgeStyle=orthogonalEdgeStyle;rounded=0;sketch=1;hachureGap=4;jiggle=2;curveFitting=1;orthogonalLoop=1;jettySize=auto;html=1;exitX=0;exitY=0.5;exitDx=0;exitDy=0;exitPerimeter=0;fontFamily=Architects Daughter;fontSource=https%3A%2F%2Ffonts.googleapis.com%2Fcss%3Ffamily%3DArchitects%2BDaughter;fontSize=16;startArrow=classic;startFill=1;" edge="1" parent="1" source="i61UPkSoCj4cJeS-I2aR-23" target="i61UPkSoCj4cJeS-I2aR-34">
          <mxGeometry relative="1" as="geometry" />
        </mxCell>
        <mxCell id="i61UPkSoCj4cJeS-I2aR-23" value="&lt;b&gt;&lt;font style=&quot;font-size: 14px;&quot;&gt;AWS Signer&lt;/font&gt;&lt;/b&gt;" style="whiteSpace=wrap;html=1;fontSize=12;fontFamily=Architects Daughter;rounded=1;hachureGap=4;fontSource=https%3A%2F%2Ffonts.googleapis.com%2Fcss%3Ffamily%3DArchitects%2BDaughter;points=[[0,0,0],[0.25,0,0],[0.5,0,0],[0.75,0,0],[1,0,0],[0,1,0],[0.25,1,0],[0.5,1,0],[0.75,1,0],[1,1,0],[0,0.25,0],[0,0.5,0],[0,0.75,0],[1,0.25,0],[1,0.5,0],[1,0.75,0]];outlineConnect=0;fillColor=#f8cecc;strokeColor=#b85450;dashed=0;verticalLabelPosition=bottom;verticalAlign=top;fontStyle=0;aspect=fixed;shape=mxgraph.aws4.resourceIcon;resIcon=mxgraph.aws4.signer;shadow=0;" vertex="1" parent="1">
          <mxGeometry x="568" y="401" width="120" height="69" as="geometry" />
        </mxCell>
        <mxCell id="i61UPkSoCj4cJeS-I2aR-24" value="" style="edgeStyle=orthogonalEdgeStyle;rounded=0;sketch=1;hachureGap=4;jiggle=2;curveFitting=1;orthogonalLoop=1;jettySize=auto;html=1;fontFamily=Architects Daughter;fontSource=https%3A%2F%2Ffonts.googleapis.com%2Fcss%3Ffamily%3DArchitects%2BDaughter;fontSize=16;" edge="1" parent="1" source="i61UPkSoCj4cJeS-I2aR-4" target="i61UPkSoCj4cJeS-I2aR-23">
          <mxGeometry relative="1" as="geometry">
            <mxPoint x="488" y="310" as="sourcePoint" />
          </mxGeometry>
        </mxCell>
        <mxCell id="i61UPkSoCj4cJeS-I2aR-38" style="edgeStyle=orthogonalEdgeStyle;rounded=0;sketch=1;hachureGap=4;jiggle=2;curveFitting=1;orthogonalLoop=1;jettySize=auto;html=1;exitX=0.5;exitY=1;exitDx=0;exitDy=0;exitPerimeter=0;fontFamily=Architects Daughter;fontSource=https%3A%2F%2Ffonts.googleapis.com%2Fcss%3Ffamily%3DArchitects%2BDaughter;fontSize=16;" edge="1" parent="1" source="i61UPkSoCj4cJeS-I2aR-34" target="i61UPkSoCj4cJeS-I2aR-37">
          <mxGeometry relative="1" as="geometry" />
        </mxCell>
        <mxCell id="i61UPkSoCj4cJeS-I2aR-34" value="&lt;font style=&quot;font-size: 13px;&quot;&gt;&lt;b&gt;Container &lt;br&gt;Registry&lt;/b&gt;&lt;/font&gt;" style="whiteSpace=wrap;html=1;fontSize=12;fontFamily=Architects Daughter;rounded=1;sketch=0;hachureGap=4;jiggle=2;curveFitting=1;fontSource=https%3A%2F%2Ffonts.googleapis.com%2Fcss%3Ffamily%3DArchitects%2BDaughter;points=[[0,0,0],[0.25,0,0],[0.5,0,0],[0.75,0,0],[1,0,0],[0,1,0],[0.25,1,0],[0.5,1,0],[0.75,1,0],[1,1,0],[0,0.25,0],[0,0.5,0],[0,0.75,0],[1,0.25,0],[1,0.5,0],[1,0.75,0]];outlineConnect=0;fillColor=#ffe6cc;strokeColor=#d79b00;dashed=0;verticalLabelPosition=bottom;verticalAlign=top;fontStyle=0;aspect=fixed;shape=mxgraph.aws4.resourceIcon;resIcon=mxgraph.aws4.ecr;align=left;" vertex="1" parent="1">
          <mxGeometry x="448" y="550" width="120" height="80" as="geometry" />
        </mxCell>
        <mxCell id="i61UPkSoCj4cJeS-I2aR-40" style="edgeStyle=orthogonalEdgeStyle;rounded=0;sketch=1;hachureGap=4;jiggle=2;curveFitting=1;orthogonalLoop=1;jettySize=auto;html=1;exitX=0.5;exitY=1;exitDx=0;exitDy=0;exitPerimeter=0;fontFamily=Architects Daughter;fontSource=https%3A%2F%2Ffonts.googleapis.com%2Fcss%3Ffamily%3DArchitects%2BDaughter;fontSize=16;" edge="1" parent="1" source="i61UPkSoCj4cJeS-I2aR-37" target="i61UPkSoCj4cJeS-I2aR-54">
          <mxGeometry relative="1" as="geometry">
            <mxPoint x="508" y="850" as="targetPoint" />
          </mxGeometry>
        </mxCell>
        <mxCell id="i61UPkSoCj4cJeS-I2aR-57" style="edgeStyle=orthogonalEdgeStyle;rounded=0;sketch=1;hachureGap=4;jiggle=2;curveFitting=1;orthogonalLoop=1;jettySize=auto;html=1;exitX=1;exitY=0.5;exitDx=0;exitDy=0;exitPerimeter=0;fontFamily=Architects Daughter;fontSource=https%3A%2F%2Ffonts.googleapis.com%2Fcss%3Ffamily%3DArchitects%2BDaughter;fontSize=16;" edge="1" parent="1" source="i61UPkSoCj4cJeS-I2aR-37" target="i61UPkSoCj4cJeS-I2aR-55">
          <mxGeometry relative="1" as="geometry" />
        </mxCell>
        <mxCell id="i61UPkSoCj4cJeS-I2aR-62" style="edgeStyle=orthogonalEdgeStyle;rounded=0;sketch=1;hachureGap=4;jiggle=2;curveFitting=1;orthogonalLoop=1;jettySize=auto;html=1;exitX=1;exitY=0.5;exitDx=0;exitDy=0;exitPerimeter=0;fontFamily=Architects Daughter;fontSource=https%3A%2F%2Ffonts.googleapis.com%2Fcss%3Ffamily%3DArchitects%2BDaughter;fontSize=16;" edge="1" parent="1" source="i61UPkSoCj4cJeS-I2aR-37" target="i61UPkSoCj4cJeS-I2aR-60">
          <mxGeometry relative="1" as="geometry" />
        </mxCell>
        <mxCell id="i61UPkSoCj4cJeS-I2aR-37" value="&amp;nbsp; &amp;nbsp; &amp;nbsp; &amp;nbsp;ECS" style="rounded=1;whiteSpace=wrap;html=1;sketch=0;hachureGap=4;jiggle=2;curveFitting=1;fontFamily=Architects Daughter;fontSource=https%3A%2F%2Ffonts.googleapis.com%2Fcss%3Ffamily%3DArchitects%2BDaughter;fontSize=12;points=[[0,0,0],[0.25,0,0],[0.5,0,0],[0.75,0,0],[1,0,0],[0,1,0],[0.25,1,0],[0.5,1,0],[0.75,1,0],[1,1,0],[0,0.25,0],[0,0.5,0],[0,0.75,0],[1,0.25,0],[1,0.5,0],[1,0.75,0]];outlineConnect=0;fillColor=#ffe6cc;strokeColor=#d79b00;dashed=0;verticalLabelPosition=bottom;verticalAlign=top;fontStyle=0;aspect=fixed;shape=mxgraph.aws4.resourceIcon;resIcon=mxgraph.aws4.ecs;" vertex="1" parent="1">
          <mxGeometry x="448" y="720" width="120" height="60" as="geometry" />
        </mxCell>
        <mxCell id="i61UPkSoCj4cJeS-I2aR-44" value="" style="edgeStyle=orthogonalEdgeStyle;rounded=0;sketch=1;hachureGap=4;jiggle=2;curveFitting=1;orthogonalLoop=1;jettySize=auto;html=1;fontFamily=Architects Daughter;fontSource=https%3A%2F%2Ffonts.googleapis.com%2Fcss%3Ffamily%3DArchitects%2BDaughter;fontSize=16;curved=1;strokeColor=#3399FF;entryX=1;entryY=0.5;entryDx=0;entryDy=0;fillColor=#dae8fc;" edge="1" parent="1" source="i61UPkSoCj4cJeS-I2aR-54" target="Lco-4d1pUUgPBGDJDoPw-5">
          <mxGeometry relative="1" as="geometry">
            <mxPoint x="448" y="880" as="sourcePoint" />
            <Array as="points">
              <mxPoint x="408" y="880" />
              <mxPoint x="408" y="860" />
              <mxPoint x="370" y="860" />
              <mxPoint x="370" y="873" />
            </Array>
            <mxPoint x="368" y="780" as="targetPoint" />
          </mxGeometry>
        </mxCell>
        <mxCell id="i61UPkSoCj4cJeS-I2aR-45" style="edgeStyle=orthogonalEdgeStyle;rounded=0;sketch=1;hachureGap=4;jiggle=2;curveFitting=1;orthogonalLoop=1;jettySize=auto;html=1;exitX=1;exitY=0.75;exitDx=0;exitDy=0;fontFamily=Architects Daughter;fontSource=https%3A%2F%2Ffonts.googleapis.com%2Fcss%3Ffamily%3DArchitects%2BDaughter;fontSize=16;curved=1;strokeColor=#3399FF;fillColor=#dae8fc;" edge="1" parent="1" source="Lco-4d1pUUgPBGDJDoPw-5" target="i61UPkSoCj4cJeS-I2aR-54">
          <mxGeometry relative="1" as="geometry">
            <mxPoint x="448" y="880" as="targetPoint" />
            <mxPoint x="368" y="880" as="sourcePoint" />
            <Array as="points">
              <mxPoint x="370" y="896" />
              <mxPoint x="370" y="920" />
              <mxPoint x="460" y="920" />
              <mxPoint x="460" y="895" />
            </Array>
          </mxGeometry>
        </mxCell>
        <mxCell id="i61UPkSoCj4cJeS-I2aR-46" style="edgeStyle=orthogonalEdgeStyle;rounded=0;sketch=1;hachureGap=4;jiggle=2;curveFitting=1;orthogonalLoop=1;jettySize=auto;html=1;exitX=0.5;exitY=0;exitDx=0;exitDy=0;fontFamily=Architects Daughter;fontSource=https%3A%2F%2Ffonts.googleapis.com%2Fcss%3Ffamily%3DArchitects%2BDaughter;fontSize=16;strokeColor=#3399FF;" edge="1" parent="1" source="Lco-4d1pUUgPBGDJDoPw-5" target="Lco-4d1pUUgPBGDJDoPw-10">
          <mxGeometry relative="1" as="geometry">
            <mxPoint x="308" y="780" as="sourcePoint" />
            <mxPoint x="308" y="730" as="targetPoint" />
          </mxGeometry>
        </mxCell>
        <mxCell id="i61UPkSoCj4cJeS-I2aR-67" style="edgeStyle=orthogonalEdgeStyle;rounded=0;sketch=1;hachureGap=4;jiggle=2;curveFitting=1;orthogonalLoop=1;jettySize=auto;html=1;fontFamily=Architects Daughter;fontSource=https%3A%2F%2Ffonts.googleapis.com%2Fcss%3Ffamily%3DArchitects%2BDaughter;fontSize=16;strokeColor=#3399FF;" edge="1" parent="1" source="i61UPkSoCj4cJeS-I2aR-52" target="i61UPkSoCj4cJeS-I2aR-54">
          <mxGeometry relative="1" as="geometry">
            <Array as="points">
              <mxPoint x="899" y="910" />
            </Array>
          </mxGeometry>
        </mxCell>
        <mxCell id="i61UPkSoCj4cJeS-I2aR-52" value="&lt;b style=&quot;font-size: 14px;&quot;&gt;Event&lt;br&gt;Bridge&lt;/b&gt;" style="sketch=0;points=[[0,0,0],[0.25,0,0],[0.5,0,0],[0.75,0,0],[1,0,0],[0,1,0],[0.25,1,0],[0.5,1,0],[0.75,1,0],[1,1,0],[0,0.25,0],[0,0.5,0],[0,0.75,0],[1,0.25,0],[1,0.5,0],[1,0.75,0]];outlineConnect=0;fillColor=#e1d5e7;strokeColor=#9673a6;dashed=0;verticalLabelPosition=bottom;verticalAlign=top;align=left;html=1;fontSize=12;fontStyle=0;aspect=fixed;shape=mxgraph.aws4.resourceIcon;resIcon=mxgraph.aws4.eventbridge;hachureGap=4;jiggle=2;curveFitting=1;fontFamily=Architects Daughter;fontSource=https%3A%2F%2Ffonts.googleapis.com%2Fcss%3Ffamily%3DArchitects%2BDaughter;" vertex="1" parent="1">
          <mxGeometry x="860" y="785.5" width="78" height="78" as="geometry" />
        </mxCell>
        <mxCell id="i61UPkSoCj4cJeS-I2aR-54" value="&lt;b&gt;&lt;font style=&quot;font-size: 14px;&quot;&gt;NPM Task&lt;/font&gt;&lt;/b&gt;" style="sketch=0;outlineConnect=0;fontColor=#232F3E;gradientColor=none;fillColor=#3399FF;strokeColor=#3399FF;dashed=0;verticalLabelPosition=bottom;verticalAlign=top;align=center;html=1;fontSize=12;fontStyle=0;aspect=fixed;pointerEvents=1;shape=mxgraph.aws4.ecs_task;hachureGap=4;jiggle=2;curveFitting=1;fontFamily=Architects Daughter;fontSource=https%3A%2F%2Ffonts.googleapis.com%2Fcss%3Ffamily%3DArchitects%2BDaughter;" vertex="1" parent="1">
          <mxGeometry x="473.31" y="850" width="69.38" height="90" as="geometry" />
        </mxCell>
        <mxCell id="i61UPkSoCj4cJeS-I2aR-66" value="" style="edgeStyle=orthogonalEdgeStyle;rounded=0;sketch=1;hachureGap=4;jiggle=2;curveFitting=1;orthogonalLoop=1;jettySize=auto;html=1;fontFamily=Architects Daughter;fontSource=https%3A%2F%2Ffonts.googleapis.com%2Fcss%3Ffamily%3DArchitects%2BDaughter;fontSize=16;entryX=0.5;entryY=0;entryDx=0;entryDy=0;entryPerimeter=0;" edge="1" parent="1" source="i61UPkSoCj4cJeS-I2aR-55" target="i61UPkSoCj4cJeS-I2aR-52">
          <mxGeometry relative="1" as="geometry">
            <mxPoint x="782.915" y="685.5" as="targetPoint" />
          </mxGeometry>
        </mxCell>
        <mxCell id="i61UPkSoCj4cJeS-I2aR-55" value="&lt;b style=&quot;font-size: 14px;&quot;&gt;New Task from &lt;br&gt;Safe Code&lt;/b&gt;" style="sketch=0;outlineConnect=0;fontColor=#232F3E;gradientColor=none;fillColor=#ED7100;strokeColor=none;dashed=0;verticalLabelPosition=bottom;verticalAlign=top;align=center;html=1;fontSize=12;fontStyle=0;aspect=fixed;pointerEvents=1;shape=mxgraph.aws4.ecs_task;hachureGap=4;jiggle=2;curveFitting=1;fontFamily=Architects Daughter;fontSource=https%3A%2F%2Ffonts.googleapis.com%2Fcss%3Ffamily%3DArchitects%2BDaughter;" vertex="1" parent="1">
          <mxGeometry x="660" y="641" width="68.61" height="89" as="geometry" />
        </mxCell>
        <mxCell id="i61UPkSoCj4cJeS-I2aR-60" value="&lt;b&gt;&lt;font style=&quot;font-size: 14px;&quot;&gt;Existing Task&lt;/font&gt;&lt;/b&gt;" style="sketch=0;outlineConnect=0;fontColor=#232F3E;gradientColor=none;fillColor=#ED7100;strokeColor=none;dashed=0;verticalLabelPosition=bottom;verticalAlign=top;align=center;html=1;fontSize=12;fontStyle=0;aspect=fixed;pointerEvents=1;shape=mxgraph.aws4.ecs_task;hachureGap=4;jiggle=2;curveFitting=1;fontFamily=Architects Daughter;fontSource=https%3A%2F%2Ffonts.googleapis.com%2Fcss%3Ffamily%3DArchitects%2BDaughter;direction=west;" vertex="1" parent="1">
          <mxGeometry x="660" y="780" width="68.61" height="89" as="geometry" />
        </mxCell>
        <mxCell id="Lco-4d1pUUgPBGDJDoPw-1" style="edgeStyle=orthogonalEdgeStyle;rounded=0;sketch=1;hachureGap=4;jiggle=2;curveFitting=1;orthogonalLoop=1;jettySize=auto;html=1;entryX=0;entryY=0.5;entryDx=0;entryDy=0;entryPerimeter=0;fontFamily=Architects Daughter;fontSource=https%3A%2F%2Ffonts.googleapis.com%2Fcss%3Ffamily%3DArchitects%2BDaughter;fontSize=16;" edge="1" parent="1" source="i61UPkSoCj4cJeS-I2aR-60" target="i61UPkSoCj4cJeS-I2aR-52">
          <mxGeometry relative="1" as="geometry" />
        </mxCell>
        <mxCell id="Lco-4d1pUUgPBGDJDoPw-4" value="" style="group" vertex="1" connectable="0" parent="1">
          <mxGeometry x="381.5" y="127" width="186.5" height="93" as="geometry" />
        </mxCell>
        <mxCell id="Lco-4d1pUUgPBGDJDoPw-2" value="" style="shape=image;aspect=fixed;image=data:image/png,iVBORw0KGgoAAAANSUhEUgAAAUAAAAFACAYAAADNkKWqAAAAAXNSR0IArs4c6QAAAARnQU1BAACxjwv8YQUAAAAJcEhZcwAALiIAAC4iAari3ZIAAAAYdEVYdFNvZnR3YXJlAHBhaW50Lm5ldCA0LjEuNv1OCegAADoJSURBVHhe7Z0JnBxVtf+DogiKiigqik9En09AVJLpnkSe8SlgUATRjJmp6gmbL7iAsoUtXV1M9SQkYBQE1KhPBQE1KuAfZREwZKombBHZVAhrll4mC4QlELLN/3d7TiTTfXq6qrqqeqnz/Xx+n0DSfe7tc+49davqLuMEQRAEQRAEQRAEQRAEQRAEQRAEQRAEQRAEQRAEQRAEQRAEQRAEQRAEQRAEQRAEQRAEQRAEQRAEQRAEQRAEQRAEITZMuWTZLpPNRTvT/wqCILQvnf1L3pOwnJmJrPOXZNZZk7TsbQnL3pK0nCfx5286rSVa52lLdqWPC4IgtD6T5jm7I+ldgoS3CYlvuIYKyezg8fjaTiPfFgRBaFEmZgf/A8nvn0yiG1uWc6XcHguC0LJ8zFz0ViSzRyuSm0slsvZPyZQgCEJrgQT2Cy6xeVFHv30MmRMEQWgNJpiDB6qXHFxS8yTLfnScab6GzAqCIDQ/SF6XViQzv5ptH0ZmBUEQmp3hnRKWvYpNZj6UyDqXk2FBEITmRr355RJZHbqfTAuCIDQ3nVn7UCaJ1aMXyLQgCEJz05kdmMIkMd/CLfDLMCsTowVBaH46+5ZM5hKZb1n2ejItCILQ3JSmwHCJzK8s5wkyLQiC0NwccoG9B5vI/MpyFpNpQRCEZkdNg3GeYZOZD6kVJWRYEASh+cGobZBLZr5kDZ5NZgVBEJofJMAfs8nMjyzn82RWEASh+cFt60lsMvOhjgvvfheZFQRBaH46+5cczCUz77JXkklBEITWYPyCpa9D8trAJzVP+h2ZFARBaB2Slv1XJqF5UqLfPpXMCYIgtA4YAZ7PJTUv6uxffDCZEwRBaB3qXRKXyNrrZDNUQRBaEnXuLxKZ7+eACWvgWjIlCILQeiSyzo1ccnOngW+QGUEQhNYj0Wefyie32kpkF+9LZgRBEFqPCZbzYS651Zb9CJkQBEFoToYXzHhdIZM6ftg89g30V+Wo80Ee55PcWLK/R9+vIH9e94TVhv7f9L+CIAjRsuK0qbsWMtq3Coa2vJDRh/OGdgT9UwWJ7MDFfJKrLtz+foa+XgHK+1GpzIw2kDN6Pkd/LQiCEC7/mnnU7kg+M5HwCioJvSqt6sltiezgZ7gkV01qK63J5qKd6eujGMaIEmWvHFW2od1bNFNfMmXKjCAIYbD+HG2PvKFnkHzWjUo+ryah5So50cdHoZbFedkfELfMV9FXK1id7v0EWz6Euj2US2va8MKu19LHBUEQ/FMwU3sVM9oFSHDPcUlnR6nkRF+rIGk5V3LJjlPCGpxKX6ugYOjnc2XvKCTCxzAiPfFhs+v19DVBEAT3rDX19+Yz+iVIOBu4JMMpN8aLiY4++xgu2ZULo7+XDrro/jfS1ypAOReVl1tNGLGuQAI/ecX8qbvS1wVBEKozNGv6fkh6P0HyeIVLKtWEUdezw2M8gxtvLt0No8AXuaRXpuvoKywFU/80V/5YQiIvYgR71pp5J+xOZgRBEF6lkO4+AEnsKiS+LVwSqSlD+xuZqkA9A5w0z9k9adnXMwlvtCx7hvrsuOFh9nniSoxM2fLdyNDX5TOaucKc+jYyJwhCnEHSG4/k8AcksK0VCcOLDL3qyW1IbN+oSHQ11Nm/5D309VE8ax77VrZ8D0ISfB6jwnnF2d3vJLOCIMSJnNlzCJLeTUgE27gk4VVIKn8i0xUkLGcml+TGklpBQl8fhXqxwZXvUy/hAvCDddnj9iHzgiC0K2qaStFIHYaOf0dZIghCV1MxFSSydj+X5MZSZ//iBH29AiRu1y9mXKn0vFP76ZCZ+iAVIQhCu6AmCOcM7ei8od/NJoAABNuXUXEVJCz7ci7JjaWOvsVVV3igvBXl5Qch9fwTurpgpg6kogRBaFXUhOBCuqcbt7kPch0+UBn6+VRsBUiAv+GS3FjqsGyNvl4ByruvovwAhdvibRgRXps3eydQkYIgtAojz8lSxyMpPcp18DCEkdM3qfgKkpZzO5fkxpQ1+B36egUo7+by8kOSej5681jzGwVBaBK2b1CAEUxpg4IolTe1L1M1KkAC/Aeb5MZQwnIuoK9XUDC0X3J1CFmLh0z98GrL/QRBaBBqgwIkvTOhsg0KolPR1DupOuXslMzaz3FJroauoO9XgNHmHK4O0Ui7J5fukY0XBKHRLD9H26OY0Q10yrV8Z41GSEibV5+nv5uqNYpJM53dkQC3MQmulm4jExXg9v5Erh5RChebh+D7Htl4QRAiRm1QkHe5QUHI2ohE8FO1fI6qVkHSuuMjTHKrqUTWXkYmWIqmdmguo4UxncerlhVM/QTZeEEQQkZtUICkd3HBwwYFocjQNmD0c4mqD1WtKh3ZgSlcgqsltSlCteVwO5IztE+iTjcGNaHbt9RzV6PnZPUclqomCEIQDM2ath9uMz1vUBC0MNp7DnWYq0agVLWaqJPduATnRpNMZ28yU5OcqR+cM/Q/oI71LemrU/BPEX/OXDNTNl4QhLrIm/r+hYz2K3QqfxsUBCZtrdpEQD1zpKq5Jmk5F3HJzY0SfY7n6Sc7+Gwz/1sikmy8IAj+wChmPI1mGnpbh/LVW+WZQ2bXm6hqnkEiu7Y8sblWv3McmfFM0dQ+gCT4E9R/446/KWqVNl7AqLl4rmy8IAhjMkTPs6CmeJ41xklvrklm7YfY5OZG/fZsMuOb0vZZRupi9dyS/a3R6SX13HTVrGmy8YIgbKe0QYGpHYrbtoa/0czTG0111CVVry7UwUYJy9nIJjcXSlj278lU3Wx/c66eY3K/PTIZ+iuoh2y8IMSb4eHhnVal9aNwexTaBgVupdYKqzltC7uCndM2wbQ/wCU2t0ICfIhMBYbaTxA+zzTB3MktSIZXFdLTD6CqCUL7U9qgIKNNQ+N/gOsY0Uq7p2hoRw8Ph7O8K2k5n+cSm1slss7LXV0LQ5lorJ5r5o3UmfBBnvdNNEIi3IYR4bV5s1s2XhDco26vOk9bsqubuWLNgLqtLJjacQVDi2yDgqoy9MW5WfrhVLXQSFqDZ3CJzZOsOz9E5kLhKfPYNyAJfgt+ebrCT5FLu6mZN16YcsmyXRL9ztG4sF2K2NyWtOx7oduhH3Rml0zpWhjOxUogOvuXHIzboh+qVQIYHWxRS6zw5wsJy7E7rIFZn5xrv48+2jSoFwm4yn8TDbyhHUxNFMZI4+Yhs/cQqlrooJP836hk5kMJa+BLZC5Uls7ABaq0g07zXKCaZeMFdUofkt4saDUXo+1S/RKfOYq+JgTFRHNwLyS633JO31H4zGYE4RdeJtCGRekWK6Od0fhbLDUxWLt2jaGNp6pFBi5Wd3Nx8iJ1YSNzkaCegxbMnu5mekTRyI0XOvqdj2OE9yQXm2pKWIM/HD9jQSAv0mKPCgA60irO0dWEEeHqjuzgp8hEpKjJwhhtNXyDAnTgzRh5Xq1Oe6OqRYppDr8GHcfNMZhjy3KuIZORop6Lhr2Ltgc9WDBT3VFvvJDssw9Td1hsXGrruvEzlkoSrAckvo8hmT3DOLe21PSLfucrZCp0StMsDH1Oo6dZoA6l8y1WNHiaRb1vgLcrjDfBXsmVzlFpko0X0tFsvJC07vh8PVOYlBLWQNU9HYUaTDYXvSGZtR/hHOtW6pYYf04jk6Ewck6t9v2GT7Q19A1Ivj9olom2ib7FR5fHw5/sV9S5wmS2oaiJ6hgVBnaSnm+VNrzVvhXWxgvw+afRd17m4+FF9qaJswf/i8wKXsDVx/NRirzsTR3WwJFkNjDUUis0xgUjIy6mkUYljDiLhj73iSZbagW/p/l4+NDsOw8is00BLjSls5RHnq8yMYlIKL+0VPFfAW680Gkt+SjuntazcfChRNb+FZkW3LK/ufD1cF6h3Jl1aEOi3662Y7EnSovtDf1K9YytvEFGKTT+0mL79Rd436AgCtCJFjJx8CfLSZHZpkK1BcThKlwEG98WDD1Tb1voMO9+F/y9vML/dUiNJCfNc2RnHC8k++wjOGfWI1yJhhLZxftSEZ5R2y3htuP3GHE1erulAupwVpBX/TBA0nqUi4M/2ReS2aZEbVeGC2LDN14o3Q1ktAv83A1MueTGXeDnJbz/61Oif/ALVIzgBiSruZwj6xWuRg9ONhd52tmENtz8c0Vji1qlDQpSLbHhZmneWNbeysXAlyz7FjLd1KjnwfmMfgli1dDnwbhIvpRPe9t4IWHZP2F9H4DQn8+kYgQ3BHr7VCYE+vfjxtVePbJqlnYobi0WcQ0sYi3DyPPEoDYoiIJk30CS830dKpDplmBkRoA2F2r8jABDu5iqVRX0t+MYnwcny+6jogQ3JLOD17OODEiJvoGzqCiWVXN690TjHeIaVVRC+SOH7gS8QUEUoMHP4Pxel2bf2XL76ZXmhDZ64wWj52SqDsvE2YMHwr8bKvwdoBL99qlUnOAG3Kou4BwZlNT0mFq7DaPhfJFtUKFLu6dopr4U1gYFUQD/Xs75vR519A9+jsy3HGpVEGI7Exe1qI8t/ctYy+nGm0t3w+jP85nNXtXRN/BZKlJwA5z2v+VODFpqdcl4c9HbqUgWerDNNawwtDhn9LRsJ98RJECH83k96sw6Y47aWwG1LlzN30Oso1gXvn5d9rgxnwHiTijUgYYS2sIzHzzlxl2oSMEN6nYHt1GbOIcGrBvGeh6oDrbJZ7QnmcYViGhC7c3NvAOIV9QSODR6v8unqsuyG7IkLgxKOwOl9RNwgQ1r44VleaNnzFVQapMJ1s9By3IuoiIFLyT67F+wDg1YHVnnFCqSZbnZvXch03M2rtyrmYbmT4a2FbdD1+XN3rbbA67TXPRBzs91y7L/QUW0Der5rlrjiwvhg2w78SpDe3bITE2vtXlCh7noXfDnGtbPwWpNx5y796RiBS909t/2Hjjw2TKHBq5E1n6pw7JrbhiQM3vejiT4R7bhuVR+5HS3q9HoDySzbUeyz/kK5+d6pZ7bquWRVExboZ73ql1fkAh9b7yAO5W7lpvaB8jkWOyUzNo3cD4OVva2zv4lx1CZgh8S1uBU5UjewQHKsv++v/lwzQXm6oEyktg3Pc/zUudAGPrP4nAORLJ/sI/1cQDqMJ223zVZ7QOINuN644XSRdXQ+tV+hmRiTBKWfQLn28Bl2QYVKdQDboXPjCQJZp05VGRNVqX1D6srLtcgy/RSPq1dWuthdDuBhh/aFCbVeamYtgd3HIcgsd3EtKl/K29oj+GiOom+UpMJ2cX7JANc51tFG9Vh+FSkEARqWys4NtTbYXSuLV7WC5fO9jC0s9AIX65omOos2Iw+rzg7fmfBwpdPlPs2ONnfo2JiA9rXeLSna9HW/r0EE3+3Ff9/cc6csRt9zAXDOyUs5yber8EokXUenGjd8QkqUAiSCdl79oGDb+QcH5zsR0rnjHhgtdn7n4Xte8UZ+jro/BXm1LfRP8eKzvlLdk0EuQSuTLhI3URFxQ61sS3a1lVoZw94GfVtJ+TVHi+ib56nNjGh4oSwUM8F0RGeZoIQiBLZge+qcsbPXfqWroXDrlZhqIfYeTM1Zc285t6gIGwSs+/an/NpUEIne4yKElyAi9FJScv+cseFd7/L98bCYwoXO8u+Ut1aU5FCFKi3gaX9Ai1nLR8Y/4JdddjSIfhzEWRPzA7+BxUr1EDt+sH5NDjZr4xr4PkYrUKnefPb4KvfKZ/hovECBgx3VPqyDln2ttKz3tkDTbVPY+xImHe9OZkdTCMYgSZCNJpXd8O17PVItE25H12z0dHnfH1HP4ahg/vvfTcVJzB0Zu1DkfxWcr6rX/ZWJNPfT7QG5TlfM6G2uEKATkeiWlEZtGCE0eC1rbggP0rQQc7nfBekOvsXH0zFCTug+gCS0+Wl0Rnjt3qkBgSw/ZMJlvNhKk5oRtTZEZ3nOzo64j1cIOsWRpqJ7EAvFSeUAR+pA7N53wWl2fZhVJxAdGaXHIqLv6ejK13JsvOQccjs+95BRQmtgprSksgO/gpXrrpOtmJl2bdMuMB2M+s+VsAvV7L+ClDqJRgVF3vUMjO0cbVkNMhRH2zZA0lrsLtZDqMS6mD8d5e+vfTCJBvkFu2qI6oldAOzZKeLV4FfSg/ewxQ6vIzAh4d3GpnWEtx6XvSRZ3AB+4GbZaFCK4JG0zl7yWQ0HIxS7OA2gLScRzv6WnevuiCBP66t8E/gGjieiosl6oQ8NTuB941nbYWtRWjDKa/zX4UWRr097ux3vlZqSEE9NLbs6ydlnf2oiFiSyDp/YH0ToDqz9rFUXKw45AJ7DzVCw53HFs4vnqWWxFl3fITMC3Gk07rjo0GOBpFQNyIJzFUJloqIFfDB1eU+CUGhHnTfbKjJ+DS9KPjtqyznx1SMEEeQ/K5jG0adwlV6SM3Cn2wu2pmKigX43T/k/BGkOrMDU6i4tkfN6UM7epDzQwBaL1vVxxw1UktYA7cyjSMoPZzoWxybM1FxQZF5gAGgbk3xW8Pcs6/Q0e98nIobk+K53e8sGvp5hYw+k/5KaGby5x7/jnxGd/IZrXfF/Npn6KoF3GgQId+62X9Fg2v7vewwAgx9r7l23mF4ojm4VyLrXA5t5n57EILtpzrnLKm5L2XBTH0mb+i/UXtZlnagyWh30T8JzUzR1I8q7cwyomeQDC+tuW2Qab4maQ1cxjWYwGTZ25AgftNp1m58rUpn38An2d8elCx7LRXVVqjT2dSUKvzG5yp+c4BC8lvmZuOCnKEfs0Mfoi249FfUoU70EaFZwXB9bnnwChltPv3zmKCRzClvNIFLHfZkOZepcxmo2LZhZG12eNthwXe3U1FtgXrBkcjaJ+LCuIr9vQEK5TwyyXT2pqKrkk/3fgT9hT3HuJ0O72pb8oZmlwcOo8BtGMKfRh8ZE1wlM1wDClyW/WLCGsiOn3vrW6jotiBhOQ+wvzcAKX9RMS0PRnxH4jc9XP4bw5H9iNoSi4quyiozNQn9Z4xD3FNn00eFZmTZKVN2KTA7NL8q7fvDLrZTwu2wuh1hGlIIGtnJ5vR2OfAn2e9cVPEbA1Ji9tiH2bcCyb6BJH5LsNtTjSGMLh9zM/IrGD1fLBj6S3y/2S7tj/RxoRkpmnonH7hRWqgSJX2lKkhMBtegQpPlrFAvEVp96kzHHGci+/vqV6Gra6GrDWqbkaR1x4dwcViI0VgU59uUhPb09HjTfh9VoSrqhWHe0DczfWWU8Jk16mAw+prQbBQN/XQucOVCwG8bMrveRF+rSiJr93MNK0yhzH929NvHqDMcqBqthVqnilsu7rfVpRY9YFu92VXPfOGTKA76f1WWXXDzthe3vF+H1AH9bF8plzoQjL4qNBsI0O/LA1ZNCPqdy8/R9qCvVgUN93tsAwtblnNnR3bxp6gaLYU6FYz9TX5l2ZtabWdutbY2kXXOwyjsefY3haiE2tjArL1bcy7T8x31fJzrH9WVivVa7KZl5MxercAHrZq0+9SB52SCByMajMp+yjW0KIRO9IdEdvG+VJuWYMolN+6Cjv8U93v8yf4RmW4JOvvtLyJpB78/nyvZG3CxqHloUs7QT+X7RC1pPyUTQjNRNLUP8AEbW3lDf+D5GklQPXsaeX7DNbjwhWTykhpNtNKpW6UkwPwWr8JoZvV4c9HYF6km4eD+xe9WFyzud0SkTepcFqpOVXJG92FcX3AlQ/sHmRGaibypp9iAuRCSYM35ZfubD78+5GVzNYWR6IMYWYynKjU9SNw/4X6HB23t7LO/SOaaGrWBKOKzjvkN0ai0q9Ggq9vToXTqY1w/cCVD2xrXY1+bmoKh/5ANmAvh1vm3ZGZMJs10dkdDu5dtgFHJsjep0aBpDjfv6Wiomzoj+GPmorfilmwJ+zvcyLL7lJ1mniJ00EX3vzFpOb9k6x+p7DRVqSaLzMk75zPa81xfcCVDj8369pZB3cqywXIjU/s2makJrddcxjfC6IRbw1sPmT3QlGc10Fw3Nd2j3ikfJRsYSRbJdFNRmtoS2WTm6kJ7XEBVcg0S4F/YvuBC+O5sMiM0A0+c3fUWBGZLeaDcKm/2etqoQJ0Hojol1xijFOrwNPQxqlbTkOy7UyVAts5+hFvLITLdNGDE9Wkknsbd8pLgmz+7PcB/R5DETK4vuBHumBaRGaEZyJn64Vyg3AjBfFHdEpAp16hncegAL3CNMkohAT6vTgWjajUF7Z4AEfsvo17BH7blUYj939RxmFQtTxSNlO8XIUieLy6dMUMOTGoWCoZ+PhcoN6rnapbss49AEgxt6yLXspyN6q0rVavhtHMC7LTsrzZFzLPO8noOiVd3TWj7W7k+4UZ5Q+8gU0KjKTTweQY654lM42yA7Fc6+hY3xeFMtRIgEsjLGEVdmehz/iehTuyz7Me5z21XsyRAdcGDn6Nd0cHKfk4d50DV8g3a/v1cn3CjXEb/DpkRGsnwwq7XIpC+32jlzd7PkynfoENbfEONVuqW3O1Ov2FSNQFazhOJvoGzKub1lfZjdD6Pz9yA31Bx6E8zJECVcFCPyFd1lEuNPqHDqVp1UTC00GdOCCGzytQ+zgXIjdQtgJvlcLVR61+dK8obayOEzvFUp7mkofO0dkyAlNBuUAlOJTr6SFWS5qL3J/qdC1TSe9VGYxPgpHnO7qhDw9/8K6EeJ1G16qaYSelcv3AlQ1tJZoRGkjf0b7IBcqMAZ7WXtta37Nu5RtsA/Y6q1RBUAlQrONBZ5yYvuPP99NeeUAfOJ62BVMKyB2GrodNgkMQXMD6OXv3BbghRyKb2ZfuFS+XM3po7zQghUzD0q7jguBFunQNd1zgy8bfx88KUOvrUjjKN4aCLbnnjBy+5seaWY26ZYDkN24FEratNRriF1Ri61s0I2gv+1s+/qlxG7yFTQqNAAJ/iguNOPYHvbKF2LcHtXp5pwNHKsh8fv2CpTFWoEzUCZf0bpSz7XnVuCFUpUAoZzfUOSuXCAOJSMiM0guVm995cYNxqtdXzITIVKGiw49FwGz5H0O3a0KgZGXn0TC4Y2i/RAb+11tSb8iD5juzgp3i/RqrlapMFqlLg5F3uocnK0P5GZoRGkE/rU9nAuJGhrQ5zd1t15gNGDxVvNCPWUqpOU6ASnUp4+Yz+8I6xQCd8AX/+qGh219zDLkoQv6sYn0ap55Kza+/rVw8FI5XcMRaeZOib3WwsLIQEAvA9NjAuhFvn0M83QAMOdmNQH+qYM/CfVJ2GUUxrH0WsfkiJjo3Hv2XodjGj9wybXQ3Z+mv7Y4PSnoYNHMWj7M1q3mGpUiFS+xydGjJTnyFTQtTkM9pdbFBcqSeSE65wOzyPa+CRqW/g22oaRzJrDyRn24dRtUJHJTB0jm6M+AZ4/9dUEfGdnZ+lRbYTdGf/4gR89sSE7GL14uOQCl9GqCCnu9SijhgNF03N9S40QoCsmD91V4wWSqfW+1FkZ5yqMzIs50qukUchdRuH0URpk86E5WzBf5+l5i1S7QJHTY3AiKIft7lFzu9eBTtqk4vrc0bP59yc6OcX+Gk6fPNyyW+Wk8d/z93Rj1EKZVtUrUjA3RBzlrY75QztJjIjRMlqJDAuIC618akIT7lXJ70ls4PXc409dKmD2Cv/bqHfRfQcKjENmfrhSFbXU8LifF630FEfw6jwjPXmiYFN9B6JDXfuS8OmvkT+ZnVVWj+K87cbISbPhnlhEqqAEdw5XEDcCEG7k8xExsgzJfvPTINviDDiecjNqWFjoXYGpreIy8p9HLJeQrk/h+pakN8x59Y91b6KnH8aIYz8Fqg7BqpeZOTPnfoOXLg8Ho60g8zUgWRKiAqMBP4fGwxX0uaTmUihJPhHrvFHLXS2pzr7na9T1Tyh9k/EReTnhZoHaUch7R41n1M9EqHquSbRb3ciAd6I0d5WzkdRCvG4vBHJbzuI56O8f2uraGozyIwQBcPD43ZC51vDBcON8kbqK2QqckZuuRq1btjeio52ozpnw+sh4ytOm7prIa0dN5JweL82VIa+LpfW5q9Me5/bOcG0PwDfXAgfran0WfhK9DtZqkrDKF3QOL+6kaH9kswIUbAmrX+YDYQLqaH+kHnsu8hUY1BHbVpOFo0/0udMamIv1cA1Q2bqg0gu30UHWcf5s9mEeqpbuZtzhna02imIfoYrcHF6AxLhPZzvQtHI89n/peIbSi6tf63cl24Fnz9GZoQoUIczc4FwJUN/gsw0HHWSWNJyXqzoGKHIvoeKrYlKHEVTPwoXi5txdfe9aWbDZWjL8RtmFc/tfif9tJokrCXTef8Fq4RlFzv7BiZTsQ0nb+r7sz50odLzQzO1F5kSwiZv6D/jAuFO2q/ITFPQYdkHYCTwENdJgtVAzWVxKlEUDf08XNGX875rURn6K/hNv3Yz9anztCW7Ih5reR8GI/XiJczlbX5Qb3LRr55h/edCOTP1JTIlhA2S2D+5ILhRPtPzDTLTNNCt14WJkLZaT2TtdapjU3EVDJm9hyBBXIMO4HteZasIo5UHVRtYM/OE3ennV0DPA1lf1iOM+p5PZAe/1ciXHWORz2h/4nzmRmg/F5IZIUzUHDB0VN+v7Ivm9KZab7ojajdnjD4Wc52nHiGxfpeKGMWQoX1SJQTOT20vQ3sOHf4CcsUoJmWd/eC3wN4Mw/9bkpbzy0mmszcV0ZSo0T/rK3dyyIwQJrid+QLjfLda3wqTNpP99hG4TbK5zuRDWztNfr4fkt9fGR/FRqVnV+nuA8gdoxiZHsP607WQ+F7G6PsXSevOj5DZpqZg6p/m/ORKhvayWldMpoSwwOhvDhsAV9JuITMtQWlEqFYpWPaTXAdzqZvJ3CjWWr0fgU/8T35tE6E9XUYuGUWHNXgk48vasuz1+PMG/Dmj0UcTeKVwRuqN8Mdmzk9utMpMTSJTQlggid3BOd+NcMtjkpmWQ52VgU715USfc5Z6RtXZPzgf/39LRQcsU6Jv8dFkYhR5Q/sB56O4CX54jtvSqWvhwtdiBPcU59PtwihxOf6clrAGp06cPfhZdWD+OHO4pZeF1TPPE748k8wIYaAOY8ZQewPnfDfKGanIdkMJm8Tcu96bsF49OIgTOujT3IRn1eHhj/Xl/omr0HHZFTG40JzD+XWU+gfn0cfbAvSvizkfuZN2LZkRwgDD8w7e8S6Eof1Yb/5aDYz+ah7AhBHMefTxUailS6yPYiq0qwfINaOYaA7uBT9uLPfrjlLP+ZKmv4OfmpFCWv8q5yM3ymf0hh5e1fYUM/p3OMe7EW5/7yczbUFp/mDWebS8Q+6gjcnZt7ETgJUvOB/FWTmz5xByzygwyq6+K7Tl5Dv6nIn00bZgram/l/OPWw3Nmr4fmRKCBkPshZzT3Um7nMy0DXQK3Q0VHXOkc15DHxvFkJmaxPsn3sJtMOuvkVPhKv2Lkd9dzT6txS9qBQ3nIzfKp3umkxkhaDByWcU53Y3UIdBkpr0wzdfgdrgPnbJs3prNjmjQ0X0fI9rm2lhlOZc69P7+HX2rprZMuWRZ2075QAK8hvGPOxnaj8mMECRqa3TW4W5lTmub5zQcGPEdBakpGOrlB/tMS3Vw+GJjhW9EJamJwOSqUagpLSOJz9mc7B/8Nv1121IwUidz/nEjNbGezAhBog7K4RzuSoaeIzNtjTpAHKOTf3ZU2ecPfvC9iWxM9PTCrsodZNTu2bi4PJHIDsbiAKCcqR/M+MaVcIex9Zm5XW8hU0JQ4MpyKedwd9J+R2baHnUA0kEX3fJG+t9/M4yOnTf0Og6Rj4fULjjkslF0zq++lrrdGDbNnZHIXuT840b5WakpZEoIinxGu49zthsVM9ppZCa2FEztSM43otHChZZdORM3MGi4jfOPKxlapIc6tT1q4i5GL/4P2zFSSTIVW+CHGyv8IqqQuoUbyspUDvQZi/OPG2GwchuZEYKgaOif5RztSoa+YXjBjNJh13Fl+axp++Gq3Lobm0YtQ2d3z4kTeTM1hfWNCyEBPu91N25hDHBbYnCOdiMEY4DMxBaMai7kfCOqJm3tcITHpjYjz5rHvrWei+aqdO8nyJRQL2iQN3FOdqNilT3f4oLqyGjIaznfNFbaPflM6htIzj9H/Xyv7w5Nae04cmFsQWweYn3jQjmj52QyI9QDbdXtf+G+kfoimYol+XRqOuuXRsjQN6iEp47VpOqVWH+OtgdifDpG+lGfL1xVqMvdVL3YggvTjznfuBHizK6sETxSTGsf5RzsShjCr5rTuyeZiiX5jHYX65totaxo6qerg9SpWizquNOcqR+O5HM9kqXvfemCUt7sHpWo40berOvi+TSZEeoBneEkxrkupT1CZmIJrsLjeb9EoJEEdv0QEppKbFQl16yaNW2fnKH14zcUKmxHJDVaperEktKRqIxf3GrFedPfQ6YEv8CRV5Q71q3i3oBxW1nH6Xk+ZegFjLz712Wn7UPVqAv1Br+Q7umG7cW4GEa7gzVu2ddfoO1BVYkdw+PG7YQ+NMT6xpW0LjIl+AUBeJx3rhtpJ5KZ2KGeq6kOzPslHCHhvvDE2eEtg8ql9R9x5YYp9WySio8l6H/XcX5xI3z3YjIj+EGdU8s51q3WmD3/RaZiR9HQT+V8EqpC3gmkrufBPqVezPi5hW8X8mbqTM4v7qS5PoxfYMgZ+jG8Y91IWxvXhqvenGP09yjvl3Ckbk+jOHIUcR3gyg9T6jkmFR876tk/EiPATdvmT43NGurAgRMvKneqW+Uz2p/ITOzIGd2HcT4JU0iAkZwLWzBT6nkgW4cQdT0VHzueUvNI69hCLW/0TiZTgldwSzXIOdWNckYPu7dbHMAo6VrOJ2GqaGoaFR8qw2bX65Fsi1wdQpOhb16XPS6QlzqtCEZyvvsh2uK5ZEbwglx5/KGmj+Tr2TjCh9BBhlRioiqEjnrLzNUjVKFMKj52FNI9vu/Eihn9BjIjeCFnaJ/kHOpG6tlDzjxyNzIVK3IZPcv5JEwVDX0OFR8JObP3fdEneb34cIRJvpkomqkvcT5xp/g+i68LOG9mpTPdKp5vn1QHRfKPdOKwSkTquAKqQmTgNvh6rj5hCheXHio+VtQ7GyMX49kYvikY+pXozM/6EUYkc8lMrFC7GXP+CFNo4Aup+EgpGqnDuPqEq/jezqE//p33SW3l2vVAMkEQBEEQBEEQBEEQBEEQBEEQBEEQBEEQBEEQBEEQBEEQBEEQBCGOjDeX7tbR73w82TeQFIlE7aPO/sWJ8ab9Purqwo509t/2nqTlXJmwnI3JrDMsEonaU4ms/c9Oy/4qdX0hYQ7sn7DsIucskUjUprLseZQC4sv+5sLXI/n9i3WQSCRqb/U7X6FUEE86LFtjHSMSieKg+ykVxJNE1v4F4xSRSBQL2dsmmoN7UTqIH4mscyPvGJFIFAd1Wnd8lNJB/EhYzk2cU0QiUTzUaS2RBCgSieIpSYCMU0QiUTwkCZBxikgkiockATJOEYlE8ZAkQMYpvOy/qnXCotbTRGvwE4mss5mPK6N+ex5nR9T8SmQHetmYVpEkQMYpvOzr6GtCq2Gar0la9iY+roz6B79N3xRajGTfnUk2plUkCZBxCi9JgC2LJMDYIAnQA5IAY4IkwNggCdADkgBjgiTA2CAJ0AOSAGOCJMDYIAnQA5IAY4IkwNggCdADkgBjgiTA2CAJ0AOSAGOCJMDYIAnQA5IAY4IkwNggCdADkgBjgiTA2CAJ0AOSAGOCJMDYIAnQA5IAY4IkwNggCdADkgBjgiTA2CAJ0AOSAGOCJMDYIAnQA5IAY4IkwNggCdADkgBjgiTA2CAJ0AOSAGOCJMDYIAnQA5IAY4IkwNggCdADkgBjgiTA2CAJ0AOSAGOCJMDYIAnQA5IAY4IkwNggCdADkgBjgiTA2CAJ0AOSAGOCJMDYIAnQA5IAY4IkwNggCdADkgBjgiTA2CAJ0AOSAGOCJMDYIAnQA5IAY4IkwNggCdADkgBjgiTA2CAJ0AOSAGOCJMDYIAnQA5IAY4IkwNggCdADkgBjgiTA2CAJ0AOSAGOCJMDYIAnQA5IAY4IkwNggCdADkgBjgkqAWeeVyphWkSTAlkUSoAcSWee3nFOq6Ar6mtCCYAS4lokpL8s5jr4mtBgdln0AG9Mqmpgd/A/6avxI9Nmnck7h1NHvfJ2+JrQgyezg9VxcGW2bYDkfpq8JLcZkc9HOiay9jolrhRKWnRs3PLwTfTV+dMy5dU8461nOOaNkOavHn33rW+hrQgvS0Tf4WTa25bLsW+grQouSsAaybGwrNHgOfSW+dPTbx+BKsIV3EGTZmxJ9i79AHxdaGFzIvs/GmISLYW5i9vb43hK1CRgFvgHJbQkX4+1KWM6i8QuWvo6+Em8SWedwdI4nK51kP5aY7fwPfUxodXC7g7iejrg+Xx5rXOhuS5qL3k+fFFocJME3oU//DH171OAG/78Z8f9h5/wlu9JHBYV6dtDRN/BZdITvqLeAyaz96a6FC19L/yy0EQnzrjcjzl9OWoNnYNR3Uqd1R3zfBLY5E7KL9+nI2scmsoNnQr2TTGdv+idBEARBEARBEARBEARBEARBEARBEARBEARBEARBEARBEARBEARBEARBEARBEITmJ3/u1HcUDP38Qkb7Vc7oPmx43Lj4bpTY5qjY5s3UFMT7qryhZ1ad07sn/ZPQRpTiPEviPCYrzpv+npyhfy+f0V4sZPTh7YLD7i6a+lHDcd4xts0YNs3XFA39GMR3aVmsX8gb2oVD5rHvoo8KLYyKM/o0G+dCpueip8/T300fjS+FWal94ZQfQRt3dFKFDP0BjAqnDS/skq2xWpRhc/LOuUyPns/oD7Mx3i5Dexmd5LL8LE02RW1BFiHORVPTJM5jsMbs+S844Ao4YDPrnGoy9EcLmdTxwwtmyC6yLcKyU6bsUkzrX8Po/nE2plWE0eAmfOf/VpnT/pNMCU3MsNn1+hzijH79GBfPakKMNxVLce5t/zgPmdrH8aMXonFvLXeERz2N5PnNFadNlR1lm5ScOWM3xOkUxHplWey8ags61TXFtCYbpjYhOfPIUpyhFTvEzI+2oE//eqXZfRCZbh+KRs9EZPo/YVi8jfnhvoXOVYDOHDK73kRFCQ1mram/uZDpORtxGeJi5lfoHNvQfq4vmD0JKkpoIMsQ5xzijNgUy2NVj1Sc8Wd7xLlgpj6DRnt7+Y8MXtpalGMsP0fbg4oWIka93Rt5g68/UxmfYIWL6V/yRs9kKlqIkPXmiW9TcUaikjhzDA+P2wkO+gJ+wJLyHxS2MOp4rmjoc5B496LqCCGj3trC7xeiQ7zAxSRUGbqtptLIdKnwKcU5o89rSJwzLRDnhV1dr8VIrAuN8u/MD4hWhr4BnfLilab+XqqeEDA5s/d9uEJfCj+/zMYgWi1VU2vU1AuqnhAQ2+MMH79U5vNGaGk+rX25qeK8dMaM1yE7T0fS+RdT4YYKV6tX8OeC5bOm7UfVFepkdbrnQ0g2P0Pi21Tu70YLI5SH1VQbNeWGqiv4ZCXijP7TlHEuGNo/Gh7np8xj31DM6Cfh6vAkW8lmkppuY+hX5k19f6q+4JEVae2j6AzXIMlsYX3cREKbfFxNvVFTcKj6gksKZupAFWf4sQXirD9eNPWvqSk4VP1oyM/SPoWrQ46rVDMLgd0K/VxuldyjJp+XLh4jb+dYvzaxVqyalZpEP0UYg1aP85AZYZxRoFNWgdaSqX+afopQg5zR8znWhy0ijBL+Sj9FGIOcqR/O+a9VhIHNIvop4aImH+NKoZ6tsRVpBcFZafo5Qg1yaT3L+bBlZGgb1HNq+jlCFeAni/Vfqwhxxp1d+M8Ehwztk2wFWks30s8RaoCLRQTzOMMVbus66OcIVchntNs437WUzotg8jQy7Vls4a2lZ+Q5YG3UWzYkj0bM+wpUxYz+HfpJAoMaOeFCN2onplZUztBPpZ8UHnm1TIUpPCipZza4Gn0fAXmW+/fAlO4+gH6SUIWcqR/M+i4oGfq6Qkabj/9eXPFvAQrt6bf0kwSGyOJshBtnaCH9pHAorfLIaKuZgusSkt42jCz/XDR6J1JR4544u+stOaPnPPx94OUpIcHOoKKEKhTM1Mmc7+qWoRfUncSamSfsTkWNw9X7v/FvN5faAvedemRoK6kYgaFg9IQSZ8SyqNYLl8cZf9+acVaTYNmCfQpJaCsS6u9Wpbs/QUVUoHYVKZr6qbiKr+Js+Jah/ZKKEKqA+Pya9Z1fGdpy/HnKWLv45M3eCSj3upG2wdjwKbWigYoQyoCv1bw/1m9+hOSmdoapEefuCej71wYd51D3F8QPO5Yr1Kvwo0cmJqd7P0Kma6ImtaL8k/KG/gRn04eWkWmhCpSwON95EuL9GBr7iQ97mLCqJuTiu1cj3oFMyM1l9B4yLZQRZJzVnoCe4pyefgC+ezXygbe9QauoGGac0Rh/whXqVnDQRjj7x4Vsal8y6ZnSg/l0z3R0qH9yZbgVfsu2/LnHv4PMCmWsNfX3cn7zIsT7oVxa04a7/O/kPWSmPohY/QwdpK6pV7iDuJRMCjug1stz/vKiooqzWppWx47tgcXZ0C8jk8GDEdjY21yPJUP7hzr7g0zVjXqLW8xoZ7BluVQu3fMlMieUUTD1r3I+86BT1DNjMlc367LH7YPO8ShTjjsZ2t/IlLADhXR9cc4Z2reDjPOqWdP2wYXTd5xxobuPTAXL+gu0PVAx3/fr+bQ2m0wFxpp5J+yOjO/7Fgm/50IyJZRRMFIXcz5zqY1qrTiZCgzYvaisHNdCO9ksG+dWgj7gP84Yra2YH/yu7LDdfHGGo47gCnSrvNn7eTIVKAhCPdtvOWRGKAMjpnsZf7kSrsJ3kZlAodPk2DLdaJWhf5ZMCUQho93D+cqNkGzuJjOBQqfJsWW6EdpJ8HGGYd9LotTIMazdmgtp7XKuTDdCvV6OfCeJFqBwRuqN8I3vh9JowN8jU4GiNuXkynOrfEY3yJQARuJcx8uHkOJcnN39TsTK9zSZYhhxRoX+yhXmSob2DzITOOrhK1umS6nzSsiUQKjNIjhfuVXeSH2FTAUO7Hs6XW6UDO0mMiOAvNE7mfWTS+VNfSqZChzkG99xxndvJjPBUNr0tOzQci/CaOKnZCpwCuax7+fKdCvU7UwyJRC4hTiP85UbqSt3mIdeY3R5JVeuGyHWz8oSyFcpLTRg/ORWy83uvclU4ODW/AquTFcKOs5oOOPZglxqVabneDIVChiK+96bEIn9WjIjEPDJnzhfuRG++ySZCQW0xa9z5bqWmTqQTMWeuuJsaE+RmVDAhfQkrly3CvQYVRhU536yBblR2IdbI+P/jivXjRDIghyq8yrqypmv48Qv+PMqMhUKqmFz5bpV0UzJEkhQb5wx6Ag1zmoHcrZcl1IJlEzVTzGj+18SZWirw04wuJKdxpbtUkVT+wCZij3q2ADOR241lEl9g0yFgppUjXLWl5frWoZ2BZmKNWoVFusfl0I7+SaZCoW645zRg4szjPk+9R0jgj+SmdBQhyhzZbsVEmgvmYo96iwNzkdutTKd+hiZCg2Uc3N5uW6F9vgYmYk1amki5x+3GjK1j5Op0EAdb+LKdqWg4qxmZrMFuJTaDYJMhYZae4iy6jm270dkKvbgtujnjH9cCcnlOXU8KpkKDdQxw5XvRuoljZwbrXyo+Y4zkstz9SxvdAtiZbDlu1BgcUYWnsYV4FbqQGMyFSoI6N+48t0IznqQzMQe+NH/crOMNkhmQqVoaEfz5btT0UzFfgkkYvUI5xs3Qn9ZQmZCpWjqR3Hlu5WaUE2m/IMfewln3K3QoW5fFPL5nSjjCMj/Mj1D37LW1N9M5mJL/typ74A//O/TZuibQ5mFvwOl0b6h22z5LoW2EuslkCrOpRES4xs3Uv1l1SztUDIXCirOKKeuOEMXkTn/wFFLGcOeFNbKAIXaRQJl+H+bRVKnn5HJ2FLvFbckQ19TMKe9n0wGDkYuvlf+bBcSYCQj1WalYKS+yPnFk0KOM5LfZWy5XlRvnAsX1blUhqSuNkVT08hsYKhFz2jMD3FlepfWR2ZjC2I9l/eNN+Uz2n3hLJJPHc+V51mG9nKcD00vZrQLWL94130588jdyGxgqHnDTFneVYrzKf7jnDd66loqM0qGtmFVgG+O1NQa2F1YUY5fGdotZDq2wA93VPjFt7RfkdlAQHLuUA2aL8uHjFSSTMcOXKAWsT7xo4DnAwYdZ9zVdJJp76iEVc+zgnLB8U+uOqd3TzJfF4VMz9lcGX6FkWTsD86BHwI98CoX0Cld6m0e7PmeilUhQ9uaT09zvRt5uwEfXFfhkzqk5uGS6boIJ87ud51nQQKcxxr3KWT4W+vZOVYxZOqHo16BbJWuhDoV1c64ZD62qGc6pWc7jI/8CBeVzWpjBTLvC7UOHbYCHJlChmaR+VgSfJz1zfDp/5B5X4zEWQs0zrmMniXz/lHJChn+L1wBflXPWzi1agPBW8fZ9SPUZRNGKv9N5mOPeosL/wZyPkNJhra6ngOJEJ8fsHZ9Cm35T7IhAu7ugo5zRl/9TD1xrnO2SbkCjbO6bVW3r1xBfjRyW61NI/OuoX3qHuBs+pbRczKZFwjEuq6jBhjdO+xjh+i8mZrO2PIttLtlT5nHvpXMx56iqZ/O+akOLR3rJLhqjJzxw9rzq+DjrJ4H4mq+gSnMl9DJXsRo7lA1onOj0nSXOjY9YCVHY1YFvgn2qERDv3oFYsjFlhMudGpuZ3AvPTL683IY/mjUi0T4ONA4Q57ijH49Bd+pZxVXucKLszpyDgUE9lKkoTK0e8M4t6JdUOcx4yJ1P+u7FhOS77YwN2ltZdotzkNhxzmX0eZzhbeScNUbkoOya7McV2j4KrDnrY0SOsYc+kkCQ2FWat9CRlvL+a6VVIwizmpZGzrF7VwFWkPapnrfTMaJ3Cz9cCSQwN64Ry5Du0leetSmaKQOC3JmRfSKMM45s+ftKPTpyko0v4KamxYnkETO4nzZ7MKt3ePqOFf6GUINWjfOevRxzpn6wSg8yIeXESjY1QlxofSwPKP9lvdpcwp3KS8Gui16DKCXIi0X55Vm90H0E6IFnaKXq1QzCnUNZX1qXCitC8/oD3K+bTaVplmZ+lep6oIHWi7OPqbTBQoysP+T5aNSyDtXxIWh7PT94M+6d94JW+gY86jKgg+GZk3fL1/PeSERCbmn8duaDZvmzhhdBbe4OmAhkKHvURcn0OiOgF+b9mE52uJfotituN1RGxnDn038UqSJ4qwWMSPRBLeIOUChQ5xB1RQCot7zZMMSYh3YZhtCacrbuZyfG62mjHPe7J1QCHbmfv0ytGuoekKAqIflOUP/A+vzRsnQNgxFcCBTnBjZck77PevvRingbfUCpZDWjmMr3QDhKnG/muVOVRMC5l8zT9g9n9Ef5nwftdTDcLVKiaomBEhp0+EminMuHfzGyoGCSl7KVT5aaWvV7HaqkhAS6sB7XJGf5WMQoQz9u1QlIQRWp3s+1BRxzmjzqUrNy/CC0r5eA/wPCF9q1YJavUDVEUIGyecL+ToOpKpf2m317i8p1KbRcUbZt7dMnIuzu9+JK8ZK7oeELkM7i6ohRARG/b7Pb61HuNg9pVYlUTWEkEESSnNxiEBPt1yc1ZkLcNhG5seEpnxG+616cEtVECJieFitFAl2O/1aQvJ7aXW69xNUBSECSnE2tEC3068pxFmtOqMqtBZFU9PgsOegbSFrK3S7msVORQsRo85VVo8+KBZcjALTyPMorYuKFiJkmYqzoS9GHCTOblBXjYVdXa8NU7LbR/OgYsHFKEipNkXFCQ1C4iwIgiAIgiAIgiAIgiAIgiAIgiAIgiAIgiAIgiAIgiAIgiAIgiAIgiAIgiAIgiAIgiAIgiAIgiAIgiAIgiAIguCJceP+P6BAH+VUt04CAAAAAElFTkSuQmCC;" vertex="1" parent="Lco-4d1pUUgPBGDJDoPw-4">
          <mxGeometry width="93" height="93" as="geometry" />
        </mxCell>
        <mxCell id="Lco-4d1pUUgPBGDJDoPw-3" value="Scan Code For Compliance" style="text;html=1;strokeColor=none;fillColor=none;align=center;verticalAlign=middle;whiteSpace=wrap;rounded=0;fontSize=20;fontFamily=Architects Daughter;" vertex="1" parent="Lco-4d1pUUgPBGDJDoPw-4">
          <mxGeometry x="126.5" y="31.5" width="60" height="30" as="geometry" />
        </mxCell>
        <mxCell id="Lco-4d1pUUgPBGDJDoPw-7" value="" style="group" vertex="1" connectable="0" parent="1">
          <mxGeometry x="223.5" y="828" width="175" height="180" as="geometry" />
        </mxCell>
        <mxCell id="Lco-4d1pUUgPBGDJDoPw-8" value="" style="group" vertex="1" connectable="0" parent="Lco-4d1pUUgPBGDJDoPw-7">
          <mxGeometry x="14.5" width="140" height="180" as="geometry" />
        </mxCell>
        <mxCell id="Lco-4d1pUUgPBGDJDoPw-5" value="" style="shape=image;aspect=fixed;image=data:image/png,iVBORw0KGgoAAAANSUhEUgAAAUAAAAFACAYAAADNkKWqAAAAAXNSR0IArs4c6QAAAARnQU1BAACxjwv8YQUAAAAJcEhZcwAALiIAAC4iAari3ZIAAAAYdEVYdFNvZnR3YXJlAHBhaW50Lm5ldCA0LjEuNv1OCegAADoJSURBVHhe7Z0JnBxVtf+DogiKiigqik9En09AVJLpnkSe8SlgUATRjJmp6gmbL7iAsoUtXV1M9SQkYBQE1KhPBQE1KuAfZREwZKombBHZVAhrll4mC4QlELLN/3d7TiTTfXq6qrqqeqnz/Xx+n0DSfe7tc+49davqLuMEQRAEQRAEQRAEQRAEQRAEQRAEQRAEQRAEQRAEQRAEQRAEQRAEQRAEQRAEQRAEQRAEQRAEQRAEQRAEQRAEQRAEITZMuWTZLpPNRTvT/wqCILQvnf1L3pOwnJmJrPOXZNZZk7TsbQnL3pK0nCfx5286rSVa52lLdqWPC4IgtD6T5jm7I+ldgoS3CYlvuIYKyezg8fjaTiPfFgRBaFEmZgf/A8nvn0yiG1uWc6XcHguC0LJ8zFz0ViSzRyuSm0slsvZPyZQgCEJrgQT2Cy6xeVFHv30MmRMEQWgNJpiDB6qXHFxS8yTLfnScab6GzAqCIDQ/SF6XViQzv5ptH0ZmBUEQmp3hnRKWvYpNZj6UyDqXk2FBEITmRr355RJZHbqfTAuCIDQ3nVn7UCaJ1aMXyLQgCEJz05kdmMIkMd/CLfDLMCsTowVBaH46+5ZM5hKZb1n2ejItCILQ3JSmwHCJzK8s5wkyLQiC0NwccoG9B5vI/MpyFpNpQRCEZkdNg3GeYZOZD6kVJWRYEASh+cGobZBLZr5kDZ5NZgVBEJofJMAfs8nMjyzn82RWEASh+cFt60lsMvOhjgvvfheZFQRBaH46+5cczCUz77JXkklBEITWYPyCpa9D8trAJzVP+h2ZFARBaB2Slv1XJqF5UqLfPpXMCYIgtA4YAZ7PJTUv6uxffDCZEwRBaB3qXRKXyNrrZDNUQRBaEnXuLxKZ7+eACWvgWjIlCILQeiSyzo1ccnOngW+QGUEQhNYj0Wefyie32kpkF+9LZgRBEFqPCZbzYS651Zb9CJkQBEFoToYXzHhdIZM6ftg89g30V+Wo80Ee55PcWLK/R9+vIH9e94TVhv7f9L+CIAjRsuK0qbsWMtq3Coa2vJDRh/OGdgT9UwWJ7MDFfJKrLtz+foa+XgHK+1GpzIw2kDN6Pkd/LQiCEC7/mnnU7kg+M5HwCioJvSqt6sltiezgZ7gkV01qK63J5qKd6eujGMaIEmWvHFW2od1bNFNfMmXKjCAIYbD+HG2PvKFnkHzWjUo+ryah5So50cdHoZbFedkfELfMV9FXK1id7v0EWz6Euj2US2va8MKu19LHBUEQ/FMwU3sVM9oFSHDPcUlnR6nkRF+rIGk5V3LJjlPCGpxKX6ugYOjnc2XvKCTCxzAiPfFhs+v19DVBEAT3rDX19+Yz+iVIOBu4JMMpN8aLiY4++xgu2ZULo7+XDrro/jfS1ypAOReVl1tNGLGuQAI/ecX8qbvS1wVBEKozNGv6fkh6P0HyeIVLKtWEUdezw2M8gxtvLt0No8AXuaRXpuvoKywFU/80V/5YQiIvYgR71pp5J+xOZgRBEF6lkO4+AEnsKiS+LVwSqSlD+xuZqkA9A5w0z9k9adnXMwlvtCx7hvrsuOFh9nniSoxM2fLdyNDX5TOaucKc+jYyJwhCnEHSG4/k8AcksK0VCcOLDL3qyW1IbN+oSHQ11Nm/5D309VE8ax77VrZ8D0ISfB6jwnnF2d3vJLOCIMSJnNlzCJLeTUgE27gk4VVIKn8i0xUkLGcml+TGklpBQl8fhXqxwZXvUy/hAvCDddnj9iHzgiC0K2qaStFIHYaOf0dZIghCV1MxFSSydj+X5MZSZ//iBH29AiRu1y9mXKn0vFP76ZCZ+iAVIQhCu6AmCOcM7ei8od/NJoAABNuXUXEVJCz7ci7JjaWOvsVVV3igvBXl5Qch9fwTurpgpg6kogRBaFXUhOBCuqcbt7kPch0+UBn6+VRsBUiAv+GS3FjqsGyNvl4ByruvovwAhdvibRgRXps3eydQkYIgtAojz8lSxyMpPcp18DCEkdM3qfgKkpZzO5fkxpQ1+B36egUo7+by8kOSej5681jzGwVBaBK2b1CAEUxpg4IolTe1L1M1KkAC/Aeb5MZQwnIuoK9XUDC0X3J1CFmLh0z98GrL/QRBaBBqgwIkvTOhsg0KolPR1DupOuXslMzaz3FJroauoO9XgNHmHK4O0Ui7J5fukY0XBKHRLD9H26OY0Q10yrV8Z41GSEibV5+nv5uqNYpJM53dkQC3MQmulm4jExXg9v5Erh5RChebh+D7Htl4QRAiRm1QkHe5QUHI2ohE8FO1fI6qVkHSuuMjTHKrqUTWXkYmWIqmdmguo4UxncerlhVM/QTZeEEQQkZtUICkd3HBwwYFocjQNmD0c4mqD1WtKh3ZgSlcgqsltSlCteVwO5IztE+iTjcGNaHbt9RzV6PnZPUclqomCEIQDM2ath9uMz1vUBC0MNp7DnWYq0agVLWaqJPduATnRpNMZ28yU5OcqR+cM/Q/oI71LemrU/BPEX/OXDNTNl4QhLrIm/r+hYz2K3QqfxsUBCZtrdpEQD1zpKq5Jmk5F3HJzY0SfY7n6Sc7+Gwz/1sikmy8IAj+wChmPI1mGnpbh/LVW+WZQ2bXm6hqnkEiu7Y8sblWv3McmfFM0dQ+gCT4E9R/446/KWqVNl7AqLl4rmy8IAhjMkTPs6CmeJ41xklvrklm7YfY5OZG/fZsMuOb0vZZRupi9dyS/a3R6SX13HTVrGmy8YIgbKe0QYGpHYrbtoa/0czTG0111CVVry7UwUYJy9nIJjcXSlj278lU3Wx/c66eY3K/PTIZ+iuoh2y8IMSb4eHhnVal9aNwexTaBgVupdYKqzltC7uCndM2wbQ/wCU2t0ICfIhMBYbaTxA+zzTB3MktSIZXFdLTD6CqCUL7U9qgIKNNQ+N/gOsY0Uq7p2hoRw8Ph7O8K2k5n+cSm1slss7LXV0LQ5lorJ5r5o3UmfBBnvdNNEIi3IYR4bV5s1s2XhDco26vOk9bsqubuWLNgLqtLJjacQVDi2yDgqoy9MW5WfrhVLXQSFqDZ3CJzZOsOz9E5kLhKfPYNyAJfgt+ebrCT5FLu6mZN16YcsmyXRL9ztG4sF2K2NyWtOx7oduhH3Rml0zpWhjOxUogOvuXHIzboh+qVQIYHWxRS6zw5wsJy7E7rIFZn5xrv48+2jSoFwm4yn8TDbyhHUxNFMZI4+Yhs/cQqlrooJP836hk5kMJa+BLZC5Uls7ABaq0g07zXKCaZeMFdUofkt4saDUXo+1S/RKfOYq+JgTFRHNwLyS633JO31H4zGYE4RdeJtCGRekWK6Od0fhbLDUxWLt2jaGNp6pFBi5Wd3Nx8iJ1YSNzkaCegxbMnu5mekTRyI0XOvqdj2OE9yQXm2pKWIM/HD9jQSAv0mKPCgA60irO0dWEEeHqjuzgp8hEpKjJwhhtNXyDAnTgzRh5Xq1Oe6OqRYppDr8GHcfNMZhjy3KuIZORop6Lhr2Ltgc9WDBT3VFvvJDssw9Td1hsXGrruvEzlkoSrAckvo8hmT3DOLe21PSLfucrZCp0StMsDH1Oo6dZoA6l8y1WNHiaRb1vgLcrjDfBXsmVzlFpko0X0tFsvJC07vh8PVOYlBLWQNU9HYUaTDYXvSGZtR/hHOtW6pYYf04jk6Ewck6t9v2GT7Q19A1Ivj9olom2ib7FR5fHw5/sV9S5wmS2oaiJ6hgVBnaSnm+VNrzVvhXWxgvw+afRd17m4+FF9qaJswf/i8wKXsDVx/NRirzsTR3WwJFkNjDUUis0xgUjIy6mkUYljDiLhj73iSZbagW/p/l4+NDsOw8is00BLjSls5RHnq8yMYlIKL+0VPFfAW680Gkt+SjuntazcfChRNb+FZkW3LK/ufD1cF6h3Jl1aEOi3662Y7EnSovtDf1K9YytvEFGKTT+0mL79Rd436AgCtCJFjJx8CfLSZHZpkK1BcThKlwEG98WDD1Tb1voMO9+F/y9vML/dUiNJCfNc2RnHC8k++wjOGfWI1yJhhLZxftSEZ5R2y3htuP3GHE1erulAupwVpBX/TBA0nqUi4M/2ReS2aZEbVeGC2LDN14o3Q1ktAv83A1MueTGXeDnJbz/61Oif/ALVIzgBiSruZwj6xWuRg9ONhd52tmENtz8c0Vji1qlDQpSLbHhZmneWNbeysXAlyz7FjLd1KjnwfmMfgli1dDnwbhIvpRPe9t4IWHZP2F9H4DQn8+kYgQ3BHr7VCYE+vfjxtVePbJqlnYobi0WcQ0sYi3DyPPEoDYoiIJk30CS830dKpDplmBkRoA2F2r8jABDu5iqVRX0t+MYnwcny+6jogQ3JLOD17OODEiJvoGzqCiWVXN690TjHeIaVVRC+SOH7gS8QUEUoMHP4Pxel2bf2XL76ZXmhDZ64wWj52SqDsvE2YMHwr8bKvwdoBL99qlUnOAG3Kou4BwZlNT0mFq7DaPhfJFtUKFLu6dopr4U1gYFUQD/Xs75vR519A9+jsy3HGpVEGI7Exe1qI8t/ctYy+nGm0t3w+jP85nNXtXRN/BZKlJwA5z2v+VODFpqdcl4c9HbqUgWerDNNawwtDhn9LRsJ98RJECH83k96sw6Y47aWwG1LlzN30Oso1gXvn5d9rgxnwHiTijUgYYS2sIzHzzlxl2oSMEN6nYHt1GbOIcGrBvGeh6oDrbJZ7QnmcYViGhC7c3NvAOIV9QSODR6v8unqsuyG7IkLgxKOwOl9RNwgQ1r44VleaNnzFVQapMJ1s9By3IuoiIFLyT67F+wDg1YHVnnFCqSZbnZvXch03M2rtyrmYbmT4a2FbdD1+XN3rbbA67TXPRBzs91y7L/QUW0Der5rlrjiwvhg2w78SpDe3bITE2vtXlCh7noXfDnGtbPwWpNx5y796RiBS909t/2Hjjw2TKHBq5E1n6pw7JrbhiQM3vejiT4R7bhuVR+5HS3q9HoDySzbUeyz/kK5+d6pZ7bquWRVExboZ73ql1fkAh9b7yAO5W7lpvaB8jkWOyUzNo3cD4OVva2zv4lx1CZgh8S1uBU5UjewQHKsv++v/lwzQXm6oEyktg3Pc/zUudAGPrP4nAORLJ/sI/1cQDqMJ223zVZ7QOINuN644XSRdXQ+tV+hmRiTBKWfQLn28Bl2QYVKdQDboXPjCQJZp05VGRNVqX1D6srLtcgy/RSPq1dWuthdDuBhh/aFCbVeamYtgd3HIcgsd3EtKl/K29oj+GiOom+UpMJ2cX7JANc51tFG9Vh+FSkEARqWys4NtTbYXSuLV7WC5fO9jC0s9AIX65omOos2Iw+rzg7fmfBwpdPlPs2ONnfo2JiA9rXeLSna9HW/r0EE3+3Ff9/cc6csRt9zAXDOyUs5yber8EokXUenGjd8QkqUAiSCdl79oGDb+QcH5zsR0rnjHhgtdn7n4Xte8UZ+jro/BXm1LfRP8eKzvlLdk0EuQSuTLhI3URFxQ61sS3a1lVoZw94GfVtJ+TVHi+ib56nNjGh4oSwUM8F0RGeZoIQiBLZge+qcsbPXfqWroXDrlZhqIfYeTM1Zc285t6gIGwSs+/an/NpUEIne4yKElyAi9FJScv+cseFd7/L98bCYwoXO8u+Ut1aU5FCFKi3gaX9Ai1nLR8Y/4JdddjSIfhzEWRPzA7+BxUr1EDt+sH5NDjZr4xr4PkYrUKnefPb4KvfKZ/hovECBgx3VPqyDln2ttKz3tkDTbVPY+xImHe9OZkdTCMYgSZCNJpXd8O17PVItE25H12z0dHnfH1HP4ahg/vvfTcVJzB0Zu1DkfxWcr6rX/ZWJNPfT7QG5TlfM6G2uEKATkeiWlEZtGCE0eC1rbggP0rQQc7nfBekOvsXH0zFCTug+gCS0+Wl0Rnjt3qkBgSw/ZMJlvNhKk5oRtTZEZ3nOzo64j1cIOsWRpqJ7EAvFSeUAR+pA7N53wWl2fZhVJxAdGaXHIqLv6ejK13JsvOQccjs+95BRQmtgprSksgO/gpXrrpOtmJl2bdMuMB2M+s+VsAvV7L+ClDqJRgVF3vUMjO0cbVkNMhRH2zZA0lrsLtZDqMS6mD8d5e+vfTCJBvkFu2qI6oldAOzZKeLV4FfSg/ewxQ6vIzAh4d3GpnWEtx6XvSRZ3AB+4GbZaFCK4JG0zl7yWQ0HIxS7OA2gLScRzv6WnevuiCBP66t8E/gGjieiosl6oQ8NTuB941nbYWtRWjDKa/zX4UWRr097ux3vlZqSEE9NLbs6ydlnf2oiFiSyDp/YH0ToDqz9rFUXKw45AJ7DzVCw53HFs4vnqWWxFl3fITMC3Gk07rjo0GOBpFQNyIJzFUJloqIFfDB1eU+CUGhHnTfbKjJ+DS9KPjtqyznx1SMEEeQ/K5jG0adwlV6SM3Cn2wu2pmKigX43T/k/BGkOrMDU6i4tkfN6UM7epDzQwBaL1vVxxw1UktYA7cyjSMoPZzoWxybM1FxQZF5gAGgbk3xW8Pcs6/Q0e98nIobk+K53e8sGvp5hYw+k/5KaGby5x7/jnxGd/IZrXfF/Npn6KoF3GgQId+62X9Fg2v7vewwAgx9r7l23mF4ojm4VyLrXA5t5n57EILtpzrnLKm5L2XBTH0mb+i/UXtZlnagyWh30T8JzUzR1I8q7cwyomeQDC+tuW2Qab4maQ1cxjWYwGTZ25AgftNp1m58rUpn38An2d8elCx7LRXVVqjT2dSUKvzG5yp+c4BC8lvmZuOCnKEfs0Mfoi249FfUoU70EaFZwXB9bnnwChltPv3zmKCRzClvNIFLHfZkOZepcxmo2LZhZG12eNthwXe3U1FtgXrBkcjaJ+LCuIr9vQEK5TwyyXT2pqKrkk/3fgT9hT3HuJ0O72pb8oZmlwcOo8BtGMKfRh8ZE1wlM1wDClyW/WLCGsiOn3vrW6jotiBhOQ+wvzcAKX9RMS0PRnxH4jc9XP4bw5H9iNoSi4quyiozNQn9Z4xD3FNn00eFZmTZKVN2KTA7NL8q7fvDLrZTwu2wuh1hGlIIGtnJ5vR2OfAn2e9cVPEbA1Ji9tiH2bcCyb6BJH5LsNtTjSGMLh9zM/IrGD1fLBj6S3y/2S7tj/RxoRkpmnonH7hRWqgSJX2lKkhMBtegQpPlrFAvEVp96kzHHGci+/vqV6Gra6GrDWqbkaR1x4dwcViI0VgU59uUhPb09HjTfh9VoSrqhWHe0DczfWWU8Jk16mAw+prQbBQN/XQucOVCwG8bMrveRF+rSiJr93MNK0yhzH929NvHqDMcqBqthVqnilsu7rfVpRY9YFu92VXPfOGTKA76f1WWXXDzthe3vF+H1AH9bF8plzoQjL4qNBsI0O/LA1ZNCPqdy8/R9qCvVgUN93tsAwtblnNnR3bxp6gaLYU6FYz9TX5l2ZtabWdutbY2kXXOwyjsefY3haiE2tjArL1bcy7T8x31fJzrH9WVivVa7KZl5MxercAHrZq0+9SB52SCByMajMp+yjW0KIRO9IdEdvG+VJuWYMolN+6Cjv8U93v8yf4RmW4JOvvtLyJpB78/nyvZG3CxqHloUs7QT+X7RC1pPyUTQjNRNLUP8AEbW3lDf+D5GklQPXsaeX7DNbjwhWTykhpNtNKpW6UkwPwWr8JoZvV4c9HYF6km4eD+xe9WFyzud0SkTepcFqpOVXJG92FcX3AlQ/sHmRGaibypp9iAuRCSYM35ZfubD78+5GVzNYWR6IMYWYynKjU9SNw/4X6HB23t7LO/SOaaGrWBKOKzjvkN0ai0q9Ggq9vToXTqY1w/cCVD2xrXY1+bmoKh/5ANmAvh1vm3ZGZMJs10dkdDu5dtgFHJsjep0aBpDjfv6Wiomzoj+GPmorfilmwJ+zvcyLL7lJ1mniJ00EX3vzFpOb9k6x+p7DRVqSaLzMk75zPa81xfcCVDj8369pZB3cqywXIjU/s2makJrddcxjfC6IRbw1sPmT3QlGc10Fw3Nd2j3ikfJRsYSRbJdFNRmtoS2WTm6kJ7XEBVcg0S4F/YvuBC+O5sMiM0A0+c3fUWBGZLeaDcKm/2etqoQJ0Hojol1xijFOrwNPQxqlbTkOy7UyVAts5+hFvLITLdNGDE9Wkknsbd8pLgmz+7PcB/R5DETK4vuBHumBaRGaEZyJn64Vyg3AjBfFHdEpAp16hncegAL3CNMkohAT6vTgWjajUF7Z4AEfsvo17BH7blUYj939RxmFQtTxSNlO8XIUieLy6dMUMOTGoWCoZ+PhcoN6rnapbss49AEgxt6yLXspyN6q0rVavhtHMC7LTsrzZFzLPO8noOiVd3TWj7W7k+4UZ5Q+8gU0KjKTTweQY654lM42yA7Fc6+hY3xeFMtRIgEsjLGEVdmehz/iehTuyz7Me5z21XsyRAdcGDn6Nd0cHKfk4d50DV8g3a/v1cn3CjXEb/DpkRGsnwwq7XIpC+32jlzd7PkynfoENbfEONVuqW3O1Ov2FSNQFazhOJvoGzKub1lfZjdD6Pz9yA31Bx6E8zJECVcFCPyFd1lEuNPqHDqVp1UTC00GdOCCGzytQ+zgXIjdQtgJvlcLVR61+dK8obayOEzvFUp7mkofO0dkyAlNBuUAlOJTr6SFWS5qL3J/qdC1TSe9VGYxPgpHnO7qhDw9/8K6EeJ1G16qaYSelcv3AlQ1tJZoRGkjf0b7IBcqMAZ7WXtta37Nu5RtsA/Y6q1RBUAlQrONBZ5yYvuPP99NeeUAfOJ62BVMKyB2GrodNgkMQXMD6OXv3BbghRyKb2ZfuFS+XM3po7zQghUzD0q7jguBFunQNd1zgy8bfx88KUOvrUjjKN4aCLbnnjBy+5seaWY26ZYDkN24FEratNRriF1Ri61s0I2gv+1s+/qlxG7yFTQqNAAJ/iguNOPYHvbKF2LcHtXp5pwNHKsh8fv2CpTFWoEzUCZf0bpSz7XnVuCFUpUAoZzfUOSuXCAOJSMiM0guVm995cYNxqtdXzITIVKGiw49FwGz5H0O3a0KgZGXn0TC4Y2i/RAb+11tSb8iD5juzgp3i/RqrlapMFqlLg5F3uocnK0P5GZoRGkE/rU9nAuJGhrQ5zd1t15gNGDxVvNCPWUqpOU6ASnUp4+Yz+8I6xQCd8AX/+qGh219zDLkoQv6sYn0ap55Kza+/rVw8FI5XcMRaeZOib3WwsLIQEAvA9NjAuhFvn0M83QAMOdmNQH+qYM/CfVJ2GUUxrH0WsfkiJjo3Hv2XodjGj9wybXQ3Z+mv7Y4PSnoYNHMWj7M1q3mGpUiFS+xydGjJTnyFTQtTkM9pdbFBcqSeSE65wOzyPa+CRqW/g22oaRzJrDyRn24dRtUJHJTB0jm6M+AZ4/9dUEfGdnZ+lRbYTdGf/4gR89sSE7GL14uOQCl9GqCCnu9SijhgNF03N9S40QoCsmD91V4wWSqfW+1FkZ5yqMzIs50qukUchdRuH0URpk86E5WzBf5+l5i1S7QJHTY3AiKIft7lFzu9eBTtqk4vrc0bP59yc6OcX+Gk6fPNyyW+Wk8d/z93Rj1EKZVtUrUjA3RBzlrY75QztJjIjRMlqJDAuIC618akIT7lXJ70ls4PXc409dKmD2Cv/bqHfRfQcKjENmfrhSFbXU8LifF630FEfw6jwjPXmiYFN9B6JDXfuS8OmvkT+ZnVVWj+K87cbISbPhnlhEqqAEdw5XEDcCEG7k8xExsgzJfvPTINviDDiecjNqWFjoXYGpreIy8p9HLJeQrk/h+pakN8x59Y91b6KnH8aIYz8Fqg7BqpeZOTPnfoOXLg8Ho60g8zUgWRKiAqMBP4fGwxX0uaTmUihJPhHrvFHLXS2pzr7na9T1Tyh9k/EReTnhZoHaUch7R41n1M9EqHquSbRb3ciAd6I0d5WzkdRCvG4vBHJbzuI56O8f2uraGozyIwQBcPD43ZC51vDBcON8kbqK2QqckZuuRq1btjeio52ozpnw+sh4ytOm7prIa0dN5JweL82VIa+LpfW5q9Me5/bOcG0PwDfXAgfran0WfhK9DtZqkrDKF3QOL+6kaH9kswIUbAmrX+YDYQLqaH+kHnsu8hUY1BHbVpOFo0/0udMamIv1cA1Q2bqg0gu30UHWcf5s9mEeqpbuZtzhna02imIfoYrcHF6AxLhPZzvQtHI89n/peIbSi6tf63cl24Fnz9GZoQoUIczc4FwJUN/gsw0HHWSWNJyXqzoGKHIvoeKrYlKHEVTPwoXi5txdfe9aWbDZWjL8RtmFc/tfif9tJokrCXTef8Fq4RlFzv7BiZTsQ0nb+r7sz50odLzQzO1F5kSwiZv6D/jAuFO2q/ITFPQYdkHYCTwENdJgtVAzWVxKlEUDf08XNGX875rURn6K/hNv3Yz9anztCW7Ih5reR8GI/XiJczlbX5Qb3LRr55h/edCOTP1JTIlhA2S2D+5ILhRPtPzDTLTNNCt14WJkLZaT2TtdapjU3EVDJm9hyBBXIMO4HteZasIo5UHVRtYM/OE3ennV0DPA1lf1iOM+p5PZAe/1ciXHWORz2h/4nzmRmg/F5IZIUzUHDB0VN+v7Ivm9KZab7ojajdnjD4Wc52nHiGxfpeKGMWQoX1SJQTOT20vQ3sOHf4CcsUoJmWd/eC3wN4Mw/9bkpbzy0mmszcV0ZSo0T/rK3dyyIwQJrid+QLjfLda3wqTNpP99hG4TbK5zuRDWztNfr4fkt9fGR/FRqVnV+nuA8gdoxiZHsP607WQ+F7G6PsXSevOj5DZpqZg6p/m/ORKhvayWldMpoSwwOhvDhsAV9JuITMtQWlEqFYpWPaTXAdzqZvJ3CjWWr0fgU/8T35tE6E9XUYuGUWHNXgk48vasuz1+PMG/Dmj0UcTeKVwRuqN8Mdmzk9utMpMTSJTQlggid3BOd+NcMtjkpmWQ52VgU715USfc5Z6RtXZPzgf/39LRQcsU6Jv8dFkYhR5Q/sB56O4CX54jtvSqWvhwtdiBPcU59PtwihxOf6clrAGp06cPfhZdWD+OHO4pZeF1TPPE748k8wIYaAOY8ZQewPnfDfKGanIdkMJm8Tcu96bsF49OIgTOujT3IRn1eHhj/Xl/omr0HHZFTG40JzD+XWU+gfn0cfbAvSvizkfuZN2LZkRwgDD8w7e8S6Eof1Yb/5aDYz+ah7AhBHMefTxUailS6yPYiq0qwfINaOYaA7uBT9uLPfrjlLP+ZKmv4OfmpFCWv8q5yM3ymf0hh5e1fYUM/p3OMe7EW5/7yczbUFp/mDWebS8Q+6gjcnZt7ETgJUvOB/FWTmz5xByzygwyq6+K7Tl5Dv6nIn00bZgram/l/OPWw3Nmr4fmRKCBkPshZzT3Um7nMy0DXQK3Q0VHXOkc15DHxvFkJmaxPsn3sJtMOuvkVPhKv2Lkd9dzT6txS9qBQ3nIzfKp3umkxkhaDByWcU53Y3UIdBkpr0wzdfgdrgPnbJs3prNjmjQ0X0fI9rm2lhlOZc69P7+HX2rprZMuWRZ2075QAK8hvGPOxnaj8mMECRqa3TW4W5lTmub5zQcGPEdBakpGOrlB/tMS3Vw+GJjhW9EJamJwOSqUagpLSOJz9mc7B/8Nv1121IwUidz/nEjNbGezAhBog7K4RzuSoaeIzNtjTpAHKOTf3ZU2ecPfvC9iWxM9PTCrsodZNTu2bi4PJHIDsbiAKCcqR/M+MaVcIex9Zm5XW8hU0JQ4MpyKedwd9J+R2baHnUA0kEX3fJG+t9/M4yOnTf0Og6Rj4fULjjkslF0zq++lrrdGDbNnZHIXuT840b5WakpZEoIinxGu49zthsVM9ppZCa2FEztSM43otHChZZdORM3MGi4jfOPKxlapIc6tT1q4i5GL/4P2zFSSTIVW+CHGyv8IqqQuoUbyspUDvQZi/OPG2GwchuZEYKgaOif5RztSoa+YXjBjNJh13Fl+axp++Gq3Lobm0YtQ2d3z4kTeTM1hfWNCyEBPu91N25hDHBbYnCOdiMEY4DMxBaMai7kfCOqJm3tcITHpjYjz5rHvrWei+aqdO8nyJRQL2iQN3FOdqNilT3f4oLqyGjIaznfNFbaPflM6htIzj9H/Xyv7w5Nae04cmFsQWweYn3jQjmj52QyI9QDbdXtf+G+kfoimYol+XRqOuuXRsjQN6iEp47VpOqVWH+OtgdifDpG+lGfL1xVqMvdVL3YggvTjznfuBHizK6sETxSTGsf5RzsShjCr5rTuyeZiiX5jHYX65totaxo6qerg9SpWizquNOcqR+O5HM9kqXvfemCUt7sHpWo40berOvi+TSZEeoBneEkxrkupT1CZmIJrsLjeb9EoJEEdv0QEppKbFQl16yaNW2fnKH14zcUKmxHJDVaperEktKRqIxf3GrFedPfQ6YEv8CRV5Q71q3i3oBxW1nH6Xk+ZegFjLz712Wn7UPVqAv1Br+Q7umG7cW4GEa7gzVu2ddfoO1BVYkdw+PG7YQ+NMT6xpW0LjIl+AUBeJx3rhtpJ5KZ2KGeq6kOzPslHCHhvvDE2eEtg8ql9R9x5YYp9WySio8l6H/XcX5xI3z3YjIj+EGdU8s51q3WmD3/RaZiR9HQT+V8EqpC3gmkrufBPqVezPi5hW8X8mbqTM4v7qS5PoxfYMgZ+jG8Y91IWxvXhqvenGP09yjvl3Ckbk+jOHIUcR3gyg9T6jkmFR876tk/EiPATdvmT43NGurAgRMvKneqW+Uz2p/ITOzIGd2HcT4JU0iAkZwLWzBT6nkgW4cQdT0VHzueUvNI69hCLW/0TiZTgldwSzXIOdWNckYPu7dbHMAo6VrOJ2GqaGoaFR8qw2bX65Fsi1wdQpOhb16XPS6QlzqtCEZyvvsh2uK5ZEbwglx5/KGmj+Tr2TjCh9BBhlRioiqEjnrLzNUjVKFMKj52FNI9vu/Eihn9BjIjeCFnaJ/kHOpG6tlDzjxyNzIVK3IZPcv5JEwVDX0OFR8JObP3fdEneb34cIRJvpkomqkvcT5xp/g+i68LOG9mpTPdKp5vn1QHRfKPdOKwSkTquAKqQmTgNvh6rj5hCheXHio+VtQ7GyMX49kYvikY+pXozM/6EUYkc8lMrFC7GXP+CFNo4Aup+EgpGqnDuPqEq/jezqE//p33SW3l2vVAMkEQBEEQBEEQBEEQBEEQBEEQBEEQBEEQBEEQBEEQBEEQBEEQBCGOjDeX7tbR73w82TeQFIlE7aPO/sWJ8ab9Purqwo509t/2nqTlXJmwnI3JrDMsEonaU4ms/c9Oy/4qdX0hYQ7sn7DsIucskUjUprLseZQC4sv+5sLXI/n9i3WQSCRqb/U7X6FUEE86LFtjHSMSieKg+ykVxJNE1v4F4xSRSBQL2dsmmoN7UTqIH4mscyPvGJFIFAd1Wnd8lNJB/EhYzk2cU0QiUTzUaS2RBCgSieIpSYCMU0QiUTwkCZBxikgkiockATJOEYlE8ZAkQMYpvOy/qnXCotbTRGvwE4mss5mPK6N+ex5nR9T8SmQHetmYVpEkQMYpvOzr6GtCq2Gar0la9iY+roz6B79N3xRajGTfnUk2plUkCZBxCi9JgC2LJMDYIAnQA5IAY4IkwNggCdADkgBjgiTA2CAJ0AOSAGOCJMDYIAnQA5IAY4IkwNggCdADkgBjgiTA2CAJ0AOSAGOCJMDYIAnQA5IAY4IkwNggCdADkgBjgiTA2CAJ0AOSAGOCJMDYIAnQA5IAY4IkwNggCdADkgBjgiTA2CAJ0AOSAGOCJMDYIAnQA5IAY4IkwNggCdADkgBjgiTA2CAJ0AOSAGOCJMDYIAnQA5IAY4IkwNggCdADkgBjgiTA2CAJ0AOSAGOCJMDYIAnQA5IAY4IkwNggCdADkgBjgiTA2CAJ0AOSAGOCJMDYIAnQA5IAY4IkwNggCdADkgBjgiTA2CAJ0AOSAGOCJMDYIAnQA5IAY4IkwNggCdADkgBjgiTA2CAJ0AOSAGOCJMDYIAnQA5IAY4IkwNggCdADkgBjgiTA2CAJ0AOSAGOCJMDYIAnQA5IAY4IkwNggCdADkgBjgkqAWeeVyphWkSTAlkUSoAcSWee3nFOq6Ar6mtCCYAS4lokpL8s5jr4mtBgdln0AG9Mqmpgd/A/6avxI9Nmnck7h1NHvfJ2+JrQgyezg9VxcGW2bYDkfpq8JLcZkc9HOiay9jolrhRKWnRs3PLwTfTV+dMy5dU8461nOOaNkOavHn33rW+hrQgvS0Tf4WTa25bLsW+grQouSsAaybGwrNHgOfSW+dPTbx+BKsIV3EGTZmxJ9i79AHxdaGFzIvs/GmISLYW5i9vb43hK1CRgFvgHJbQkX4+1KWM6i8QuWvo6+Em8SWedwdI4nK51kP5aY7fwPfUxodXC7g7iejrg+Xx5rXOhuS5qL3k+fFFocJME3oU//DH171OAG/78Z8f9h5/wlu9JHBYV6dtDRN/BZdITvqLeAyaz96a6FC19L/yy0EQnzrjcjzl9OWoNnYNR3Uqd1R3zfBLY5E7KL9+nI2scmsoNnQr2TTGdv+idBEARBEARBEARBEARBEARBEARBEARBEARBEARBEARBEARBEARBEARBEARBEITmJ3/u1HcUDP38Qkb7Vc7oPmx43Lj4bpTY5qjY5s3UFMT7qryhZ1ad07sn/ZPQRpTiPEviPCYrzpv+npyhfy+f0V4sZPTh7YLD7i6a+lHDcd4xts0YNs3XFA39GMR3aVmsX8gb2oVD5rHvoo8KLYyKM/o0G+dCpueip8/T300fjS+FWal94ZQfQRt3dFKFDP0BjAqnDS/skq2xWpRhc/LOuUyPns/oD7Mx3i5Dexmd5LL8LE02RW1BFiHORVPTJM5jsMbs+S844Ao4YDPrnGoy9EcLmdTxwwtmyC6yLcKyU6bsUkzrX8Po/nE2plWE0eAmfOf/VpnT/pNMCU3MsNn1+hzijH79GBfPakKMNxVLce5t/zgPmdrH8aMXonFvLXeERz2N5PnNFadNlR1lm5ScOWM3xOkUxHplWey8ags61TXFtCYbpjYhOfPIUpyhFTvEzI+2oE//eqXZfRCZbh+KRs9EZPo/YVi8jfnhvoXOVYDOHDK73kRFCQ1mram/uZDpORtxGeJi5lfoHNvQfq4vmD0JKkpoIMsQ5xzijNgUy2NVj1Sc8Wd7xLlgpj6DRnt7+Y8MXtpalGMsP0fbg4oWIka93Rt5g68/UxmfYIWL6V/yRs9kKlqIkPXmiW9TcUaikjhzDA+P2wkO+gJ+wJLyHxS2MOp4rmjoc5B496LqCCGj3trC7xeiQ7zAxSRUGbqtptLIdKnwKcU5o89rSJwzLRDnhV1dr8VIrAuN8u/MD4hWhr4BnfLilab+XqqeEDA5s/d9uEJfCj+/zMYgWi1VU2vU1AuqnhAQ2+MMH79U5vNGaGk+rX25qeK8dMaM1yE7T0fS+RdT4YYKV6tX8OeC5bOm7UfVFepkdbrnQ0g2P0Pi21Tu70YLI5SH1VQbNeWGqiv4ZCXijP7TlHEuGNo/Gh7np8xj31DM6Cfh6vAkW8lmkppuY+hX5k19f6q+4JEVae2j6AzXIMlsYX3cREKbfFxNvVFTcKj6gksKZupAFWf4sQXirD9eNPWvqSk4VP1oyM/SPoWrQ46rVDMLgd0K/VxuldyjJp+XLh4jb+dYvzaxVqyalZpEP0UYg1aP85AZYZxRoFNWgdaSqX+afopQg5zR8znWhy0ijBL+Sj9FGIOcqR/O+a9VhIHNIvop4aImH+NKoZ6tsRVpBcFZafo5Qg1yaT3L+bBlZGgb1HNq+jlCFeAni/Vfqwhxxp1d+M8Ehwztk2wFWks30s8RaoCLRQTzOMMVbus66OcIVchntNs437WUzotg8jQy7Vls4a2lZ+Q5YG3UWzYkj0bM+wpUxYz+HfpJAoMaOeFCN2onplZUztBPpZ8UHnm1TIUpPCipZza4Gn0fAXmW+/fAlO4+gH6SUIWcqR/M+i4oGfq6Qkabj/9eXPFvAQrt6bf0kwSGyOJshBtnaCH9pHAorfLIaKuZgusSkt42jCz/XDR6J1JR4544u+stOaPnPPx94OUpIcHOoKKEKhTM1Mmc7+qWoRfUncSamSfsTkWNw9X7v/FvN5faAvedemRoK6kYgaFg9IQSZ8SyqNYLl8cZf9+acVaTYNmCfQpJaCsS6u9Wpbs/QUVUoHYVKZr6qbiKr+Js+Jah/ZKKEKqA+Pya9Z1fGdpy/HnKWLv45M3eCSj3upG2wdjwKbWigYoQyoCv1bw/1m9+hOSmdoapEefuCej71wYd51D3F8QPO5Yr1Kvwo0cmJqd7P0Kma6ImtaL8k/KG/gRn04eWkWmhCpSwON95EuL9GBr7iQ97mLCqJuTiu1cj3oFMyM1l9B4yLZQRZJzVnoCe4pyefgC+ezXygbe9QauoGGac0Rh/whXqVnDQRjj7x4Vsal8y6ZnSg/l0z3R0qH9yZbgVfsu2/LnHv4PMCmWsNfX3cn7zIsT7oVxa04a7/O/kPWSmPohY/QwdpK6pV7iDuJRMCjug1stz/vKiooqzWppWx47tgcXZ0C8jk8GDEdjY21yPJUP7hzr7g0zVjXqLW8xoZ7BluVQu3fMlMieUUTD1r3I+86BT1DNjMlc367LH7YPO8ShTjjsZ2t/IlLADhXR9cc4Z2reDjPOqWdP2wYXTd5xxobuPTAXL+gu0PVAx3/fr+bQ2m0wFxpp5J+yOjO/7Fgm/50IyJZRRMFIXcz5zqY1qrTiZCgzYvaisHNdCO9ksG+dWgj7gP84Yra2YH/yu7LDdfHGGo47gCnSrvNn7eTIVKAhCPdtvOWRGKAMjpnsZf7kSrsJ3kZlAodPk2DLdaJWhf5ZMCUQho93D+cqNkGzuJjOBQqfJsWW6EdpJ8HGGYd9LotTIMazdmgtp7XKuTDdCvV6OfCeJFqBwRuqN8I3vh9JowN8jU4GiNuXkynOrfEY3yJQARuJcx8uHkOJcnN39TsTK9zSZYhhxRoX+yhXmSob2DzITOOrhK1umS6nzSsiUQKjNIjhfuVXeSH2FTAUO7Hs6XW6UDO0mMiOAvNE7mfWTS+VNfSqZChzkG99xxndvJjPBUNr0tOzQci/CaOKnZCpwCuax7+fKdCvU7UwyJRC4hTiP85UbqSt3mIdeY3R5JVeuGyHWz8oSyFcpLTRg/ORWy83uvclU4ODW/AquTFcKOs5oOOPZglxqVabneDIVChiK+96bEIn9WjIjEPDJnzhfuRG++ySZCQW0xa9z5bqWmTqQTMWeuuJsaE+RmVDAhfQkrly3CvQYVRhU536yBblR2IdbI+P/jivXjRDIghyq8yrqypmv48Qv+PMqMhUKqmFz5bpV0UzJEkhQb5wx6Ag1zmoHcrZcl1IJlEzVTzGj+18SZWirw04wuJKdxpbtUkVT+wCZij3q2ADOR241lEl9g0yFgppUjXLWl5frWoZ2BZmKNWoVFusfl0I7+SaZCoW645zRg4szjPk+9R0jgj+SmdBQhyhzZbsVEmgvmYo96iwNzkdutTKd+hiZCg2Uc3N5uW6F9vgYmYk1amki5x+3GjK1j5Op0EAdb+LKdqWg4qxmZrMFuJTaDYJMhYZae4iy6jm270dkKvbgtujnjH9cCcnlOXU8KpkKDdQxw5XvRuoljZwbrXyo+Y4zkstz9SxvdAtiZbDlu1BgcUYWnsYV4FbqQGMyFSoI6N+48t0IznqQzMQe+NH/crOMNkhmQqVoaEfz5btT0UzFfgkkYvUI5xs3Qn9ZQmZCpWjqR3Hlu5WaUE2m/IMfewln3K3QoW5fFPL5nSjjCMj/Mj1D37LW1N9M5mJL/typ74A//O/TZuibQ5mFvwOl0b6h22z5LoW2EuslkCrOpRES4xs3Uv1l1SztUDIXCirOKKeuOEMXkTn/wFFLGcOeFNbKAIXaRQJl+H+bRVKnn5HJ2FLvFbckQ19TMKe9n0wGDkYuvlf+bBcSYCQj1WalYKS+yPnFk0KOM5LfZWy5XlRvnAsX1blUhqSuNkVT08hsYKhFz2jMD3FlepfWR2ZjC2I9l/eNN+Uz2n3hLJJPHc+V51mG9nKcD00vZrQLWL94130588jdyGxgqHnDTFneVYrzKf7jnDd66loqM0qGtmFVgG+O1NQa2F1YUY5fGdotZDq2wA93VPjFt7RfkdlAQHLuUA2aL8uHjFSSTMcOXKAWsT7xo4DnAwYdZ9zVdJJp76iEVc+zgnLB8U+uOqd3TzJfF4VMz9lcGX6FkWTsD86BHwI98CoX0Cld6m0e7PmeilUhQ9uaT09zvRt5uwEfXFfhkzqk5uGS6boIJ87ud51nQQKcxxr3KWT4W+vZOVYxZOqHo16BbJWuhDoV1c64ZD62qGc6pWc7jI/8CBeVzWpjBTLvC7UOHbYCHJlChmaR+VgSfJz1zfDp/5B5X4zEWQs0zrmMniXz/lHJChn+L1wBflXPWzi1agPBW8fZ9SPUZRNGKv9N5mOPeosL/wZyPkNJhra6ngOJEJ8fsHZ9Cm35T7IhAu7ugo5zRl/9TD1xrnO2SbkCjbO6bVW3r1xBfjRyW61NI/OuoX3qHuBs+pbRczKZFwjEuq6jBhjdO+xjh+i8mZrO2PIttLtlT5nHvpXMx56iqZ/O+akOLR3rJLhqjJzxw9rzq+DjrJ4H4mq+gSnMl9DJXsRo7lA1onOj0nSXOjY9YCVHY1YFvgn2qERDv3oFYsjFlhMudGpuZ3AvPTL683IY/mjUi0T4ONA4Q57ijH49Bd+pZxVXucKLszpyDgUE9lKkoTK0e8M4t6JdUOcx4yJ1P+u7FhOS77YwN2ltZdotzkNhxzmX0eZzhbeScNUbkoOya7McV2j4KrDnrY0SOsYc+kkCQ2FWat9CRlvL+a6VVIwizmpZGzrF7VwFWkPapnrfTMaJ3Cz9cCSQwN64Ry5Du0leetSmaKQOC3JmRfSKMM45s+ftKPTpyko0v4KamxYnkETO4nzZ7MKt3ePqOFf6GUINWjfOevRxzpn6wSg8yIeXESjY1QlxofSwPKP9lvdpcwp3KS8Gui16DKCXIi0X55Vm90H0E6IFnaKXq1QzCnUNZX1qXCitC8/oD3K+bTaVplmZ+lep6oIHWi7OPqbTBQoysP+T5aNSyDtXxIWh7PT94M+6d94JW+gY86jKgg+GZk3fL1/PeSERCbmn8duaDZvmzhhdBbe4OmAhkKHvURcn0OiOgF+b9mE52uJfotituN1RGxnDn038UqSJ4qwWMSPRBLeIOUChQ5xB1RQCot7zZMMSYh3YZhtCacrbuZyfG62mjHPe7J1QCHbmfv0ytGuoekKAqIflOUP/A+vzRsnQNgxFcCBTnBjZck77PevvRingbfUCpZDWjmMr3QDhKnG/muVOVRMC5l8zT9g9n9Ef5nwftdTDcLVKiaomBEhp0+EminMuHfzGyoGCSl7KVT5aaWvV7HaqkhAS6sB7XJGf5WMQoQz9u1QlIQRWp3s+1BRxzmjzqUrNy/CC0r5eA/wPCF9q1YJavUDVEUIGyecL+ToOpKpf2m317i8p1KbRcUbZt7dMnIuzu9+JK8ZK7oeELkM7i6ohRARG/b7Pb61HuNg9pVYlUTWEkEESSnNxiEBPt1yc1ZkLcNhG5seEpnxG+616cEtVECJieFitFAl2O/1aQvJ7aXW69xNUBSECSnE2tEC3068pxFmtOqMqtBZFU9PgsOegbSFrK3S7msVORQsRo85VVo8+KBZcjALTyPMorYuKFiJkmYqzoS9GHCTOblBXjYVdXa8NU7LbR/OgYsHFKEipNkXFCQ1C4iwIgiAIgiAIgiAIgiAIgiAIgiAIgiAIgiAIgiAIgiAIgiAIgiAIgiAIgiAIgiAIgiAIgiAIgiAIgiAIgiAIguCJceP+P6BAH+VUt04CAAAAAElFTkSuQmCC;" vertex="1" parent="Lco-4d1pUUgPBGDJDoPw-8">
          <mxGeometry x="25" width="90" height="90" as="geometry" />
        </mxCell>
        <mxCell id="Lco-4d1pUUgPBGDJDoPw-6" value="Event Compliance Check" style="text;html=1;strokeColor=none;fillColor=none;align=center;verticalAlign=middle;whiteSpace=wrap;rounded=0;fontSize=20;fontFamily=Architects Daughter;" vertex="1" parent="Lco-4d1pUUgPBGDJDoPw-8">
          <mxGeometry y="90" width="140" height="80" as="geometry" />
        </mxCell>
        <mxCell id="Lco-4d1pUUgPBGDJDoPw-9" value="Bitbucket" style="image;html=1;image=img/lib/atlassian/Bitbucket_Logo.svg;sketch=1;hachureGap=4;jiggle=2;curveFitting=1;fontFamily=Architects Daughter;fontSource=https%3A%2F%2Ffonts.googleapis.com%2Fcss%3Ffamily%3DArchitects%2BDaughter;fontSize=20;" vertex="1" parent="1">
          <mxGeometry x="381.81" y="-20" width="91.5" height="90" as="geometry" />
        </mxCell>
        <mxCell id="Lco-4d1pUUgPBGDJDoPw-10" value="NPM" style="shape=image;verticalLabelPosition=middle;labelBackgroundColor=none;verticalAlign=middle;aspect=fixed;imageAspect=0;image=data:image/png,iVBORw0KGgoAAAANSUhEUgAAAQAAAAEACAYAAABccqhmAAAAGXRFWHRTb2Z0d2FyZQBBZG9iZSBJbWFnZVJlYWR5ccllPAAAAyRpVFh0WE1MOmNvbS5hZG9iZS54bXAAAAAAADw/eHBhY2tldCBiZWdpbj0i77u/IiBpZD0iVzVNME1wQ2VoaUh6cmVTek5UY3prYzlkIj8+IDx4OnhtcG1ldGEgeG1sbnM6eD0iYWRvYmU6bnM6bWV0YS8iIHg6eG1wdGs9IkFkb2JlIFhNUCBDb3JlIDUuMy1jMDExIDY2LjE0NTY2MSwgMjAxMi8wMi8wNi0xNDo1NjoyNyAgICAgICAgIj4gPHJkZjpSREYgeG1sbnM6cmRmPSJodHRwOi8vd3d3LnczLm9yZy8xOTk5LzAyLzIyLXJkZi1zeW50YXgtbnMjIj4gPHJkZjpEZXNjcmlwdGlvbiByZGY6YWJvdXQ9IiIgeG1sbnM6eG1wPSJodHRwOi8vbnMuYWRvYmUuY29tL3hhcC8xLjAvIiB4bWxuczp4bXBNTT0iaHR0cDovL25zLmFkb2JlLmNvbS94YXAvMS4wL21tLyIgeG1sbnM6c3RSZWY9Imh0dHA6Ly9ucy5hZG9iZS5jb20veGFwLzEuMC9zVHlwZS9SZXNvdXJjZVJlZiMiIHhtcDpDcmVhdG9yVG9vbD0iQWRvYmUgUGhvdG9zaG9wIENTNiAoTWFjaW50b3NoKSIgeG1wTU06SW5zdGFuY2VJRD0ieG1wLmlpZDoyM0VDOTlFRjJDNEExMUU3QjlGRENERkEwODdGN0ZCOCIgeG1wTU06RG9jdW1lbnRJRD0ieG1wLmRpZDoyM0VDOTlGMDJDNEExMUU3QjlGRENERkEwODdGN0ZCOCI+IDx4bXBNTTpEZXJpdmVkRnJvbSBzdFJlZjppbnN0YW5jZUlEPSJ4bXAuaWlkOjIzRUM5OUVEMkM0QTExRTdCOUZEQ0RGQTA4N0Y3RkI4IiBzdFJlZjpkb2N1bWVudElEPSJ4bXAuZGlkOjIzRUM5OUVFMkM0QTExRTdCOUZEQ0RGQTA4N0Y3RkI4Ii8+IDwvcmRmOkRlc2NyaXB0aW9uPiA8L3JkZjpSREY+IDwveDp4bXBtZXRhPiA8P3hwYWNrZXQgZW5kPSJyIj8+kz26BwAAMERJREFUeNrsfQecXVW1/tqn3ja9pvfeJ5X0kEooQeAvedIRiCEgghQRVERAH1VBkKcgWICnICqKEAi9IyFAElIgEJKQNn1uO/3897rnhp/wIJnJtHPPXV9+azLJzNw5d5dvr76Z67pwKHz3nTroDBj8VxcJAF8vcEDlf1sudCdiXGZzmc5lApdRXCrwMbNfZ1nZxeUDLu9yeYvL61xqwUdwJQmYaUKPm28Aefen4EQiQMgvFD34+1Z9n0RDBSO4XMxlGZfKL/n6F3fPyKwsy/67kcs7XP7M5WEu9QEeK4XLRC5HZAmymouYlZ1ctnF5M0uO+2lp+R/5TAB44t/M5bzsyX64KOEyLys3cvnf7OtuDdBYlWbH6WwuQ1rx/WkuT3D5S/bvRtpq/oSQp+/7uKwav6Kdm/+LKOByLpcNXFZzGRuAscKN/yGXn7Zy8yPCXE7g8kCWCK/iUkzbjQjAD7iEy9+z6mtnQeayiMvbXP7AZWAOjhNu4ge5/E9WyzlclHO5jstHXL7NRaVtRwTwGQ541rrI/3cbl1u68O2hbXwql/eyv7tHjqwL3KR/5fJfHfiaSCK/4PI+l2Np6xEBZOBmhXX+r7qSy3e66W1Gs797C5drsv4HPwM1pMWd9NqoDT3G5RnwHIqEfCUAme/6Ohtgnc4g3LkMsITLDT4Yb/QR/ChrU6OvoNOcsMxxQEjED4dZf9aJm/8/cSR4EYO7s2YCId8IAH+5ySXudOqDDOJyn8/GvYrLr8FzkJ3R4ZvftsEqKobklOkgJhLgCmJrf/QoLld08RJAR+xmLt8FL8xIyBcCOKD6q/wDY53mB0AHVLVPx38Al/vByyOY32Gv6iCjCtAyfxEY1T1A0NKt/ckfd9M4lIEXOsX8gUW0LfPIB4APgBmBmAXYCQ9zNJflOTAP47is4fIil1ntVwEYiE2NoA3sy7WAI0BqbmrNT6GzcnI3j8Nw8MKnz3IZRtszDwggxp9go8Fgj8WgWOhwLeCSHJuPWVkSeCS7GdoxswII3L6S6uuA6Xrm34fA+T4aB0yqWg9e1IDymIOuAeCuf5lrqfVcc5U6zhl4MniOplzEiVw2gZdD0PuwxzYRh+ZFS0EbPgJY+qBmwPHgpff6CZhLgXkD28FL1SYEkQDwxA/zp3hPZ/DvNINYxxHANwMwP6iWY379TVk7uW2Tm0xyE2A8NB7zNZAaGw6mBRzl4zHAgqxbwSu8mk9bNmAEcAB48mNFoML/dtr/cuO5LAzIHKFn/FLwUpcxhFjQFjNAjJvgFBWBzQUrBL8EWAC1NAfGYWLWT4I5BENp6waMADAPYIfJMnkBavu1gCCeFJhJdw14dQbnZVXkQ0LkJ3+yZjKkxk/MfP4lGNEeM6MbgFmE72e1ghht4YAQQIRv+g/4AfV4Usjkz7aTA44P8Jz1BS8/H51kJxxyDhnLhAFb5i4ANxQCZltf/I5ZOTgGYtYvgPUFZ9M2DgABoNqPJ3+Cf2K176WGZE2AoAPDZFhu+2/wvOZfzQHpNKRHjYH47CMzfoEvYHYOjwH6B+7lshZy1+FLBPCfZsBevvs/MBgUi4cdEpyZZ6phDXhx8xezn/9fArAsEAwDas9dCdrgoSA2N39RowjCGGBtAVYv9qdtnaMEgA8jchJYq7GMJnCYvoApeTqXs7In4d+zdv3nzACWToErCGCVVQBz7ANfGZA9RYMCrF7EgqtruRTS9s4xAnCzvoBdXAt4X2eZiMBhaAED8nxOsdkJphbf9bmx4JufaTrE53BNWWCeL4Cx6gBuFIya/CDrIzmZtngOEcABEkAPz1tcC8DP20gCRdD6rjVBBm6CldnT8L/BKz4CgWsB6eEjoGnxsZwMNKwZ6AfBbQuHpg22Z3vrUD4SIgCfIcKfqoGbAE8l2WcdJ1sJLCutpmn9DBgqvBy8sNlKZlkFgmlB3elng1lVjWnCcitShHMdE7M+knsD4u8IPgEcqBB8m2sBO6w2+QJ6AuWOfxlKMyYBY9uYrp3DiYA1nrQcrPKKHsw08mUMMFyI5deYTBWlJeFjAjjwYBgafE9rky+A+s0dHBWcBH4jxls2N86fPdKYv0AqbNzH7QUH3Px4/7g+rslqRCfScvB5U1A0BbaYDLZzKWpdpWB/mtJWYWhF2lj7uNDrwgdhoB0G2ykGrSvasvnJP4AVl69CfuSM5CYBoHfK5Lt+rQ5gt84XEKK93ToUu2boXStcfYoz1vmWO8F8BaqNQj7aRaDzcc4bjQArINeB15SlmgjAZ8BFiP0CNhsMdpkABcIhC4XStLVbB4ef94VgQQQs+QG3Wl3u1MDl7hh9PZSZMU4EhWDm03BgWzaMmHwP8qwtmZALD4gn/98SQiYycIhy4d60tdtGsCL/2Duj/tvK/7i9Qsucie4P3THadiiwikBzY1kiyAONAPMh8PKTzfnkH8iJGBCmCNdzG2A9dg8++BNX0bY+PCKIcCOrF1f/XXCV290+6vHOJPdWd7jWxEJmEVesIu2t0MgdDMj6B57mMibob7Yzk0AwxXRSdlPiyYxmPN6suxe8LK29rVdXAUq4GvB8imXMgImqm9EGvoQLDNrO7TEL0Ini8AnThXqQhB+7g4U/2T3t09kuYznbJZZBStBBZimuN+TBlVILwLvQBa/ZxdZy9UQAhwYm4mCJ6ingJWB8Vbw1BV5dO14c+TfwusG6h1JVUPvH3ICxnAAwN8B0adN2hjbAMvqwxcUUt4Mift8d6v7drTa+yXa6X2O75BLQRA1kbjiI+RA5OB28hik/4XI7mQBfDsw4w641WJ+Nteqz4eDJFpisg0U7mJSxLsu0eFGGerCFiaHAnVwT/XuCQYjRZu1sInD59i7lRMA1AvYORNVz3VHKSe4U86/Qz+BbPxM6RB+CG3wawIMNG5RiItEyIoDPA8Mnz4PXt67gMF9jNHgXZWzkctpXPReqqOgE/NDwcgMiAgApAZ1PBAL/WAYm9ABNeMktUs9zRgtnO+Otl7hWEAPLRSKQ8iN0OCSrsf4L2tu1OSAEgP3s8Qbc6R30PIOyNtdXXpSB14mlXDQFvMpBkfZol5oG1WCwYjCkf0I51wYmsnPcGvNNqLCizHKKwMgHbQBxVFZrRZOgNF8J4AAbdsaNt+h9xQaQD8EXyntxIeL9AVu5BvBcirSA7iACVPt7gM7tOEN+2K1Uljs1zmXuWGMrFFmoDWAOQRfe+NxdQLP3QvDChningpRPBICs9w/o/NRbvNUHu+FeD1/S5edNjUHK8TQBIoGuBSYSqVkicDGHwOmtHOdMhmvcUfonELMKMzkEeRE6xGjXneD5spbmCwHgXfdddXUTavnfzxLBaQf+E3MDNBcdgkImvqiQU7DbgETQCzQhAYJ0i9tfPdGZBD93h+u1EMZkIsiTZCL0Yz3O5dGsKRtYAjgGvNBIV6M66x94jctU/A88+bfxtbXF6JBW4oR2mgYF/MTHrMJ9IElXu0OUrzuTrN/CYC0JSoYI1I648cH/+Bp40QJsxFIURAK4qpufeRqX17k8yBfdAFQP1mpCxuaUyBTwCRHY0BPSwgeghi52hivHO1PMP0N/jTHAYiM3D8qPcV9hIxa81encIBHAMdkN6AdgA8gNEQGurrVBxSxBWWCORJqAL0gAF1Yx1wh6ctNgA0RCq5yRyjecScY/oI8RBtsuBh2kTA5BoIHXuf06e2BNDwIB+O2+PQwC/IRrAZteScGSRldwqopCIIj8qHFJF/ALGZSByQrBFJ53i9VvOmPEU93J5nPQQ4tmcgj0TJ5BwGcLTdZXuDwMPrvWrC0EMAq8jrO+W2CSwAZEROFvf3zuw5OffnGbVRYLOUWFYWCocxIP+GKOZP6xGgxuFOvSY26ZeoYzTrzIHWushXKjAEynGMxsVmGgcRJ4KfA/Bp/cXdEWAvg6+LWHIF4sqojSy5v2FK667Rn3itue0T/+uM6sLotCJCyD4xAL+AHoAkSfTS/QmQSWfJ/bU13mTILL3LH6JigyY8wATgZBTybC/IEfghfVOiOXCGC6n0eVb3GXn/ymHJHkv77+kfrtW5+BXz7wb8NIm1aPihgoikjagI80AiXThwD9ALbya7dX6ERnIvzUHaHXsohZDGnAHAIWbI0Ao1r3gxfVmuZ3AsBuu+N8f8LwHR6SRKguiwmNuiXf8vBa8dzrnnAeeWKjrgiCW1HqNQwmIvCPRoDlx9VcI0gAk29wBklL7KnuLe4IsxkUqxB0NwR20DWCaVkSQP/AQL8SwFjIkSukDmzuCD/xqyti4tb9LcqP7n9NuuTmNcYbb++0ygtDUFygkn/ATyYcYOmow02DtLgXJOVad6B8gjvZ+Y072HBBtFAj8Igg8P4BrC/AMLvqNwLIuVZbB4pXSmIqFBWGxOc37lZW3baGXf+bV4xPP222K0vCbiiUB4GoHJovBIYOMb14kxtWLnGHyyc5k6z/hQE6n0vHqzoM9IxhCf11XD6ELrrWrLUEkNOtkQR+2leWRJioSOIfnt2srLhxtfurh94yzbTFiSCa9Q8QEfgJ2IegGjThTSgIne+MlE91J1qrobfOTQYHQ4dyJpkosKYBHrh4rRnmD0z2AwEMzfURxQ0ekkXoURaD+rQh3fqXdfKqG5+yHluzxYjKkl1WHMmYBQT/aAQYMcA+BJWgC0+7pfJpzjjhHGe8+TpUmBHmJRMFvDUZ5g+8yeV3GeWoGwkgMFdIo6MwFpKhojTCNnzaoF59z8vCpbes0f69bpdRWhCC4sLQ53wJBH8A+xDEwJD/BhWZYqOVzgRzIxQbBZncAiPoEQOsvcH6glM7+oVbW8PcM1Cni+uZBWV8w9sOSKvf3SW+sXmvuWzm4PTyRSOlAf1K5ZaUDppu0c7zkUagZJOJdGDyQ26V+Kxbah/P9qfPZx9L/aBZskFiyUxvIgiicYCH8B+4jASvOrZLNYBwIBdVhgj4yBaHmS0Jyv1rNilnXfcv995H3tZt3bK4luBKskD+AZ8RgZohAl1IcSK4y+0dOsad7F7jjtF3Q9QsBA2iwU4muhK8/IEuJYDAA/0DVaVRsck0lVseeVu68Kanradf/FAvDMlOaUmE6gt8RgKIKNjQB9KswRWVW9x+mc5Ed7lD9QQomWSiSKZTRCCBGYR3EAF0uEbgQmFYgZLCkPjOjvrQJXe9IF9y0xr9rXW7jLKCsFMQC1Fasc/gXXFmZ6oOt4OiXuoOk49zp1q/h0FaCiSn6LOGpYHTCC7gchkRQGeYBdwuKC0IQ0GBKq5+d2fo4tufhZvve1VvqE86vSoLIKRK5CT0mUbg3WVgQ19IC1vcMPYhkJe7E63HoK8eAtdGjUANXh+CG8FrwU8E0BnagCQIUFkcYY4sKr95cmPorGsft373t3dNx7CdqrJoxiwg+M80KAWTlYEuvuUWKGc5Y6QTnSnm09A7rYCTKT8OWMPS+8C7t4AIoNP8A6IAVWUxti+hKzf88Q3hgpuetp577SOzQJXdkoIQiAKlFfsNuLArwMQQofg8FIfOdkbLZ7s1+htQaRWC4XpVh4EA1g9cTQTQ2ScL3+HFUQXKSiLiuu31ykV3PAdX/uJZY9PW/WZ5cQSiUZlIwHf+gQOhQx1CYEmPupWhk5wa9/vuaKMFFEwtdgOiw10E2T6ZRABdoGKWFYYgHFbkx9fuVFfdugZuvu81vbEuZWH/gXBIyiQbEfwFzCrsDWm+4G35524/9QR3ivk6VOuFwakvuIIIoAv9A4rEzYLSCF8+rnz34+vlVTc95T70z/WGa7tudXks40gk+E0jYBDmH/tBCta7EfVkZwI8Cn3NKBiZjkU5TgLYjXgGEUAXE0FYEqGqLCp80piUr/nda/L5P12tr3n5I6MgJENpEbUl86cmxzL+AR0gdJ4zmv3WHWBF+b8C0K34TCKAbjALMiGosAIVZTH29sd16uV3PS/8+FcvpbdtqzMrisNuNCLTQPlw3ko5CYTBlq5wh8NDbn8rwjWBHDcHvsGlDxFA96kEUF4UZnJIlh55bVvonJ89ad9072t6U2PaQnMBy47JP+Ank8C7w0DhJHC+Oxoegv5mDHRXzF0KwJZXpxMB+MA/0KM0ypKOG7pn9UblopvXWA/9Y4MeFgWrsjQKoiSQWeAjEigCC0JgSlc7w+23oEov4OZADt9htJgIwA8Li+/wqCph2bHwQV1L6JrfvSau+ulq86U3PtaLI4qDZcdUW+AXEmBQzDWBRhBClzgjoA4iVlHu5glgj8FRRAA+AfoH+IaH0tKo9PKWfeFL73xBuOauF7WPtzeYqA1EwwoNkk98AhVgwFqIqTe4Q03U0XL0LkN0ONUQAfjLNQCiV3YMoirJf3r5A/Wcnz7p3vHHN7VUQrMrSyMgimQWdDdwM/QAnf3e7SX9JXOFmZHRDnIQE4gA/ErPfKNXl8bEpGUrdz72rrLyZ0/Zf31qsxlVuLlQcoAIiAm6SwuQMx8d+RZ3oFsPUTNHTYGxRAC+1ghciIVlqCyNCVv2tcjfv+dl8bu3rjFeXbvDKI2pTmGBSoPUjSRQzjf9e25M+S30swVm52JUgHwAubLcSmIqKyoMC8+s/1S56BfPCtfe/ZKxa1ezXYX+gYhCZkE3IOO3AUN4yOnBtrlFNt5SlGPTECICyCFtQBYZlh0D5g888PzW0Mobn7J+8/DbupE0bCw7ljBsSEPVpVoAdhvaBmHpT9DLYiywnYWIAPxEBAoSQWkE6lK6evOf10rn3PCE/dgzmy1VEJzy4nCmvoA0gq7bGFGwxAfdnsIOt8jgGgERAKHzT54DacWVZVFxy94W5ap7XmZX3P6c9c76PTpea1aYvdaM0PlzgQ7Aj92QtNqtwLtnXUYEQOiqxYcaQSnf7LGoKj7z3i55xU1PCdfd/bK285NGo6IkDGG69rwL5gH7DZrCX6HaaQbVkXM5P5AIIBfNAgBJ9NqSgSrKf3hus/LtW9c49z+yLm2kTBuvPZclCht2JvD24i1uVHmHlZphsIgACF0PTCuOSCJUlEaF/Wkj9NM/vaWuuP5J/fFnt+phWXLKSiLkG+gkYIlwHcjuM06pDQG8oZgIIMf8A7GQlCGCTXubwlf++iXxytuf1Tdu3mditWEsQmnFHQ0ccxEcaT0UKikWtsIBu2tAoinOPbMAF2VZYYhZjiv9a+0O8dWNu43jZw5Jn3LUKKlvnxK5rjkNtmWTs7CDUAwmbHALtQ+cqDCONUhapsEYaQCEbiYCkW/wqtIoswRBve+p90Mr//sp+2+rNxlFIdmNRVXqPdBBwKvI9oNY8DELR8kHQPAZEbgQUSWoLo+yXS2p0PfvfVn82T2vpG3DtotiRAIdZX5hjcCHbmGK064TpLQsIoAAaQRFERViBap4/5pN6g9++bxm6JZdUhimcGEHAOsBtrnRpA6CEyTDigggYNpASBKhR1WB+MTbO0JX3f6cZmimXcA1AQoVtg+46XeAEjNAEAQiAIKf1VWBf6gojYiPr90RuvHeV3QZwFHpPsN2IwUszMAVXCIAgu9JgDGoLo+Jj776kfrQvzY6ZQVhYDTb7dgoLtj8YwokEMkHQMgFYJWhEpbFXzy6Dl57e4dRVhimQWkHAaSYCLVMzVw3TgRAyAGfAEBhRIG0aUl3P7rOjsd1R1XIFGjPZpEClgtIBBBwYASgpCgMr2zZqzzy9CajKKoAUH4QgQggfyAJDC8zFR9asxl2fNpkFlHLMQIRQJ6ZAmEFdjYklMee/8BWBMElLYBABJBXJOBCJKwIT765XeBagBtSqQyEQASQV4iGJNi2p1l47q0dRlimykECEUBeQRQYMEWUXly3gyXiKTMUIi2ACICQV76AkpgK6z+ud7fsaHSjKl1bTgRAyLsJ1xwn9PaG3ZZtOS75Amk9EPIMuOnf3rYfDGoakvcgIzAffQGSALub0pGQKruyLNKAEAEQ8gmYDtzYkEx/mDKMSFguohEhAiDk06SLAjSlDCGRNkVFIiuQCICQV8AtrzuuqrmOKpIPgAiAkH/IbHva/HQY0BDkOQkQiAAIBAIRAIFAIAIgEAhEAAQCgQiAQCAQARAIBCIAAoFABEAgEIgACAQCEQCBQCACIBAIRAAEAoEIgEAgEAEQCAQiAAKBQARAIBCIAAgEAhEAgUAgAiAQCEQABAKBCIBAIBABEAgEIgACgUAEQCAQiAAIBAIRAIFAIAIgEAhEAAQCgQiAQCAQARAIBCIAAoFABEAgEIgACAQCEQCBQCACIBAIRAAEAoEIgEAgAiAQCEQABAKBCIBAIBABEAgEIgACgUAEQCAQiAAIBAIRAIFAIAIgEAhEAAQCgQiAQCAQARAIBCIAAoFABEAgEIgACAQCEQCBQCACIPgCLg0BEQANQR4TgOtyoXEgAiDkHSy+80sU2YhIgmUTCxABEPILumlD7/KYVBRVRdN2aECIAAj5BMOwoao8xgqjimVbRABEAIS8gsPV/pAquYMrCpJA/kAiAEKegW95WRKEmtE9i2zXZYxGhAiAkE/7n//h237EgHKjMqKmdYfMACIAQl4hntJhUK9iZeKIaqmxKU1qABEAIZ9gmQ4oEZnNq+ljRRXJNsgZSARAyB8wfuQ3Nqdh6pjeoaG9S+yUZgEpAUQAhHzSAvipX1ISZkum9Hd13eIMQBRABEDIG2D8T7dsOGbWYHF4zyKrMaERBxABEPIJ8aQBFZUxefmCEWCbjmnZlBZABJCLRxlWt9Dp1XZfAJfGuA7HzRuqHDmmp1nfknYFgQaSCCDXVjFjAuW0HR5M0wY1LAvnfm2CVKhIekvKIFOACCB3Tn9BFKVoeWEx1bcePhpa0jB+VA/l4pMmMlMzLZNMASKAXNH+8bQSJVGgJduOcXQ4CcQ1+PpRI5X/N2uwsbc2bjtkVREB5AIFMEEAOaIAaQDtsKIYVglaYDguu+ysGerRk/pptQ0p22FAJEAE4G8VgIkMQoURm39u07S2hwQYtCR0EGRBvP7b80JH1fTV9uyP27rtZL5GIALwJRzHBVkWUmpIiuPnhHYsCoFBEzcFFFUSf3Lh3NApc4ZqzU1pO66RY5AIwKewueoaLS1UCyqKQ5Zu0sy2d2Hwnd7MNQFJFsWrV8wK/fD0aU5pWDX21qfctGFnvk4gAvANLCSAikKlsLpIsjSDVIAOIoF4Uoe4YYnfOHas/OvLF7Hls4cYYNnWvqZUpqkIOQeIAHxiA2AskEFxZVFakiXLJWdgh/kEsGqwlm/4Xr2K5GtWzlLuvnQhHDm6lxFv0eyGFi1DAsQDRADdvFK5FsBt1IohPaOhgrDoUGlrB5KAl2TZHNehLq6xCWN6Sjd/50jpmrNmOAPKYsbeuqST5BoYgQige/0Apg2FPUrcoqqitG3RguwMIsCIS11jGgzXFU48aqR834+Oli47qUYvkiVzb0PSNWzyDxABdJcVwM0ANaqKvUf3U6y06ZDLuvOIwOBku2d/HCIxVfjW8omhOy5ZAMtnDTXNtGXvb0q5Fp8LGn4igK4FV1Nt24Uew3vZheWFhslNAkInLh6BQTJlwL7GFBs0sEy+7ttzlTu+M9+eOaxKj7doVlNSp9wBIoCuhZHUoKhXWahqaA/bTOmUFNQ1vJvxD9Q2p2DaxD7Krd9dqPzw9Gl2n+KYsbc+YSd1K6M2EBUQAXQJLG7/D5g8RA4XRGyHbr3pMrPA4dpXfVMaLAbCyUePVu+9agm76PgJRoEkGLWNSSdjFtBQEQF0Nsy0CZVDe4q9R/dxtHia1NCuHn/Thr31SSgsCcsXnDo5/MvvLmTHTx6gpZO6WdeigZ3xD9Cc5BIBfJxTKin2uGcgDps1UghHVMMgX0C3aASJpAH7OBEMHVIuX3/RPPXGb81xjxhSpTU2pe3mlAHkJcwdAtiea29MT2hQNqhaGTR1qGumDPIFdCOamjVo0Qxx/uxBym2XLlCuPnWKOaA0qu2vTzroHyBtwP8E8GZOqqL85B82b5RQ1rtU11Lkke4+bYBxs8CBWq4N2AyEU5aNVe+8bKF0zpJRpuKCua/B8w8Q/EsAm3OTAEyIVRbLY5bUyMxyTMuk5KDuJgK8lbi2Mc1KyqPSpWdNU+/53mI4buoAQ+NaGjYjQZct0bQ/NYDaXHyD6eYU9K0ZKA6fNcLUmlMUEvCBbwDTiuMJA/Y3pWH4sEr5ulVz1Bu/NcuZ2L/c4FqC1aJ51ZxEBP4hgN1c3srFN+hy1ZKf/MK4ZVPCfcf0c9MtKZp1nxABbvD6xhSkDIstmDVY/tWVi8UfnjbN6V0UNvfWJ50UlR37hgAQ/8zNlQZgpA1gksgmnXQEFJcX6umWNHmg/eQfsJxMtMASmHja8WOVOy9bKJy5YLgpOo6xpzEJJnUj8gUBPMKlMWdtz6QGBT1KxOmnz3ViRZE0RgmIBHy0EPlc6LqVIYLy8gLxqhWz5N9euYQdO6m/kU4aVn1cc4kEupcA9nP5fS7rnOgPKB/cIzz9tLksElU1/DfBf0ikDKhtTgvDh1bK118wR77p/DnuiOpCbV99womnTa8LNA1TlxMA4h4uWi6/4VRTEqpH9g7NWbGIlVQXG/zf1DvEh/4B9N1gWnHCsNji2YPle65eqnxv+WS9IqLoGDbUbcom7A4C2MDlwVx/00gCpf0r1TnnLhT7j+uvpZsSJvoJyCTwH7C+YE9dAqSwLJ51wvjwr65YLJ45f4QmWLa5v4n8A11NAIhbuOR81810UwoiZQXizLMXqFNPmu6EI6qZqG+xbcsh/dKH/oGUV3aMbcmkq86bGf75hfPc+aN6pZMJw2xMekopTVvbIR3Gz7zP5WYuV+a2ngmg84UjqbIwfOE4tcfw3ubm5zeYOzd8YicbU4oaVUFUJLpoxF9TBi1xDVKSyCaO762MGV7lPPfGduv+f23UN+5oEJWQKBVGFJqyTtYAEDdw2ZL7tibLtBNPNiYgWlUkTz1ltjr77PkwsGagDrZtppuTLt0x4MM542p/PdfgNNsRlh45VLnz8kXixSdOsEpUWd/T4JkFpA50ngaASHA5m8tzXJQgLCoME1qiyLCAaOaQHrD3/V3Glhc2aru3fKoYjiOq0RAwvDKb+MA3c5apL2jgplyBIp138kTpyMn97AdWv6//49WPhMa4JpcVhUESBCAvb8cTAOJVLpdx+UVAVhQ4jgM6VzFRL6oa2VvhZODs3bDD3vziRnvP1j2CqEqSElbI6eSfKcsglTYhmTKhV59i8epzZwhza/paD65+X3thw6eKpIhCUUQFzgNkGnQwASBu5zKEywWBMjT5QtFa0iDIotBn0iChemQfa9c7H9sfvrrF3bttjygoEgtFQ4xOFn+RQXOLDpIksBmT+8lTx/WWVr/8ofHgU5uEtR/VSgVRhRVEFCCTrmMJAHEhlwIuZwRtcBzTzoQMRUWSBs0cLvYY2Qe2v7HV+PD1rax+d72kREOCrMq0inxEAugfqG1MgspJetmC4crUMT2dh9dsNv/3mc3C7rqEUFIQEkKKSNpAFh3VEuxM8MKDgbQ1kQiSjUnG+KIaubRGXXDRMVLN0ZOMaEE4k0iE15JRDoGPFnXGP2DDPj5nkQJVvOjUqcp9Vy1lp8wdZtmGbdY2pT9T9ogAOg6XclnJJR7UwXJMCxL1cZCiijB22ZTQ3BWLxVFzR5uyJOifEQHBP3DRP2DBnvoE9O9XIv5gxUzltgvnurNG9NDrGpKZtuUBTSu2uoMAEHdzGcHl78FVM/npkjIypkGkLCZOOnmGPH/VUmHEzBGGwMBKN6ccsjP9ZRYgGls0aIjrMGNyf+WOyxdJ15x5hDm4okDbV5ewU1xbCJgCt727CADxKZfjuSzg8naQF5eZNiDdkmaFvcrkySfPVOeet8gZMGGAYacNE7sRZ1qSk2ngH4WAG/7oH9AcR1x+zJjwnZwIVh07xoiKzMAsQz1DBIGYr12t/UapEx/iGS4TuZzD5SdcqoN4vOCi0hOeTVk+uFqpGFhl796ww972+tb0jvc+kV2RSaFYmOxNH/kHsOx4L7aLKw5LF585XVg4bZDzwJMbtSfe3C4kNUMuiYVznQc2dacG8EVgBeFQLjdBwNNoMHRo6JbYa9wAZcZZ89VZZ86zew7qoestaUvD/gNUx+orUw7rC/Y3pYShg8ula8+fo9564Vx36qBKrbE5ZTUnde/7cvPtve8HDeA/gY7By7ncy+VWLkuDuqgcy4ZUcxIEURD6Txum9hzZ1/7o9S3WR//+wK7bWS9KqizJqkSmgU/mC8uOG5o1TBRic6b1V2tG9HD++fxW48E1m+2te5ul4sKQGJLFXHtrrW7i29U3A2H9wNFc5nJ5L+gLK9WYAFdg4rAF49T5FxwtT1o2xYgWR3UtrrnYsZhIwDeWXCYvAK89Z7IgnLJsXOieq48SVx491ggxZu1vTLkGlh3nxtt5B9rQv7O7rgZ7gUsNl1UQ4LAhwjYtSDUlgEmCMGLR+PCRKxdL45ZMMBRFMjhB2NSq3GdmHPoHGhJQXBKRvnPG1PAvL57vLp3Y10wlDKuem3FeApGvqeDdtnyz1J17g8td4PUavILLxUG1kFEjwBwB27RZqCgqjjl2stivZqC17fWt1rY3tlqpxqSiFoaZJIlUuOIDoKOwJaGDKDIYMbxKvmlopTN/7W579d9fN6w9CdmJoorn28dvU9s+P1wOir0Gv8tlLJfVQV5YuLkzocPmJMSqi6WaE6cpc89dyIbNGG64pm2jpoA+BHIU+sMswHyOxuY0tGimsHj6APlH3z+2tmz04GuNxpbtPjXf0MT+d64RwAFgu7ElXBZCG8IYubeyvL+wKzHmEJQOrFSOOGOeMu+8Rc7AmkG6Y1hWujn9ue8ldLP2ZjnQVN8MTkW5qh0x5w4xER/ILAujWn7rjPWrtprUfrwefE3WP3BJ0P0DqBFo2OGmKckqh/WUkQhmnjHP7TWsp6bF0xZ+DZ2JRAQ+mCuchD375fjkaSUNJ5/qii3Nl3N2GM2/9LhPHnEHl/vbbO741RfD5TYug7jcGfQTxiOCNBiawXpNGCjPWbFYnnXaPLuqb4XB/9/WMSZNJOAHxkYHATQdfRxYhUUgJOJbQRCO4V+Zk9VguxO/5NIcFAI4ALyPEHsNjOPybODXFz/t0T9g247Yf+pgZfaKRdL0/5ppl1aXmKmGpG2kiQi62zEgxuNgx2Kwf9V3AEQRmJYx117kMh68Yrjmbngy7Mx10+H8oJAjQ485A/O5fJ3Lx0HXCLzQYYqvNkEYPHe0Mm/lEnHy16aasYKInqpPOBQ67F6ILS2QqpkMqXE1IDU0gCtmEoUwqoXFcIPBa5TTVXGCJJeLDveHhRwb+4ezA/w9Li3BPm3AyyqsT4AYkoWRS2tC8y44Shy3tMYIhxQ93ZR0TN2k9mTdpQm0NEPtuedDavQYkOrr/zOpqy67Icdw+UcXPM2ZXNbnCwEg8Irv/+YyjMvvgr/YACy+0ZN1cQiXxKTxx09VZ5+3iA2fPcrgCoKV5ESQqTokdO20pNNglRRBfMES77C3/o9WtpHLcVxO5PJBJz3GCvDyaCCfCOAA9mbZbzKX5wO/4AQGZlqHVHOKFVaXKFO+MSs0//wl7uDJgw2wbENrSbvY1JQ0gi6CIIC8rw4S02aCMWAQSI2fmQJfxKNcRoHny6rroN+OvrEZXH7d7rcRgKnAvOd5XE6FNjRCyFl1wHUBnYHYkKSkX4U87bQ56qxvLmD9xvTVzIRupVpSme7G5CzsArhORupOOwusiioQk8mv+k7MF7gza75eBe3zY93HBcOPr3YIjwVoOh4AL2x4deD9A1lgMpGhmax6ZG95xjcXqHPPXej0GdFbs1K6iaXJBziD0ImKAN/0iSnjID5zNkj79x6qwAsjBHipznDwGuZgqfxH4DkQDwb8nluyfgW8j2N/Rz2/FLD5QGP4+qxv4A7wOhMF+xDi9j9ecy5KotB7wgClYkgPe9e6j6wPXt1i1H6yX2aSyJSQAkykS006RyljoHzaAM1LjwVlz26IvPUG2CWlh7qEwACvYc4z2UN4dFb6cFGzhCBlNzp21VqX/ZkOhxTQacGWSF/L+gfw4pIjgr0GWab9GJoFgiSIA2eNFPvUDHS2v/GBsfWVzdC4p0EWVVlAIqBio46ww77wH6YJZlUVNB53AsReeQEcXQdXVVt7EwkeWu9BN5XHCwGfLCyMmJ5Vmz7Nh9XpWFwjaEygk0oYMm+0cuT5S6SaYyfb4UgIW5hnQofeKibb4HAULviyjrucgOX9+0HvPxBqz1kFDJ2xdm7kagh5MnHoOBmVNQ9S+aCWYuiQmwZMDMviqKNq5AUXLhXGLp5gK5KkpxoTjk0XaB4O0Ibf+ZXDzjWBxJRp4MoylhISAfhw8tBBiCmbD+fLm7Z173ajcGlMGr9ssnzkqqOEkXNHm2Dblp3SMLUdiAlar2DBQXruM8sENxSG9IjRIDa3ZEKFRAD+AyZlYEoxFnCsD/y7ze5tI+WFDgt7lcqTls9S5p+3SOo1ut8ew3LirkOJRB0y1FwDsAsKoHnJ0ZwqbK9OwOd5GUIezxcWcGATktOg4xI0fG8aGIk0Vh6yfhMGgDxxyJ2a5fSSXPcx2r6twr5Dja9Uux/SI0dB7YoLQEgkfH8lsUBzCn8Er235jflCAnjiO0kN6tKmtNNmcZHBMvCKrdbScjgo9hx6Rwkg8o2fmDEbjP4DuSnQ5GtTgAjAQyN4fQkxU+vRvOABLhrX/F9NscwikBk8y8+qSfzTRRDkjkztw45Wja2mgStKsPfiK7hJUAhCPE4EkCPYBl7xBjZ5eD/obzYqQEMDJ4E1SQaYxZ7NZH8avIwzvO59Jy2Jz+HD1mpZYrwZzF69IT5vATDb9q0pQATw5cA2T5iZdS54hReBBJ/83QpXBd7QGOzja7RA8Nzc4GWiYXfZkeAVseyhJdEGAuBwBRGYrkNi8jRP3fKpM5AI4CBzCF6uNpoFvwzg+8Nug/twASAJPJng6gDf9uHPr9MEeEUs47I+kuY8Xg+YivtRm8wsTgAONwH0Pv24RtDiSxIgAjg0sLDowuxp+M8AvS+MfGSq0kJ8XW63AN7RGajsS7MCarM+Eixi+R/wejbmG/DGna1t2lzpFFjFJbD30ivBrKrOFA4RAeQu0DF2bFaC4B/AkNanB1SdEr4SNhoM6rkWIH31QYU9GL6V9RH8Nc/mv+1zjhEBfvLbxaXghCMgJhO+iwgQAbQdqAVgWjFeZtKUw+/jc/fHYbFgI9/867kW8B++gIPZwidk/STP5Mm8H9775Go/Mw1oOu7EjBbADIMIICC4NesfQD+BnYPP/9Tn1ilkQoHwLieAWv5uoq0zV7HtFda1H8nlpQDPNZpLh93/X0iloHnhDEhOmppJFPKTL4AIoH2oBy9SMBFyry3Z/+ljH+HrEk0A9AUIrE0VAtiWejZ4IdQg5hBgc8/G9ryA1GSCWVkFTjTGjwubCCBgwBtZsS0ZZtRtyYHnffLLCADV/hhfEZs4AaQcyBYKtQkH+t9hs8ogtW9/oL0vIDY3Q3zuAtCHDM04B4kAggnMqcf6gh/63D/w3MEWhOECtDgsoxEcRpkQ+hSxWSVGDK7KcT8JYl2H+Dkw/VpVoXn+4ky/ACKA4AK9PD8Br77gHh8+H3ry7/2qL6IfQONb+M9xBnstzyxoxzhg/ztsc4Vt3HM1dHhXR72QKyvghEIZn8BXdBAmAggQarP+Acyvf9VHz/WrrO/iK4/vSDYi0Oh4eQHtBCYT4UUuQ7j8Fg5Lqeg2vAGHceHmV242LQVWeSWYPXt5IUEfOAOJADofWGGHPdxPgu5vW74PWtFLHncobnzLPUj3i7YD+zR+E7yEqodyZO4ugw4cAiwK0oYPgZa5CzJagB+6BhEBdB3+kl386B/Qu+kZrs+aAIcEJgO9pTFIOp8VCXUU0En6DfB6Nb7g4/nC+/06NrQpCCDVNWVaiBt9+4Gg60QAeYZ01j+A6vADXfy7/wxeq/RWw4JO7ST+Gpe5XBaC1/rab6r/ZZ3z0i5e8+SlBfsgHYAIoHuAZbZ4k9EsLq93we/7hMsqny6ONeDlUSyHNubadxIw3n8WdFIf/kw0IBqF1PiJmRZiRAD5jZfBu7PgG1kbuTOA+f54QYrf2579KWsiYQ5Bd5Uf4xxgPkenJTMxywK7qBgS06b7Ii2YCMAfQKfYCC7XQof63TIxbLwc5Z0cGQdMkUMn5YEr3rqyFwNqZXjV77ud+lvQ82/bICbiFAUgfA4YLvsRlwHgOaAS7Xy9n4MXfcjFZh7oK0GH5egOGotDARN9poBX25BXIALwH1ANvQi8RKKV2cXZ2uRxzDHFS1CwXPfi7EbKZezPjgUWXf0AWtmTrw2ozdr7WNC0Nx8Xm0T7zbfAk/vurOAGmJXd2KgeV3ApBq9ZCTqtMO/+pSxZ7A/gWGD+wnVcbgKv3uJMLtO4lBzm6+F4Yaej30Ce3CRNBJDb+BDa0I8uwMDA+Z+zUpolgalZPwc6EMu5fNG1jmkM2IoHL4HBuyKf4PImdJaXP8fw/wUYADaMWBQze6IuAAAAAElFTkSuQmCC;fontFamily=Architects Daughter;fontSource=https%3A%2F%2Ffonts.googleapis.com%2Fcss%3Ffamily%3DArchitects%2BDaughter;fontSize=29;fontStyle=1;labelPosition=center;align=center;fontColor=#FFFFFF;" vertex="1" parent="1">
          <mxGeometry x="255" y="624" width="106" height="106" as="geometry" />
        </mxCell>
      </root>
    </mxGraphModel>
  </diagram>
  <diagram id="XN_zq7XQBOaBdhUuFeFM" name="ECS NPM AWS API">
    <mxGraphModel grid="1" page="1" gridSize="10" guides="1" tooltips="1" connect="1" arrows="1" fold="1" pageScale="1" pageWidth="850" pageHeight="1100" math="0" shadow="0">
      <root>
        <mxCell id="0" />
        <mxCell id="1" parent="0" />
        <mxCell id="vjv7hDI9gNEvu8DfmbGU-1" value="NPM" style="shape=image;verticalLabelPosition=middle;labelBackgroundColor=none;verticalAlign=middle;aspect=fixed;imageAspect=0;image=data:image/png,iVBORw0KGgoAAAANSUhEUgAAAQAAAAEACAYAAABccqhmAAAAGXRFWHRTb2Z0d2FyZQBBZG9iZSBJbWFnZVJlYWR5ccllPAAAAyRpVFh0WE1MOmNvbS5hZG9iZS54bXAAAAAAADw/eHBhY2tldCBiZWdpbj0i77u/IiBpZD0iVzVNME1wQ2VoaUh6cmVTek5UY3prYzlkIj8+IDx4OnhtcG1ldGEgeG1sbnM6eD0iYWRvYmU6bnM6bWV0YS8iIHg6eG1wdGs9IkFkb2JlIFhNUCBDb3JlIDUuMy1jMDExIDY2LjE0NTY2MSwgMjAxMi8wMi8wNi0xNDo1NjoyNyAgICAgICAgIj4gPHJkZjpSREYgeG1sbnM6cmRmPSJodHRwOi8vd3d3LnczLm9yZy8xOTk5LzAyLzIyLXJkZi1zeW50YXgtbnMjIj4gPHJkZjpEZXNjcmlwdGlvbiByZGY6YWJvdXQ9IiIgeG1sbnM6eG1wPSJodHRwOi8vbnMuYWRvYmUuY29tL3hhcC8xLjAvIiB4bWxuczp4bXBNTT0iaHR0cDovL25zLmFkb2JlLmNvbS94YXAvMS4wL21tLyIgeG1sbnM6c3RSZWY9Imh0dHA6Ly9ucy5hZG9iZS5jb20veGFwLzEuMC9zVHlwZS9SZXNvdXJjZVJlZiMiIHhtcDpDcmVhdG9yVG9vbD0iQWRvYmUgUGhvdG9zaG9wIENTNiAoTWFjaW50b3NoKSIgeG1wTU06SW5zdGFuY2VJRD0ieG1wLmlpZDoyM0VDOTlFRjJDNEExMUU3QjlGRENERkEwODdGN0ZCOCIgeG1wTU06RG9jdW1lbnRJRD0ieG1wLmRpZDoyM0VDOTlGMDJDNEExMUU3QjlGRENERkEwODdGN0ZCOCI+IDx4bXBNTTpEZXJpdmVkRnJvbSBzdFJlZjppbnN0YW5jZUlEPSJ4bXAuaWlkOjIzRUM5OUVEMkM0QTExRTdCOUZEQ0RGQTA4N0Y3RkI4IiBzdFJlZjpkb2N1bWVudElEPSJ4bXAuZGlkOjIzRUM5OUVFMkM0QTExRTdCOUZEQ0RGQTA4N0Y3RkI4Ii8+IDwvcmRmOkRlc2NyaXB0aW9uPiA8L3JkZjpSREY+IDwveDp4bXBtZXRhPiA8P3hwYWNrZXQgZW5kPSJyIj8+kz26BwAAMERJREFUeNrsfQecXVW1/tqn3ja9pvfeJ5X0kEooQeAvedIRiCEgghQRVERAH1VBkKcgWICnICqKEAi9IyFAElIgEJKQNn1uO/3897rnhp/wIJnJtHPPXV9+azLJzNw5d5dvr76Z67pwKHz3nTroDBj8VxcJAF8vcEDlf1sudCdiXGZzmc5lApdRXCrwMbNfZ1nZxeUDLu9yeYvL61xqwUdwJQmYaUKPm28Aefen4EQiQMgvFD34+1Z9n0RDBSO4XMxlGZfKL/n6F3fPyKwsy/67kcs7XP7M5WEu9QEeK4XLRC5HZAmymouYlZ1ctnF5M0uO+2lp+R/5TAB44t/M5bzsyX64KOEyLys3cvnf7OtuDdBYlWbH6WwuQ1rx/WkuT3D5S/bvRtpq/oSQp+/7uKwav6Kdm/+LKOByLpcNXFZzGRuAscKN/yGXn7Zy8yPCXE7g8kCWCK/iUkzbjQjAD7iEy9+z6mtnQeayiMvbXP7AZWAOjhNu4ge5/E9WyzlclHO5jstHXL7NRaVtRwTwGQ541rrI/3cbl1u68O2hbXwql/eyv7tHjqwL3KR/5fJfHfiaSCK/4PI+l2Np6xEBZOBmhXX+r7qSy3e66W1Gs797C5drsv4HPwM1pMWd9NqoDT3G5RnwHIqEfCUAme/6Ohtgnc4g3LkMsITLDT4Yb/QR/ChrU6OvoNOcsMxxQEjED4dZf9aJm/8/cSR4EYO7s2YCId8IAH+5ySXudOqDDOJyn8/GvYrLr8FzkJ3R4ZvftsEqKobklOkgJhLgCmJrf/QoLld08RJAR+xmLt8FL8xIyBcCOKD6q/wDY53mB0AHVLVPx38Al/vByyOY32Gv6iCjCtAyfxEY1T1A0NKt/ckfd9M4lIEXOsX8gUW0LfPIB4APgBmBmAXYCQ9zNJflOTAP47is4fIil1ntVwEYiE2NoA3sy7WAI0BqbmrNT6GzcnI3j8Nw8MKnz3IZRtszDwggxp9go8Fgj8WgWOhwLeCSHJuPWVkSeCS7GdoxswII3L6S6uuA6Xrm34fA+T4aB0yqWg9e1IDymIOuAeCuf5lrqfVcc5U6zhl4MniOplzEiVw2gZdD0PuwxzYRh+ZFS0EbPgJY+qBmwPHgpff6CZhLgXkD28FL1SYEkQDwxA/zp3hPZ/DvNINYxxHANwMwP6iWY379TVk7uW2Tm0xyE2A8NB7zNZAaGw6mBRzl4zHAgqxbwSu8mk9bNmAEcAB48mNFoML/dtr/cuO5LAzIHKFn/FLwUpcxhFjQFjNAjJvgFBWBzQUrBL8EWAC1NAfGYWLWT4I5BENp6waMADAPYIfJMnkBavu1gCCeFJhJdw14dQbnZVXkQ0LkJ3+yZjKkxk/MfP4lGNEeM6MbgFmE72e1ghht4YAQQIRv+g/4AfV4Usjkz7aTA44P8Jz1BS8/H51kJxxyDhnLhAFb5i4ANxQCZltf/I5ZOTgGYtYvgPUFZ9M2DgABoNqPJ3+Cf2K176WGZE2AoAPDZFhu+2/wvOZfzQHpNKRHjYH47CMzfoEvYHYOjwH6B+7lshZy1+FLBPCfZsBevvs/MBgUi4cdEpyZZ6phDXhx8xezn/9fArAsEAwDas9dCdrgoSA2N39RowjCGGBtAVYv9qdtnaMEgA8jchJYq7GMJnCYvoApeTqXs7In4d+zdv3nzACWToErCGCVVQBz7ANfGZA9RYMCrF7EgqtruRTS9s4xAnCzvoBdXAt4X2eZiMBhaAED8nxOsdkJphbf9bmx4JufaTrE53BNWWCeL4Cx6gBuFIya/CDrIzmZtngOEcABEkAPz1tcC8DP20gCRdD6rjVBBm6CldnT8L/BKz4CgWsB6eEjoGnxsZwMNKwZ6AfBbQuHpg22Z3vrUD4SIgCfIcKfqoGbAE8l2WcdJ1sJLCutpmn9DBgqvBy8sNlKZlkFgmlB3elng1lVjWnCcitShHMdE7M+knsD4u8IPgEcqBB8m2sBO6w2+QJ6AuWOfxlKMyYBY9uYrp3DiYA1nrQcrPKKHsw08mUMMFyI5deYTBWlJeFjAjjwYBgafE9rky+A+s0dHBWcBH4jxls2N86fPdKYv0AqbNzH7QUH3Px4/7g+rslqRCfScvB5U1A0BbaYDLZzKWpdpWB/mtJWYWhF2lj7uNDrwgdhoB0G2ykGrSvasvnJP4AVl69CfuSM5CYBoHfK5Lt+rQ5gt84XEKK93ToUu2boXStcfYoz1vmWO8F8BaqNQj7aRaDzcc4bjQArINeB15SlmgjAZ8BFiP0CNhsMdpkABcIhC4XStLVbB4ef94VgQQQs+QG3Wl3u1MDl7hh9PZSZMU4EhWDm03BgWzaMmHwP8qwtmZALD4gn/98SQiYycIhy4d60tdtGsCL/2Duj/tvK/7i9Qsucie4P3THadiiwikBzY1kiyAONAPMh8PKTzfnkH8iJGBCmCNdzG2A9dg8++BNX0bY+PCKIcCOrF1f/XXCV290+6vHOJPdWd7jWxEJmEVesIu2t0MgdDMj6B57mMibob7Yzk0AwxXRSdlPiyYxmPN6suxe8LK29rVdXAUq4GvB8imXMgImqm9EGvoQLDNrO7TEL0Ini8AnThXqQhB+7g4U/2T3t09kuYznbJZZBStBBZimuN+TBlVILwLvQBa/ZxdZy9UQAhwYm4mCJ6ingJWB8Vbw1BV5dO14c+TfwusG6h1JVUPvH3ICxnAAwN8B0adN2hjbAMvqwxcUUt4Mift8d6v7drTa+yXa6X2O75BLQRA1kbjiI+RA5OB28hik/4XI7mQBfDsw4w641WJ+Nteqz4eDJFpisg0U7mJSxLsu0eFGGerCFiaHAnVwT/XuCQYjRZu1sInD59i7lRMA1AvYORNVz3VHKSe4U86/Qz+BbPxM6RB+CG3wawIMNG5RiItEyIoDPA8Mnz4PXt67gMF9jNHgXZWzkctpXPReqqOgE/NDwcgMiAgApAZ1PBAL/WAYm9ABNeMktUs9zRgtnO+Otl7hWEAPLRSKQ8iN0OCSrsf4L2tu1OSAEgP3s8Qbc6R30PIOyNtdXXpSB14mlXDQFvMpBkfZol5oG1WCwYjCkf0I51wYmsnPcGvNNqLCizHKKwMgHbQBxVFZrRZOgNF8J4AAbdsaNt+h9xQaQD8EXyntxIeL9AVu5BvBcirSA7iACVPt7gM7tOEN+2K1Uljs1zmXuWGMrFFmoDWAOQRfe+NxdQLP3QvDChningpRPBICs9w/o/NRbvNUHu+FeD1/S5edNjUHK8TQBIoGuBSYSqVkicDGHwOmtHOdMhmvcUfonELMKMzkEeRE6xGjXneD5spbmCwHgXfdddXUTavnfzxLBaQf+E3MDNBcdgkImvqiQU7DbgETQCzQhAYJ0i9tfPdGZBD93h+u1EMZkIsiTZCL0Yz3O5dGsKRtYAjgGvNBIV6M66x94jctU/A88+bfxtbXF6JBW4oR2mgYF/MTHrMJ9IElXu0OUrzuTrN/CYC0JSoYI1I648cH/+Bp40QJsxFIURAK4qpufeRqX17k8yBfdAFQP1mpCxuaUyBTwCRHY0BPSwgeghi52hivHO1PMP0N/jTHAYiM3D8qPcV9hIxa81encIBHAMdkN6AdgA8gNEQGurrVBxSxBWWCORJqAL0gAF1Yx1wh6ctNgA0RCq5yRyjecScY/oI8RBtsuBh2kTA5BoIHXuf06e2BNDwIB+O2+PQwC/IRrAZteScGSRldwqopCIIj8qHFJF/ALGZSByQrBFJ53i9VvOmPEU93J5nPQQ4tmcgj0TJ5BwGcLTdZXuDwMPrvWrC0EMAq8jrO+W2CSwAZEROFvf3zuw5OffnGbVRYLOUWFYWCocxIP+GKOZP6xGgxuFOvSY26ZeoYzTrzIHWushXKjAEynGMxsVmGgcRJ4KfA/Bp/cXdEWAvg6+LWHIF4sqojSy5v2FK667Rn3itue0T/+uM6sLotCJCyD4xAL+AHoAkSfTS/QmQSWfJ/bU13mTILL3LH6JigyY8wATgZBTybC/IEfghfVOiOXCGC6n0eVb3GXn/ymHJHkv77+kfrtW5+BXz7wb8NIm1aPihgoikjagI80AiXThwD9ALbya7dX6ERnIvzUHaHXsohZDGnAHAIWbI0Ao1r3gxfVmuZ3AsBuu+N8f8LwHR6SRKguiwmNuiXf8vBa8dzrnnAeeWKjrgiCW1HqNQwmIvCPRoDlx9VcI0gAk29wBklL7KnuLe4IsxkUqxB0NwR20DWCaVkSQP/AQL8SwFjIkSukDmzuCD/xqyti4tb9LcqP7n9NuuTmNcYbb++0ygtDUFygkn/ATyYcYOmow02DtLgXJOVad6B8gjvZ+Y072HBBtFAj8Igg8P4BrC/AMLvqNwLIuVZbB4pXSmIqFBWGxOc37lZW3baGXf+bV4xPP222K0vCbiiUB4GoHJovBIYOMb14kxtWLnGHyyc5k6z/hQE6n0vHqzoM9IxhCf11XD6ELrrWrLUEkNOtkQR+2leWRJioSOIfnt2srLhxtfurh94yzbTFiSCa9Q8QEfgJ2IegGjThTSgIne+MlE91J1qrobfOTQYHQ4dyJpkosKYBHrh4rRnmD0z2AwEMzfURxQ0ekkXoURaD+rQh3fqXdfKqG5+yHluzxYjKkl1WHMmYBQT/aAQYMcA+BJWgC0+7pfJpzjjhHGe8+TpUmBHmJRMFvDUZ5g+8yeV3GeWoGwkgMFdIo6MwFpKhojTCNnzaoF59z8vCpbes0f69bpdRWhCC4sLQ53wJBH8A+xDEwJD/BhWZYqOVzgRzIxQbBZncAiPoEQOsvcH6glM7+oVbW8PcM1Cni+uZBWV8w9sOSKvf3SW+sXmvuWzm4PTyRSOlAf1K5ZaUDppu0c7zkUagZJOJdGDyQ26V+Kxbah/P9qfPZx9L/aBZskFiyUxvIgiicYCH8B+4jASvOrZLNYBwIBdVhgj4yBaHmS0Jyv1rNilnXfcv995H3tZt3bK4luBKskD+AZ8RgZohAl1IcSK4y+0dOsad7F7jjtF3Q9QsBA2iwU4muhK8/IEuJYDAA/0DVaVRsck0lVseeVu68Kanradf/FAvDMlOaUmE6gt8RgKIKNjQB9KswRWVW9x+mc5Ed7lD9QQomWSiSKZTRCCBGYR3EAF0uEbgQmFYgZLCkPjOjvrQJXe9IF9y0xr9rXW7jLKCsFMQC1Fasc/gXXFmZ6oOt4OiXuoOk49zp1q/h0FaCiSn6LOGpYHTCC7gchkRQGeYBdwuKC0IQ0GBKq5+d2fo4tufhZvve1VvqE86vSoLIKRK5CT0mUbg3WVgQ19IC1vcMPYhkJe7E63HoK8eAtdGjUANXh+CG8FrwU8E0BnagCQIUFkcYY4sKr95cmPorGsft373t3dNx7CdqrJoxiwg+M80KAWTlYEuvuUWKGc5Y6QTnSnm09A7rYCTKT8OWMPS+8C7t4AIoNP8A6IAVWUxti+hKzf88Q3hgpuetp577SOzQJXdkoIQiAKlFfsNuLArwMQQofg8FIfOdkbLZ7s1+htQaRWC4XpVh4EA1g9cTQTQ2ScL3+HFUQXKSiLiuu31ykV3PAdX/uJZY9PW/WZ5cQSiUZlIwHf+gQOhQx1CYEmPupWhk5wa9/vuaKMFFEwtdgOiw10E2T6ZRABdoGKWFYYgHFbkx9fuVFfdugZuvu81vbEuZWH/gXBIyiQbEfwFzCrsDWm+4G35524/9QR3ivk6VOuFwakvuIIIoAv9A4rEzYLSCF8+rnz34+vlVTc95T70z/WGa7tudXks40gk+E0jYBDmH/tBCta7EfVkZwI8Cn3NKBiZjkU5TgLYjXgGEUAXE0FYEqGqLCp80piUr/nda/L5P12tr3n5I6MgJENpEbUl86cmxzL+AR0gdJ4zmv3WHWBF+b8C0K34TCKAbjALMiGosAIVZTH29sd16uV3PS/8+FcvpbdtqzMrisNuNCLTQPlw3ko5CYTBlq5wh8NDbn8rwjWBHDcHvsGlDxFA96kEUF4UZnJIlh55bVvonJ89ad9072t6U2PaQnMBy47JP+Ank8C7w0DhJHC+Oxoegv5mDHRXzF0KwJZXpxMB+MA/0KM0ypKOG7pn9UblopvXWA/9Y4MeFgWrsjQKoiSQWeAjEigCC0JgSlc7w+23oEov4OZADt9htJgIwA8Li+/wqCph2bHwQV1L6JrfvSau+ulq86U3PtaLI4qDZcdUW+AXEmBQzDWBRhBClzgjoA4iVlHu5glgj8FRRAA+AfoH+IaH0tKo9PKWfeFL73xBuOauF7WPtzeYqA1EwwoNkk98AhVgwFqIqTe4Q03U0XL0LkN0ONUQAfjLNQCiV3YMoirJf3r5A/Wcnz7p3vHHN7VUQrMrSyMgimQWdDdwM/QAnf3e7SX9JXOFmZHRDnIQE4gA/ErPfKNXl8bEpGUrdz72rrLyZ0/Zf31qsxlVuLlQcoAIiAm6SwuQMx8d+RZ3oFsPUTNHTYGxRAC+1ghciIVlqCyNCVv2tcjfv+dl8bu3rjFeXbvDKI2pTmGBSoPUjSRQzjf9e25M+S30swVm52JUgHwAubLcSmIqKyoMC8+s/1S56BfPCtfe/ZKxa1ezXYX+gYhCZkE3IOO3AUN4yOnBtrlFNt5SlGPTECICyCFtQBYZlh0D5g888PzW0Mobn7J+8/DbupE0bCw7ljBsSEPVpVoAdhvaBmHpT9DLYiywnYWIAPxEBAoSQWkE6lK6evOf10rn3PCE/dgzmy1VEJzy4nCmvoA0gq7bGFGwxAfdnsIOt8jgGgERAKHzT54DacWVZVFxy94W5ap7XmZX3P6c9c76PTpea1aYvdaM0PlzgQ7Aj92QtNqtwLtnXUYEQOiqxYcaQSnf7LGoKj7z3i55xU1PCdfd/bK285NGo6IkDGG69rwL5gH7DZrCX6HaaQbVkXM5P5AIIBfNAgBJ9NqSgSrKf3hus/LtW9c49z+yLm2kTBuvPZclCht2JvD24i1uVHmHlZphsIgACF0PTCuOSCJUlEaF/Wkj9NM/vaWuuP5J/fFnt+phWXLKSiLkG+gkYIlwHcjuM06pDQG8oZgIIMf8A7GQlCGCTXubwlf++iXxytuf1Tdu3mditWEsQmnFHQ0ccxEcaT0UKikWtsIBu2tAoinOPbMAF2VZYYhZjiv9a+0O8dWNu43jZw5Jn3LUKKlvnxK5rjkNtmWTs7CDUAwmbHALtQ+cqDCONUhapsEYaQCEbiYCkW/wqtIoswRBve+p90Mr//sp+2+rNxlFIdmNRVXqPdBBwKvI9oNY8DELR8kHQPAZEbgQUSWoLo+yXS2p0PfvfVn82T2vpG3DtotiRAIdZX5hjcCHbmGK064TpLQsIoAAaQRFERViBap4/5pN6g9++bxm6JZdUhimcGEHAOsBtrnRpA6CEyTDigggYNpASBKhR1WB+MTbO0JX3f6cZmimXcA1AQoVtg+46XeAEjNAEAQiAIKf1VWBf6gojYiPr90RuvHeV3QZwFHpPsN2IwUszMAVXCIAgu9JgDGoLo+Jj776kfrQvzY6ZQVhYDTb7dgoLtj8YwokEMkHQMgFYJWhEpbFXzy6Dl57e4dRVhimQWkHAaSYCLVMzVw3TgRAyAGfAEBhRIG0aUl3P7rOjsd1R1XIFGjPZpEClgtIBBBwYASgpCgMr2zZqzzy9CajKKoAUH4QgQggfyAJDC8zFR9asxl2fNpkFlHLMQIRQJ6ZAmEFdjYklMee/8BWBMElLYBABJBXJOBCJKwIT765XeBagBtSqQyEQASQV4iGJNi2p1l47q0dRlimykECEUBeQRQYMEWUXly3gyXiKTMUIi2ACICQV76AkpgK6z+ud7fsaHSjKl1bTgRAyLsJ1xwn9PaG3ZZtOS75Amk9EPIMuOnf3rYfDGoakvcgIzAffQGSALub0pGQKruyLNKAEAEQ8gmYDtzYkEx/mDKMSFguohEhAiDk06SLAjSlDCGRNkVFIiuQCICQV8AtrzuuqrmOKpIPgAiAkH/IbHva/HQY0BDkOQkQiAAIBAIRAIFAIAIgEAhEAAQCgQiAQCAQARAIBCIAAoFABEAgEIgACAQCEQCBQCACIBAIRAAEAoEIgEAgEAEQCAQiAAKBQARAIBCIAAgEAhEAgUAgAiAQCEQABAKBCIBAIBABEAgEIgACgUAEQCAQiAAIBAIRAIFAIAIgEAhEAAQCgQiAQCAQARAIBCIAAoFABEAgEIgACAQCEQCBQCACIBAIRAAEAoEIgEAgAiAQCEQABAKBCIBAIBABEAgEIgACgUAEQCAQiAAIBAIRAIFAIAIgEAhEAAQCgQiAQCAQARAIBCIAAoFABEAgEIgACAQCEQCBQCACIPgCLg0BEQANQR4TgOtyoXEgAiDkHSy+80sU2YhIgmUTCxABEPILumlD7/KYVBRVRdN2aECIAAj5BMOwoao8xgqjimVbRABEAIS8gsPV/pAquYMrCpJA/kAiAEKegW95WRKEmtE9i2zXZYxGhAiAkE/7n//h237EgHKjMqKmdYfMACIAQl4hntJhUK9iZeKIaqmxKU1qABEAIZ9gmQ4oEZnNq+ljRRXJNsgZSARAyB8wfuQ3Nqdh6pjeoaG9S+yUZgEpAUQAhHzSAvipX1ISZkum9Hd13eIMQBRABEDIG2D8T7dsOGbWYHF4zyKrMaERBxABEPIJ8aQBFZUxefmCEWCbjmnZlBZABJCLRxlWt9Dp1XZfAJfGuA7HzRuqHDmmp1nfknYFgQaSCCDXVjFjAuW0HR5M0wY1LAvnfm2CVKhIekvKIFOACCB3Tn9BFKVoeWEx1bcePhpa0jB+VA/l4pMmMlMzLZNMASKAXNH+8bQSJVGgJduOcXQ4CcQ1+PpRI5X/N2uwsbc2bjtkVREB5AIFMEEAOaIAaQDtsKIYVglaYDguu+ysGerRk/pptQ0p22FAJEAE4G8VgIkMQoURm39u07S2hwQYtCR0EGRBvP7b80JH1fTV9uyP27rtZL5GIALwJRzHBVkWUmpIiuPnhHYsCoFBEzcFFFUSf3Lh3NApc4ZqzU1pO66RY5AIwKewueoaLS1UCyqKQ5Zu0sy2d2Hwnd7MNQFJFsWrV8wK/fD0aU5pWDX21qfctGFnvk4gAvANLCSAikKlsLpIsjSDVIAOIoF4Uoe4YYnfOHas/OvLF7Hls4cYYNnWvqZUpqkIOQeIAHxiA2AskEFxZVFakiXLJWdgh/kEsGqwlm/4Xr2K5GtWzlLuvnQhHDm6lxFv0eyGFi1DAsQDRADdvFK5FsBt1IohPaOhgrDoUGlrB5KAl2TZHNehLq6xCWN6Sjd/50jpmrNmOAPKYsbeuqST5BoYgQige/0Apg2FPUrcoqqitG3RguwMIsCIS11jGgzXFU48aqR834+Oli47qUYvkiVzb0PSNWzyDxABdJcVwM0ANaqKvUf3U6y06ZDLuvOIwOBku2d/HCIxVfjW8omhOy5ZAMtnDTXNtGXvb0q5Fp8LGn4igK4FV1Nt24Uew3vZheWFhslNAkInLh6BQTJlwL7GFBs0sEy+7ttzlTu+M9+eOaxKj7doVlNSp9wBIoCuhZHUoKhXWahqaA/bTOmUFNQ1vJvxD9Q2p2DaxD7Krd9dqPzw9Gl2n+KYsbc+YSd1K6M2EBUQAXQJLG7/D5g8RA4XRGyHbr3pMrPA4dpXfVMaLAbCyUePVu+9agm76PgJRoEkGLWNSSdjFtBQEQF0Nsy0CZVDe4q9R/dxtHia1NCuHn/Thr31SSgsCcsXnDo5/MvvLmTHTx6gpZO6WdeigZ3xD9Cc5BIBfJxTKin2uGcgDps1UghHVMMgX0C3aASJpAH7OBEMHVIuX3/RPPXGb81xjxhSpTU2pe3mlAHkJcwdAtiea29MT2hQNqhaGTR1qGumDPIFdCOamjVo0Qxx/uxBym2XLlCuPnWKOaA0qu2vTzroHyBtwP8E8GZOqqL85B82b5RQ1rtU11Lkke4+bYBxs8CBWq4N2AyEU5aNVe+8bKF0zpJRpuKCua/B8w8Q/EsAm3OTAEyIVRbLY5bUyMxyTMuk5KDuJgK8lbi2Mc1KyqPSpWdNU+/53mI4buoAQ+NaGjYjQZct0bQ/NYDaXHyD6eYU9K0ZKA6fNcLUmlMUEvCBbwDTiuMJA/Y3pWH4sEr5ulVz1Bu/NcuZ2L/c4FqC1aJ51ZxEBP4hgN1c3srFN+hy1ZKf/MK4ZVPCfcf0c9MtKZp1nxABbvD6xhSkDIstmDVY/tWVi8UfnjbN6V0UNvfWJ50UlR37hgAQ/8zNlQZgpA1gksgmnXQEFJcX6umWNHmg/eQfsJxMtMASmHja8WOVOy9bKJy5YLgpOo6xpzEJJnUj8gUBPMKlMWdtz6QGBT1KxOmnz3ViRZE0RgmIBHy0EPlc6LqVIYLy8gLxqhWz5N9euYQdO6m/kU4aVn1cc4kEupcA9nP5fS7rnOgPKB/cIzz9tLksElU1/DfBf0ikDKhtTgvDh1bK118wR77p/DnuiOpCbV99womnTa8LNA1TlxMA4h4uWi6/4VRTEqpH9g7NWbGIlVQXG/zf1DvEh/4B9N1gWnHCsNji2YPle65eqnxv+WS9IqLoGDbUbcom7A4C2MDlwVx/00gCpf0r1TnnLhT7j+uvpZsSJvoJyCTwH7C+YE9dAqSwLJ51wvjwr65YLJ45f4QmWLa5v4n8A11NAIhbuOR81810UwoiZQXizLMXqFNPmu6EI6qZqG+xbcsh/dKH/oGUV3aMbcmkq86bGf75hfPc+aN6pZMJw2xMekopTVvbIR3Gz7zP5WYuV+a2ngmg84UjqbIwfOE4tcfw3ubm5zeYOzd8YicbU4oaVUFUJLpoxF9TBi1xDVKSyCaO762MGV7lPPfGduv+f23UN+5oEJWQKBVGFJqyTtYAEDdw2ZL7tibLtBNPNiYgWlUkTz1ltjr77PkwsGagDrZtppuTLt0x4MM542p/PdfgNNsRlh45VLnz8kXixSdOsEpUWd/T4JkFpA50ngaASHA5m8tzXJQgLCoME1qiyLCAaOaQHrD3/V3Glhc2aru3fKoYjiOq0RAwvDKb+MA3c5apL2jgplyBIp138kTpyMn97AdWv6//49WPhMa4JpcVhUESBCAvb8cTAOJVLpdx+UVAVhQ4jgM6VzFRL6oa2VvhZODs3bDD3vziRnvP1j2CqEqSElbI6eSfKcsglTYhmTKhV59i8epzZwhza/paD65+X3thw6eKpIhCUUQFzgNkGnQwASBu5zKEywWBMjT5QtFa0iDIotBn0iChemQfa9c7H9sfvrrF3bttjygoEgtFQ4xOFn+RQXOLDpIksBmT+8lTx/WWVr/8ofHgU5uEtR/VSgVRhRVEFCCTrmMJAHEhlwIuZwRtcBzTzoQMRUWSBs0cLvYY2Qe2v7HV+PD1rax+d72kREOCrMq0inxEAugfqG1MgspJetmC4crUMT2dh9dsNv/3mc3C7rqEUFIQEkKKSNpAFh3VEuxM8MKDgbQ1kQiSjUnG+KIaubRGXXDRMVLN0ZOMaEE4k0iE15JRDoGPFnXGP2DDPj5nkQJVvOjUqcp9Vy1lp8wdZtmGbdY2pT9T9ogAOg6XclnJJR7UwXJMCxL1cZCiijB22ZTQ3BWLxVFzR5uyJOifEQHBP3DRP2DBnvoE9O9XIv5gxUzltgvnurNG9NDrGpKZtuUBTSu2uoMAEHdzGcHl78FVM/npkjIypkGkLCZOOnmGPH/VUmHEzBGGwMBKN6ccsjP9ZRYgGls0aIjrMGNyf+WOyxdJ15x5hDm4okDbV5ewU1xbCJgCt727CADxKZfjuSzg8naQF5eZNiDdkmaFvcrkySfPVOeet8gZMGGAYacNE7sRZ1qSk2ngH4WAG/7oH9AcR1x+zJjwnZwIVh07xoiKzMAsQz1DBIGYr12t/UapEx/iGS4TuZzD5SdcqoN4vOCi0hOeTVk+uFqpGFhl796ww972+tb0jvc+kV2RSaFYmOxNH/kHsOx4L7aLKw5LF585XVg4bZDzwJMbtSfe3C4kNUMuiYVznQc2dacG8EVgBeFQLjdBwNNoMHRo6JbYa9wAZcZZ89VZZ86zew7qoestaUvD/gNUx+orUw7rC/Y3pYShg8ula8+fo9564Vx36qBKrbE5ZTUnde/7cvPtve8HDeA/gY7By7ncy+VWLkuDuqgcy4ZUcxIEURD6Txum9hzZ1/7o9S3WR//+wK7bWS9KqizJqkSmgU/mC8uOG5o1TBRic6b1V2tG9HD++fxW48E1m+2te5ul4sKQGJLFXHtrrW7i29U3A2H9wNFc5nJ5L+gLK9WYAFdg4rAF49T5FxwtT1o2xYgWR3UtrrnYsZhIwDeWXCYvAK89Z7IgnLJsXOieq48SVx491ggxZu1vTLkGlh3nxtt5B9rQv7O7rgZ7gUsNl1UQ4LAhwjYtSDUlgEmCMGLR+PCRKxdL45ZMMBRFMjhB2NSq3GdmHPoHGhJQXBKRvnPG1PAvL57vLp3Y10wlDKuem3FeApGvqeDdtnyz1J17g8td4PUavILLxUG1kFEjwBwB27RZqCgqjjl2stivZqC17fWt1rY3tlqpxqSiFoaZJIlUuOIDoKOwJaGDKDIYMbxKvmlopTN/7W579d9fN6w9CdmJoorn28dvU9s+P1wOir0Gv8tlLJfVQV5YuLkzocPmJMSqi6WaE6cpc89dyIbNGG64pm2jpoA+BHIU+sMswHyOxuY0tGimsHj6APlH3z+2tmz04GuNxpbtPjXf0MT+d64RwAFgu7ElXBZCG8IYubeyvL+wKzHmEJQOrFSOOGOeMu+8Rc7AmkG6Y1hWujn9ue8ldLP2ZjnQVN8MTkW5qh0x5w4xER/ILAujWn7rjPWrtprUfrwefE3WP3BJ0P0DqBFo2OGmKckqh/WUkQhmnjHP7TWsp6bF0xZ+DZ2JRAQ+mCuchD375fjkaSUNJ5/qii3Nl3N2GM2/9LhPHnEHl/vbbO741RfD5TYug7jcGfQTxiOCNBiawXpNGCjPWbFYnnXaPLuqb4XB/9/WMSZNJOAHxkYHATQdfRxYhUUgJOJbQRCO4V+Zk9VguxO/5NIcFAI4ALyPEHsNjOPybODXFz/t0T9g247Yf+pgZfaKRdL0/5ppl1aXmKmGpG2kiQi62zEgxuNgx2Kwf9V3AEQRmJYx117kMh68Yrjmbngy7Mx10+H8oJAjQ485A/O5fJ3Lx0HXCLzQYYqvNkEYPHe0Mm/lEnHy16aasYKInqpPOBQ67F6ILS2QqpkMqXE1IDU0gCtmEoUwqoXFcIPBa5TTVXGCJJeLDveHhRwb+4ezA/w9Li3BPm3AyyqsT4AYkoWRS2tC8y44Shy3tMYIhxQ93ZR0TN2k9mTdpQm0NEPtuedDavQYkOrr/zOpqy67Icdw+UcXPM2ZXNbnCwEg8Irv/+YyjMvvgr/YACy+0ZN1cQiXxKTxx09VZ5+3iA2fPcrgCoKV5ESQqTokdO20pNNglRRBfMES77C3/o9WtpHLcVxO5PJBJz3GCvDyaCCfCOAA9mbZbzKX5wO/4AQGZlqHVHOKFVaXKFO+MSs0//wl7uDJgw2wbENrSbvY1JQ0gi6CIIC8rw4S02aCMWAQSI2fmQJfxKNcRoHny6rroN+OvrEZXH7d7rcRgKnAvOd5XE6FNjRCyFl1wHUBnYHYkKSkX4U87bQ56qxvLmD9xvTVzIRupVpSme7G5CzsArhORupOOwusiioQk8mv+k7MF7gza75eBe3zY93HBcOPr3YIjwVoOh4AL2x4deD9A1lgMpGhmax6ZG95xjcXqHPPXej0GdFbs1K6iaXJBziD0ImKAN/0iSnjID5zNkj79x6qwAsjBHipznDwGuZgqfxH4DkQDwb8nluyfgW8j2N/Rz2/FLD5QGP4+qxv4A7wOhMF+xDi9j9ecy5KotB7wgClYkgPe9e6j6wPXt1i1H6yX2aSyJSQAkykS006RyljoHzaAM1LjwVlz26IvPUG2CWlh7qEwACvYc4z2UN4dFb6cFGzhCBlNzp21VqX/ZkOhxTQacGWSF/L+gfw4pIjgr0GWab9GJoFgiSIA2eNFPvUDHS2v/GBsfWVzdC4p0EWVVlAIqBio46ww77wH6YJZlUVNB53AsReeQEcXQdXVVt7EwkeWu9BN5XHCwGfLCyMmJ5Vmz7Nh9XpWFwjaEygk0oYMm+0cuT5S6SaYyfb4UgIW5hnQofeKibb4HAULviyjrucgOX9+0HvPxBqz1kFDJ2xdm7kagh5MnHoOBmVNQ9S+aCWYuiQmwZMDMviqKNq5AUXLhXGLp5gK5KkpxoTjk0XaB4O0Ibf+ZXDzjWBxJRp4MoylhISAfhw8tBBiCmbD+fLm7Z173ajcGlMGr9ssnzkqqOEkXNHm2Dblp3SMLUdiAlar2DBQXruM8sENxSG9IjRIDa3ZEKFRAD+AyZlYEoxFnCsD/y7ze5tI+WFDgt7lcqTls9S5p+3SOo1ut8ew3LirkOJRB0y1FwDsAsKoHnJ0ZwqbK9OwOd5GUIezxcWcGATktOg4xI0fG8aGIk0Vh6yfhMGgDxxyJ2a5fSSXPcx2r6twr5Dja9Uux/SI0dB7YoLQEgkfH8lsUBzCn8Er235jflCAnjiO0kN6tKmtNNmcZHBMvCKrdbScjgo9hx6Rwkg8o2fmDEbjP4DuSnQ5GtTgAjAQyN4fQkxU+vRvOABLhrX/F9NscwikBk8y8+qSfzTRRDkjkztw45Wja2mgStKsPfiK7hJUAhCPE4EkCPYBl7xBjZ5eD/obzYqQEMDJ4E1SQaYxZ7NZH8avIwzvO59Jy2Jz+HD1mpZYrwZzF69IT5vATDb9q0pQATw5cA2T5iZdS54hReBBJ/83QpXBd7QGOzja7RA8Nzc4GWiYXfZkeAVseyhJdEGAuBwBRGYrkNi8jRP3fKpM5AI4CBzCF6uNpoFvwzg+8Nug/twASAJPJng6gDf9uHPr9MEeEUs47I+kuY8Xg+YivtRm8wsTgAONwH0Pv24RtDiSxIgAjg0sLDowuxp+M8AvS+MfGSq0kJ8XW63AN7RGajsS7MCarM+Eixi+R/wejbmG/DGna1t2lzpFFjFJbD30ivBrKrOFA4RAeQu0DF2bFaC4B/AkNanB1SdEr4SNhoM6rkWIH31QYU9GL6V9RH8Nc/mv+1zjhEBfvLbxaXghCMgJhO+iwgQAbQdqAVgWjFeZtKUw+/jc/fHYbFgI9/867kW8B++gIPZwidk/STP5Mm8H9775Go/Mw1oOu7EjBbADIMIICC4NesfQD+BnYPP/9Tn1ilkQoHwLieAWv5uoq0zV7HtFda1H8nlpQDPNZpLh93/X0iloHnhDEhOmppJFPKTL4AIoH2oBy9SMBFyry3Z/+ljH+HrEk0A9AUIrE0VAtiWejZ4IdQg5hBgc8/G9ryA1GSCWVkFTjTGjwubCCBgwBtZsS0ZZtRtyYHnffLLCADV/hhfEZs4AaQcyBYKtQkH+t9hs8ogtW9/oL0vIDY3Q3zuAtCHDM04B4kAggnMqcf6gh/63D/w3MEWhOECtDgsoxEcRpkQ+hSxWSVGDK7KcT8JYl2H+Dkw/VpVoXn+4ky/ACKA4AK9PD8Br77gHh8+H3ry7/2qL6IfQONb+M9xBnstzyxoxzhg/ztsc4Vt3HM1dHhXR72QKyvghEIZn8BXdBAmAggQarP+Acyvf9VHz/WrrO/iK4/vSDYi0Oh4eQHtBCYT4UUuQ7j8Fg5Lqeg2vAGHceHmV242LQVWeSWYPXt5IUEfOAOJADofWGGHPdxPgu5vW74PWtFLHncobnzLPUj3i7YD+zR+E7yEqodyZO4ugw4cAiwK0oYPgZa5CzJagB+6BhEBdB3+kl386B/Qu+kZrs+aAIcEJgO9pTFIOp8VCXUU0En6DfB6Nb7g4/nC+/06NrQpCCDVNWVaiBt9+4Gg60QAeYZ01j+A6vADXfy7/wxeq/RWw4JO7ST+Gpe5XBaC1/rab6r/ZZ3z0i5e8+SlBfsgHYAIoHuAZbZ4k9EsLq93we/7hMsqny6ONeDlUSyHNubadxIw3n8WdFIf/kw0IBqF1PiJmRZiRAD5jZfBu7PgG1kbuTOA+f54QYrf2579KWsiYQ5Bd5Uf4xxgPkenJTMxywK7qBgS06b7Ii2YCMAfQKfYCC7XQof63TIxbLwc5Z0cGQdMkUMn5YEr3rqyFwNqZXjV77ud+lvQ82/bICbiFAUgfA4YLvsRlwHgOaAS7Xy9n4MXfcjFZh7oK0GH5egOGotDARN9poBX25BXIALwH1ANvQi8RKKV2cXZ2uRxzDHFS1CwXPfi7EbKZezPjgUWXf0AWtmTrw2ozdr7WNC0Nx8Xm0T7zbfAk/vurOAGmJXd2KgeV3ApBq9ZCTqtMO/+pSxZ7A/gWGD+wnVcbgKv3uJMLtO4lBzm6+F4Yaej30Ce3CRNBJDb+BDa0I8uwMDA+Z+zUpolgalZPwc6EMu5fNG1jmkM2IoHL4HBuyKf4PImdJaXP8fw/wUYADaMWBQze6IuAAAAAElFTkSuQmCC;fontFamily=Architects Daughter;fontSource=https%3A%2F%2Ffonts.googleapis.com%2Fcss%3Ffamily%3DArchitects%2BDaughter;fontSize=29;fontStyle=1;labelPosition=center;align=center;fontColor=#FFFFFF;" vertex="1" parent="1">
          <mxGeometry x="190" y="145" width="106" height="106" as="geometry" />
        </mxCell>
        <mxCell id="Mopwv9r3Akd3ydKW69NV-1" value="&lt;span style=&quot;font-size: 14px;&quot;&gt;&lt;b&gt;Task&lt;/b&gt;&lt;/span&gt;" style="sketch=0;outlineConnect=0;fontColor=#232F3E;gradientColor=none;fillColor=#ED7100;strokeColor=none;dashed=0;verticalLabelPosition=bottom;verticalAlign=top;align=center;html=1;fontSize=12;fontStyle=0;aspect=fixed;pointerEvents=1;shape=mxgraph.aws4.ecs_task;hachureGap=4;jiggle=2;curveFitting=1;fontFamily=Architects Daughter;fontSource=https%3A%2F%2Ffonts.googleapis.com%2Fcss%3Ffamily%3DArchitects%2BDaughter;" vertex="1" parent="1">
          <mxGeometry x="430" y="320" width="68.61" height="89" as="geometry" />
        </mxCell>
        <mxCell id="N4v4c5e9rgYL0vv045sr-4" style="edgeStyle=orthogonalEdgeStyle;rounded=0;orthogonalLoop=1;jettySize=auto;html=1;exitX=0.5;exitY=1;exitDx=0;exitDy=0;exitPerimeter=0;sketch=1;curveFitting=1;jiggle=2;" edge="1" parent="1" source="N4v4c5e9rgYL0vv045sr-1" target="Mopwv9r3Akd3ydKW69NV-1">
          <mxGeometry relative="1" as="geometry" />
        </mxCell>
        <mxCell id="N4v4c5e9rgYL0vv045sr-5" style="edgeStyle=orthogonalEdgeStyle;rounded=0;orthogonalLoop=1;jettySize=auto;html=1;exitX=0.5;exitY=1;exitDx=0;exitDy=0;exitPerimeter=0;sketch=1;curveFitting=1;jiggle=2;" edge="1" parent="1" source="N4v4c5e9rgYL0vv045sr-1" target="N4v4c5e9rgYL0vv045sr-2">
          <mxGeometry relative="1" as="geometry" />
        </mxCell>
        <mxCell id="N4v4c5e9rgYL0vv045sr-6" style="edgeStyle=orthogonalEdgeStyle;rounded=0;orthogonalLoop=1;jettySize=auto;html=1;exitX=0.5;exitY=1;exitDx=0;exitDy=0;exitPerimeter=0;sketch=1;curveFitting=1;jiggle=2;" edge="1" parent="1" source="N4v4c5e9rgYL0vv045sr-1" target="N4v4c5e9rgYL0vv045sr-3">
          <mxGeometry relative="1" as="geometry" />
        </mxCell>
        <mxCell id="N4v4c5e9rgYL0vv045sr-2" value="&lt;span style=&quot;font-size: 14px;&quot;&gt;&lt;b&gt;Task&lt;/b&gt;&lt;/span&gt;" style="sketch=0;outlineConnect=0;fontColor=#232F3E;gradientColor=none;fillColor=#ED7100;strokeColor=none;dashed=0;verticalLabelPosition=bottom;verticalAlign=top;align=center;html=1;fontSize=12;fontStyle=0;aspect=fixed;pointerEvents=1;shape=mxgraph.aws4.ecs_task;hachureGap=4;jiggle=2;curveFitting=1;fontFamily=Architects Daughter;fontSource=https%3A%2F%2Ffonts.googleapis.com%2Fcss%3Ffamily%3DArchitects%2BDaughter;" vertex="1" parent="1">
          <mxGeometry x="520" y="320" width="68.61" height="89" as="geometry" />
        </mxCell>
        <mxCell id="N4v4c5e9rgYL0vv045sr-3" value="&lt;span style=&quot;font-size: 14px;&quot;&gt;&lt;b&gt;Task&lt;/b&gt;&lt;/span&gt;" style="sketch=0;outlineConnect=0;fontColor=#232F3E;gradientColor=none;fillColor=#ED7100;strokeColor=none;dashed=0;verticalLabelPosition=bottom;verticalAlign=top;align=center;html=1;fontSize=12;fontStyle=0;aspect=fixed;pointerEvents=1;shape=mxgraph.aws4.ecs_task;hachureGap=4;jiggle=2;curveFitting=1;fontFamily=Architects Daughter;fontSource=https%3A%2F%2Ffonts.googleapis.com%2Fcss%3Ffamily%3DArchitects%2BDaughter;" vertex="1" parent="1">
          <mxGeometry x="610" y="320" width="68.61" height="89" as="geometry" />
        </mxCell>
        <mxCell id="N4v4c5e9rgYL0vv045sr-7" value="" style="edgeStyle=orthogonalEdgeStyle;rounded=0;orthogonalLoop=1;jettySize=auto;html=1;" edge="1" parent="1" source="N4v4c5e9rgYL0vv045sr-1" target="N4v4c5e9rgYL0vv045sr-2">
          <mxGeometry relative="1" as="geometry" />
        </mxCell>
        <mxCell id="N4v4c5e9rgYL0vv045sr-1" value="&lt;font size=&quot;1&quot; style=&quot;&quot;&gt;&lt;b style=&quot;font-size: 18px;&quot;&gt;ECS&lt;/b&gt;&lt;/font&gt;" style="rounded=1;whiteSpace=wrap;html=1;sketch=0;hachureGap=4;jiggle=2;curveFitting=1;fontFamily=Architects Daughter;fontSource=https%3A%2F%2Ffonts.googleapis.com%2Fcss%3Ffamily%3DArchitects%2BDaughter;fontSize=12;points=[[0,0,0],[0.25,0,0],[0.5,0,0],[0.75,0,0],[1,0,0],[0,1,0],[0.25,1,0],[0.5,1,0],[0.75,1,0],[1,1,0],[0,0.25,0],[0,0.5,0],[0,0.75,0],[1,0.25,0],[1,0.5,0],[1,0.75,0]];outlineConnect=0;fillColor=#ffe6cc;strokeColor=#d79b00;dashed=0;verticalLabelPosition=middle;verticalAlign=middle;fontStyle=0;aspect=fixed;shape=mxgraph.aws4.resourceIcon;resIcon=mxgraph.aws4.ecs;labelPosition=center;align=center;" vertex="1" parent="1">
          <mxGeometry x="460" y="158" width="160" height="80" as="geometry" />
        </mxCell>
        <mxCell id="N4v4c5e9rgYL0vv045sr-8" style="edgeStyle=orthogonalEdgeStyle;rounded=0;orthogonalLoop=1;jettySize=auto;html=1;exitX=1;exitY=0.5;exitDx=0;exitDy=0;entryX=0;entryY=0.5;entryDx=0;entryDy=0;entryPerimeter=0;sketch=1;curveFitting=1;jiggle=2;startArrow=classic;startFill=1;endArrow=none;endFill=0;" edge="1" parent="1" source="vjv7hDI9gNEvu8DfmbGU-1" target="N4v4c5e9rgYL0vv045sr-1">
          <mxGeometry relative="1" as="geometry" />
        </mxCell>
        <mxCell id="tt0PwDagLKKoQQinOa9d-1" value="AWS API Scan" style="edgeLabel;html=1;align=center;verticalAlign=middle;resizable=0;points=[];" connectable="0" vertex="1" parent="N4v4c5e9rgYL0vv045sr-8">
          <mxGeometry x="-0.2065" y="-1" relative="1" as="geometry">
            <mxPoint as="offset" />
          </mxGeometry>
        </mxCell>
      </root>
    </mxGraphModel>
  </diagram>
  <diagram name="ECS EventBridge Lambda" id="ZVmZ9vzuz7HYrqrI4X5l">
    <mxGraphModel grid="1" page="1" gridSize="10" guides="1" tooltips="1" connect="1" arrows="1" fold="1" pageScale="1" pageWidth="850" pageHeight="1100" math="0" shadow="0">
      <root>
        <mxCell id="IQo0LNaKbfwx1rOGdzC5-0" />
        <mxCell id="IQo0LNaKbfwx1rOGdzC5-1" parent="IQo0LNaKbfwx1rOGdzC5-0" />
        <mxCell id="IQo0LNaKbfwx1rOGdzC5-2" value="NPM" style="shape=image;verticalLabelPosition=middle;labelBackgroundColor=none;verticalAlign=middle;aspect=fixed;imageAspect=0;image=data:image/png,iVBORw0KGgoAAAANSUhEUgAAAQAAAAEACAYAAABccqhmAAAAGXRFWHRTb2Z0d2FyZQBBZG9iZSBJbWFnZVJlYWR5ccllPAAAAyRpVFh0WE1MOmNvbS5hZG9iZS54bXAAAAAAADw/eHBhY2tldCBiZWdpbj0i77u/IiBpZD0iVzVNME1wQ2VoaUh6cmVTek5UY3prYzlkIj8+IDx4OnhtcG1ldGEgeG1sbnM6eD0iYWRvYmU6bnM6bWV0YS8iIHg6eG1wdGs9IkFkb2JlIFhNUCBDb3JlIDUuMy1jMDExIDY2LjE0NTY2MSwgMjAxMi8wMi8wNi0xNDo1NjoyNyAgICAgICAgIj4gPHJkZjpSREYgeG1sbnM6cmRmPSJodHRwOi8vd3d3LnczLm9yZy8xOTk5LzAyLzIyLXJkZi1zeW50YXgtbnMjIj4gPHJkZjpEZXNjcmlwdGlvbiByZGY6YWJvdXQ9IiIgeG1sbnM6eG1wPSJodHRwOi8vbnMuYWRvYmUuY29tL3hhcC8xLjAvIiB4bWxuczp4bXBNTT0iaHR0cDovL25zLmFkb2JlLmNvbS94YXAvMS4wL21tLyIgeG1sbnM6c3RSZWY9Imh0dHA6Ly9ucy5hZG9iZS5jb20veGFwLzEuMC9zVHlwZS9SZXNvdXJjZVJlZiMiIHhtcDpDcmVhdG9yVG9vbD0iQWRvYmUgUGhvdG9zaG9wIENTNiAoTWFjaW50b3NoKSIgeG1wTU06SW5zdGFuY2VJRD0ieG1wLmlpZDoyM0VDOTlFRjJDNEExMUU3QjlGRENERkEwODdGN0ZCOCIgeG1wTU06RG9jdW1lbnRJRD0ieG1wLmRpZDoyM0VDOTlGMDJDNEExMUU3QjlGRENERkEwODdGN0ZCOCI+IDx4bXBNTTpEZXJpdmVkRnJvbSBzdFJlZjppbnN0YW5jZUlEPSJ4bXAuaWlkOjIzRUM5OUVEMkM0QTExRTdCOUZEQ0RGQTA4N0Y3RkI4IiBzdFJlZjpkb2N1bWVudElEPSJ4bXAuZGlkOjIzRUM5OUVFMkM0QTExRTdCOUZEQ0RGQTA4N0Y3RkI4Ii8+IDwvcmRmOkRlc2NyaXB0aW9uPiA8L3JkZjpSREY+IDwveDp4bXBtZXRhPiA8P3hwYWNrZXQgZW5kPSJyIj8+kz26BwAAMERJREFUeNrsfQecXVW1/tqn3ja9pvfeJ5X0kEooQeAvedIRiCEgghQRVERAH1VBkKcgWICnICqKEAi9IyFAElIgEJKQNn1uO/3897rnhp/wIJnJtHPPXV9+azLJzNw5d5dvr76Z67pwKHz3nTroDBj8VxcJAF8vcEDlf1sudCdiXGZzmc5lApdRXCrwMbNfZ1nZxeUDLu9yeYvL61xqwUdwJQmYaUKPm28Aefen4EQiQMgvFD34+1Z9n0RDBSO4XMxlGZfKL/n6F3fPyKwsy/67kcs7XP7M5WEu9QEeK4XLRC5HZAmymouYlZ1ctnF5M0uO+2lp+R/5TAB44t/M5bzsyX64KOEyLys3cvnf7OtuDdBYlWbH6WwuQ1rx/WkuT3D5S/bvRtpq/oSQp+/7uKwav6Kdm/+LKOByLpcNXFZzGRuAscKN/yGXn7Zy8yPCXE7g8kCWCK/iUkzbjQjAD7iEy9+z6mtnQeayiMvbXP7AZWAOjhNu4ge5/E9WyzlclHO5jstHXL7NRaVtRwTwGQ541rrI/3cbl1u68O2hbXwql/eyv7tHjqwL3KR/5fJfHfiaSCK/4PI+l2Np6xEBZOBmhXX+r7qSy3e66W1Gs797C5drsv4HPwM1pMWd9NqoDT3G5RnwHIqEfCUAme/6Ohtgnc4g3LkMsITLDT4Yb/QR/ChrU6OvoNOcsMxxQEjED4dZf9aJm/8/cSR4EYO7s2YCId8IAH+5ySXudOqDDOJyn8/GvYrLr8FzkJ3R4ZvftsEqKobklOkgJhLgCmJrf/QoLld08RJAR+xmLt8FL8xIyBcCOKD6q/wDY53mB0AHVLVPx38Al/vByyOY32Gv6iCjCtAyfxEY1T1A0NKt/ckfd9M4lIEXOsX8gUW0LfPIB4APgBmBmAXYCQ9zNJflOTAP47is4fIil1ntVwEYiE2NoA3sy7WAI0BqbmrNT6GzcnI3j8Nw8MKnz3IZRtszDwggxp9go8Fgj8WgWOhwLeCSHJuPWVkSeCS7GdoxswII3L6S6uuA6Xrm34fA+T4aB0yqWg9e1IDymIOuAeCuf5lrqfVcc5U6zhl4MniOplzEiVw2gZdD0PuwxzYRh+ZFS0EbPgJY+qBmwPHgpff6CZhLgXkD28FL1SYEkQDwxA/zp3hPZ/DvNINYxxHANwMwP6iWY379TVk7uW2Tm0xyE2A8NB7zNZAaGw6mBRzl4zHAgqxbwSu8mk9bNmAEcAB48mNFoML/dtr/cuO5LAzIHKFn/FLwUpcxhFjQFjNAjJvgFBWBzQUrBL8EWAC1NAfGYWLWT4I5BENp6waMADAPYIfJMnkBavu1gCCeFJhJdw14dQbnZVXkQ0LkJ3+yZjKkxk/MfP4lGNEeM6MbgFmE72e1ghht4YAQQIRv+g/4AfV4Usjkz7aTA44P8Jz1BS8/H51kJxxyDhnLhAFb5i4ANxQCZltf/I5ZOTgGYtYvgPUFZ9M2DgABoNqPJ3+Cf2K176WGZE2AoAPDZFhu+2/wvOZfzQHpNKRHjYH47CMzfoEvYHYOjwH6B+7lshZy1+FLBPCfZsBevvs/MBgUi4cdEpyZZ6phDXhx8xezn/9fArAsEAwDas9dCdrgoSA2N39RowjCGGBtAVYv9qdtnaMEgA8jchJYq7GMJnCYvoApeTqXs7In4d+zdv3nzACWToErCGCVVQBz7ANfGZA9RYMCrF7EgqtruRTS9s4xAnCzvoBdXAt4X2eZiMBhaAED8nxOsdkJphbf9bmx4JufaTrE53BNWWCeL4Cx6gBuFIya/CDrIzmZtngOEcABEkAPz1tcC8DP20gCRdD6rjVBBm6CldnT8L/BKz4CgWsB6eEjoGnxsZwMNKwZ6AfBbQuHpg22Z3vrUD4SIgCfIcKfqoGbAE8l2WcdJ1sJLCutpmn9DBgqvBy8sNlKZlkFgmlB3elng1lVjWnCcitShHMdE7M+knsD4u8IPgEcqBB8m2sBO6w2+QJ6AuWOfxlKMyYBY9uYrp3DiYA1nrQcrPKKHsw08mUMMFyI5deYTBWlJeFjAjjwYBgafE9rky+A+s0dHBWcBH4jxls2N86fPdKYv0AqbNzH7QUH3Px4/7g+rslqRCfScvB5U1A0BbaYDLZzKWpdpWB/mtJWYWhF2lj7uNDrwgdhoB0G2ykGrSvasvnJP4AVl69CfuSM5CYBoHfK5Lt+rQ5gt84XEKK93ToUu2boXStcfYoz1vmWO8F8BaqNQj7aRaDzcc4bjQArINeB15SlmgjAZ8BFiP0CNhsMdpkABcIhC4XStLVbB4ef94VgQQQs+QG3Wl3u1MDl7hh9PZSZMU4EhWDm03BgWzaMmHwP8qwtmZALD4gn/98SQiYycIhy4d60tdtGsCL/2Duj/tvK/7i9Qsucie4P3THadiiwikBzY1kiyAONAPMh8PKTzfnkH8iJGBCmCNdzG2A9dg8++BNX0bY+PCKIcCOrF1f/XXCV290+6vHOJPdWd7jWxEJmEVesIu2t0MgdDMj6B57mMibob7Yzk0AwxXRSdlPiyYxmPN6suxe8LK29rVdXAUq4GvB8imXMgImqm9EGvoQLDNrO7TEL0Ini8AnThXqQhB+7g4U/2T3t09kuYznbJZZBStBBZimuN+TBlVILwLvQBa/ZxdZy9UQAhwYm4mCJ6ingJWB8Vbw1BV5dO14c+TfwusG6h1JVUPvH3ICxnAAwN8B0adN2hjbAMvqwxcUUt4Mift8d6v7drTa+yXa6X2O75BLQRA1kbjiI+RA5OB28hik/4XI7mQBfDsw4w641WJ+Nteqz4eDJFpisg0U7mJSxLsu0eFGGerCFiaHAnVwT/XuCQYjRZu1sInD59i7lRMA1AvYORNVz3VHKSe4U86/Qz+BbPxM6RB+CG3wawIMNG5RiItEyIoDPA8Mnz4PXt67gMF9jNHgXZWzkctpXPReqqOgE/NDwcgMiAgApAZ1PBAL/WAYm9ABNeMktUs9zRgtnO+Otl7hWEAPLRSKQ8iN0OCSrsf4L2tu1OSAEgP3s8Qbc6R30PIOyNtdXXpSB14mlXDQFvMpBkfZol5oG1WCwYjCkf0I51wYmsnPcGvNNqLCizHKKwMgHbQBxVFZrRZOgNF8J4AAbdsaNt+h9xQaQD8EXyntxIeL9AVu5BvBcirSA7iACVPt7gM7tOEN+2K1Uljs1zmXuWGMrFFmoDWAOQRfe+NxdQLP3QvDChningpRPBICs9w/o/NRbvNUHu+FeD1/S5edNjUHK8TQBIoGuBSYSqVkicDGHwOmtHOdMhmvcUfonELMKMzkEeRE6xGjXneD5spbmCwHgXfdddXUTavnfzxLBaQf+E3MDNBcdgkImvqiQU7DbgETQCzQhAYJ0i9tfPdGZBD93h+u1EMZkIsiTZCL0Yz3O5dGsKRtYAjgGvNBIV6M66x94jctU/A88+bfxtbXF6JBW4oR2mgYF/MTHrMJ9IElXu0OUrzuTrN/CYC0JSoYI1I648cH/+Bp40QJsxFIURAK4qpufeRqX17k8yBfdAFQP1mpCxuaUyBTwCRHY0BPSwgeghi52hivHO1PMP0N/jTHAYiM3D8qPcV9hIxa81encIBHAMdkN6AdgA8gNEQGurrVBxSxBWWCORJqAL0gAF1Yx1wh6ctNgA0RCq5yRyjecScY/oI8RBtsuBh2kTA5BoIHXuf06e2BNDwIB+O2+PQwC/IRrAZteScGSRldwqopCIIj8qHFJF/ALGZSByQrBFJ53i9VvOmPEU93J5nPQQ4tmcgj0TJ5BwGcLTdZXuDwMPrvWrC0EMAq8jrO+W2CSwAZEROFvf3zuw5OffnGbVRYLOUWFYWCocxIP+GKOZP6xGgxuFOvSY26ZeoYzTrzIHWushXKjAEynGMxsVmGgcRJ4KfA/Bp/cXdEWAvg6+LWHIF4sqojSy5v2FK667Rn3itue0T/+uM6sLotCJCyD4xAL+AHoAkSfTS/QmQSWfJ/bU13mTILL3LH6JigyY8wATgZBTybC/IEfghfVOiOXCGC6n0eVb3GXn/ymHJHkv77+kfrtW5+BXz7wb8NIm1aPihgoikjagI80AiXThwD9ALbya7dX6ERnIvzUHaHXsohZDGnAHAIWbI0Ao1r3gxfVmuZ3AsBuu+N8f8LwHR6SRKguiwmNuiXf8vBa8dzrnnAeeWKjrgiCW1HqNQwmIvCPRoDlx9VcI0gAk29wBklL7KnuLe4IsxkUqxB0NwR20DWCaVkSQP/AQL8SwFjIkSukDmzuCD/xqyti4tb9LcqP7n9NuuTmNcYbb++0ygtDUFygkn/ATyYcYOmow02DtLgXJOVad6B8gjvZ+Y072HBBtFAj8Igg8P4BrC/AMLvqNwLIuVZbB4pXSmIqFBWGxOc37lZW3baGXf+bV4xPP222K0vCbiiUB4GoHJovBIYOMb14kxtWLnGHyyc5k6z/hQE6n0vHqzoM9IxhCf11XD6ELrrWrLUEkNOtkQR+2leWRJioSOIfnt2srLhxtfurh94yzbTFiSCa9Q8QEfgJ2IegGjThTSgIne+MlE91J1qrobfOTQYHQ4dyJpkosKYBHrh4rRnmD0z2AwEMzfURxQ0ekkXoURaD+rQh3fqXdfKqG5+yHluzxYjKkl1WHMmYBQT/aAQYMcA+BJWgC0+7pfJpzjjhHGe8+TpUmBHmJRMFvDUZ5g+8yeV3GeWoGwkgMFdIo6MwFpKhojTCNnzaoF59z8vCpbes0f69bpdRWhCC4sLQ53wJBH8A+xDEwJD/BhWZYqOVzgRzIxQbBZncAiPoEQOsvcH6glM7+oVbW8PcM1Cni+uZBWV8w9sOSKvf3SW+sXmvuWzm4PTyRSOlAf1K5ZaUDppu0c7zkUagZJOJdGDyQ26V+Kxbah/P9qfPZx9L/aBZskFiyUxvIgiicYCH8B+4jASvOrZLNYBwIBdVhgj4yBaHmS0Jyv1rNilnXfcv995H3tZt3bK4luBKskD+AZ8RgZohAl1IcSK4y+0dOsad7F7jjtF3Q9QsBA2iwU4muhK8/IEuJYDAA/0DVaVRsck0lVseeVu68Kanradf/FAvDMlOaUmE6gt8RgKIKNjQB9KswRWVW9x+mc5Ed7lD9QQomWSiSKZTRCCBGYR3EAF0uEbgQmFYgZLCkPjOjvrQJXe9IF9y0xr9rXW7jLKCsFMQC1Fasc/gXXFmZ6oOt4OiXuoOk49zp1q/h0FaCiSn6LOGpYHTCC7gchkRQGeYBdwuKC0IQ0GBKq5+d2fo4tufhZvve1VvqE86vSoLIKRK5CT0mUbg3WVgQ19IC1vcMPYhkJe7E63HoK8eAtdGjUANXh+CG8FrwU8E0BnagCQIUFkcYY4sKr95cmPorGsft373t3dNx7CdqrJoxiwg+M80KAWTlYEuvuUWKGc5Y6QTnSnm09A7rYCTKT8OWMPS+8C7t4AIoNP8A6IAVWUxti+hKzf88Q3hgpuetp577SOzQJXdkoIQiAKlFfsNuLArwMQQofg8FIfOdkbLZ7s1+htQaRWC4XpVh4EA1g9cTQTQ2ScL3+HFUQXKSiLiuu31ykV3PAdX/uJZY9PW/WZ5cQSiUZlIwHf+gQOhQx1CYEmPupWhk5wa9/vuaKMFFEwtdgOiw10E2T6ZRABdoGKWFYYgHFbkx9fuVFfdugZuvu81vbEuZWH/gXBIyiQbEfwFzCrsDWm+4G35524/9QR3ivk6VOuFwakvuIIIoAv9A4rEzYLSCF8+rnz34+vlVTc95T70z/WGa7tudXks40gk+E0jYBDmH/tBCta7EfVkZwI8Cn3NKBiZjkU5TgLYjXgGEUAXE0FYEqGqLCp80piUr/nda/L5P12tr3n5I6MgJENpEbUl86cmxzL+AR0gdJ4zmv3WHWBF+b8C0K34TCKAbjALMiGosAIVZTH29sd16uV3PS/8+FcvpbdtqzMrisNuNCLTQPlw3ko5CYTBlq5wh8NDbn8rwjWBHDcHvsGlDxFA96kEUF4UZnJIlh55bVvonJ89ad9072t6U2PaQnMBy47JP+Ank8C7w0DhJHC+Oxoegv5mDHRXzF0KwJZXpxMB+MA/0KM0ypKOG7pn9UblopvXWA/9Y4MeFgWrsjQKoiSQWeAjEigCC0JgSlc7w+23oEov4OZADt9htJgIwA8Li+/wqCph2bHwQV1L6JrfvSau+ulq86U3PtaLI4qDZcdUW+AXEmBQzDWBRhBClzgjoA4iVlHu5glgj8FRRAA+AfoH+IaH0tKo9PKWfeFL73xBuOauF7WPtzeYqA1EwwoNkk98AhVgwFqIqTe4Q03U0XL0LkN0ONUQAfjLNQCiV3YMoirJf3r5A/Wcnz7p3vHHN7VUQrMrSyMgimQWdDdwM/QAnf3e7SX9JXOFmZHRDnIQE4gA/ErPfKNXl8bEpGUrdz72rrLyZ0/Zf31qsxlVuLlQcoAIiAm6SwuQMx8d+RZ3oFsPUTNHTYGxRAC+1ghciIVlqCyNCVv2tcjfv+dl8bu3rjFeXbvDKI2pTmGBSoPUjSRQzjf9e25M+S30swVm52JUgHwAubLcSmIqKyoMC8+s/1S56BfPCtfe/ZKxa1ezXYX+gYhCZkE3IOO3AUN4yOnBtrlFNt5SlGPTECICyCFtQBYZlh0D5g888PzW0Mobn7J+8/DbupE0bCw7ljBsSEPVpVoAdhvaBmHpT9DLYiywnYWIAPxEBAoSQWkE6lK6evOf10rn3PCE/dgzmy1VEJzy4nCmvoA0gq7bGFGwxAfdnsIOt8jgGgERAKHzT54DacWVZVFxy94W5ap7XmZX3P6c9c76PTpea1aYvdaM0PlzgQ7Aj92QtNqtwLtnXUYEQOiqxYcaQSnf7LGoKj7z3i55xU1PCdfd/bK285NGo6IkDGG69rwL5gH7DZrCX6HaaQbVkXM5P5AIIBfNAgBJ9NqSgSrKf3hus/LtW9c49z+yLm2kTBuvPZclCht2JvD24i1uVHmHlZphsIgACF0PTCuOSCJUlEaF/Wkj9NM/vaWuuP5J/fFnt+phWXLKSiLkG+gkYIlwHcjuM06pDQG8oZgIIMf8A7GQlCGCTXubwlf++iXxytuf1Tdu3mditWEsQmnFHQ0ccxEcaT0UKikWtsIBu2tAoinOPbMAF2VZYYhZjiv9a+0O8dWNu43jZw5Jn3LUKKlvnxK5rjkNtmWTs7CDUAwmbHALtQ+cqDCONUhapsEYaQCEbiYCkW/wqtIoswRBve+p90Mr//sp+2+rNxlFIdmNRVXqPdBBwKvI9oNY8DELR8kHQPAZEbgQUSWoLo+yXS2p0PfvfVn82T2vpG3DtotiRAIdZX5hjcCHbmGK064TpLQsIoAAaQRFERViBap4/5pN6g9++bxm6JZdUhimcGEHAOsBtrnRpA6CEyTDigggYNpASBKhR1WB+MTbO0JX3f6cZmimXcA1AQoVtg+46XeAEjNAEAQiAIKf1VWBf6gojYiPr90RuvHeV3QZwFHpPsN2IwUszMAVXCIAgu9JgDGoLo+Jj776kfrQvzY6ZQVhYDTb7dgoLtj8YwokEMkHQMgFYJWhEpbFXzy6Dl57e4dRVhimQWkHAaSYCLVMzVw3TgRAyAGfAEBhRIG0aUl3P7rOjsd1R1XIFGjPZpEClgtIBBBwYASgpCgMr2zZqzzy9CajKKoAUH4QgQggfyAJDC8zFR9asxl2fNpkFlHLMQIRQJ6ZAmEFdjYklMee/8BWBMElLYBABJBXJOBCJKwIT765XeBagBtSqQyEQASQV4iGJNi2p1l47q0dRlimykECEUBeQRQYMEWUXly3gyXiKTMUIi2ACICQV76AkpgK6z+ud7fsaHSjKl1bTgRAyLsJ1xwn9PaG3ZZtOS75Amk9EPIMuOnf3rYfDGoakvcgIzAffQGSALub0pGQKruyLNKAEAEQ8gmYDtzYkEx/mDKMSFguohEhAiDk06SLAjSlDCGRNkVFIiuQCICQV8AtrzuuqrmOKpIPgAiAkH/IbHva/HQY0BDkOQkQiAAIBAIRAIFAIAIgEAhEAAQCgQiAQCAQARAIBCIAAoFABEAgEIgACAQCEQCBQCACIBAIRAAEAoEIgEAgEAEQCAQiAAKBQARAIBCIAAgEAhEAgUAgAiAQCEQABAKBCIBAIBABEAgEIgACgUAEQCAQiAAIBAIRAIFAIAIgEAhEAAQCgQiAQCAQARAIBCIAAoFABEAgEIgACAQCEQCBQCACIBAIRAAEAoEIgEAgAiAQCEQABAKBCIBAIBABEAgEIgACgUAEQCAQiAAIBAIRAIFAIAIgEAhEAAQCgQiAQCAQARAIBCIAAoFABEAgEIgACAQCEQCBQCACIPgCLg0BEQANQR4TgOtyoXEgAiDkHSy+80sU2YhIgmUTCxABEPILumlD7/KYVBRVRdN2aECIAAj5BMOwoao8xgqjimVbRABEAIS8gsPV/pAquYMrCpJA/kAiAEKegW95WRKEmtE9i2zXZYxGhAiAkE/7n//h237EgHKjMqKmdYfMACIAQl4hntJhUK9iZeKIaqmxKU1qABEAIZ9gmQ4oEZnNq+ljRRXJNsgZSARAyB8wfuQ3Nqdh6pjeoaG9S+yUZgEpAUQAhHzSAvipX1ISZkum9Hd13eIMQBRABEDIG2D8T7dsOGbWYHF4zyKrMaERBxABEPIJ8aQBFZUxefmCEWCbjmnZlBZABJCLRxlWt9Dp1XZfAJfGuA7HzRuqHDmmp1nfknYFgQaSCCDXVjFjAuW0HR5M0wY1LAvnfm2CVKhIekvKIFOACCB3Tn9BFKVoeWEx1bcePhpa0jB+VA/l4pMmMlMzLZNMASKAXNH+8bQSJVGgJduOcXQ4CcQ1+PpRI5X/N2uwsbc2bjtkVREB5AIFMEEAOaIAaQDtsKIYVglaYDguu+ysGerRk/pptQ0p22FAJEAE4G8VgIkMQoURm39u07S2hwQYtCR0EGRBvP7b80JH1fTV9uyP27rtZL5GIALwJRzHBVkWUmpIiuPnhHYsCoFBEzcFFFUSf3Lh3NApc4ZqzU1pO66RY5AIwKewueoaLS1UCyqKQ5Zu0sy2d2Hwnd7MNQFJFsWrV8wK/fD0aU5pWDX21qfctGFnvk4gAvANLCSAikKlsLpIsjSDVIAOIoF4Uoe4YYnfOHas/OvLF7Hls4cYYNnWvqZUpqkIOQeIAHxiA2AskEFxZVFakiXLJWdgh/kEsGqwlm/4Xr2K5GtWzlLuvnQhHDm6lxFv0eyGFi1DAsQDRADdvFK5FsBt1IohPaOhgrDoUGlrB5KAl2TZHNehLq6xCWN6Sjd/50jpmrNmOAPKYsbeuqST5BoYgQige/0Apg2FPUrcoqqitG3RguwMIsCIS11jGgzXFU48aqR834+Oli47qUYvkiVzb0PSNWzyDxABdJcVwM0ANaqKvUf3U6y06ZDLuvOIwOBku2d/HCIxVfjW8omhOy5ZAMtnDTXNtGXvb0q5Fp8LGn4igK4FV1Nt24Uew3vZheWFhslNAkInLh6BQTJlwL7GFBs0sEy+7ttzlTu+M9+eOaxKj7doVlNSp9wBIoCuhZHUoKhXWahqaA/bTOmUFNQ1vJvxD9Q2p2DaxD7Krd9dqPzw9Gl2n+KYsbc+YSd1K6M2EBUQAXQJLG7/D5g8RA4XRGyHbr3pMrPA4dpXfVMaLAbCyUePVu+9agm76PgJRoEkGLWNSSdjFtBQEQF0Nsy0CZVDe4q9R/dxtHia1NCuHn/Thr31SSgsCcsXnDo5/MvvLmTHTx6gpZO6WdeigZ3xD9Cc5BIBfJxTKin2uGcgDps1UghHVMMgX0C3aASJpAH7OBEMHVIuX3/RPPXGb81xjxhSpTU2pe3mlAHkJcwdAtiea29MT2hQNqhaGTR1qGumDPIFdCOamjVo0Qxx/uxBym2XLlCuPnWKOaA0qu2vTzroHyBtwP8E8GZOqqL85B82b5RQ1rtU11Lkke4+bYBxs8CBWq4N2AyEU5aNVe+8bKF0zpJRpuKCua/B8w8Q/EsAm3OTAEyIVRbLY5bUyMxyTMuk5KDuJgK8lbi2Mc1KyqPSpWdNU+/53mI4buoAQ+NaGjYjQZct0bQ/NYDaXHyD6eYU9K0ZKA6fNcLUmlMUEvCBbwDTiuMJA/Y3pWH4sEr5ulVz1Bu/NcuZ2L/c4FqC1aJ51ZxEBP4hgN1c3srFN+hy1ZKf/MK4ZVPCfcf0c9MtKZp1nxABbvD6xhSkDIstmDVY/tWVi8UfnjbN6V0UNvfWJ50UlR37hgAQ/8zNlQZgpA1gksgmnXQEFJcX6umWNHmg/eQfsJxMtMASmHja8WOVOy9bKJy5YLgpOo6xpzEJJnUj8gUBPMKlMWdtz6QGBT1KxOmnz3ViRZE0RgmIBHy0EPlc6LqVIYLy8gLxqhWz5N9euYQdO6m/kU4aVn1cc4kEupcA9nP5fS7rnOgPKB/cIzz9tLksElU1/DfBf0ikDKhtTgvDh1bK118wR77p/DnuiOpCbV99womnTa8LNA1TlxMA4h4uWi6/4VRTEqpH9g7NWbGIlVQXG/zf1DvEh/4B9N1gWnHCsNji2YPle65eqnxv+WS9IqLoGDbUbcom7A4C2MDlwVx/00gCpf0r1TnnLhT7j+uvpZsSJvoJyCTwH7C+YE9dAqSwLJ51wvjwr65YLJ45f4QmWLa5v4n8A11NAIhbuOR81810UwoiZQXizLMXqFNPmu6EI6qZqG+xbcsh/dKH/oGUV3aMbcmkq86bGf75hfPc+aN6pZMJw2xMekopTVvbIR3Gz7zP5WYuV+a2ngmg84UjqbIwfOE4tcfw3ubm5zeYOzd8YicbU4oaVUFUJLpoxF9TBi1xDVKSyCaO762MGV7lPPfGduv+f23UN+5oEJWQKBVGFJqyTtYAEDdw2ZL7tibLtBNPNiYgWlUkTz1ltjr77PkwsGagDrZtppuTLt0x4MM542p/PdfgNNsRlh45VLnz8kXixSdOsEpUWd/T4JkFpA50ngaASHA5m8tzXJQgLCoME1qiyLCAaOaQHrD3/V3Glhc2aru3fKoYjiOq0RAwvDKb+MA3c5apL2jgplyBIp138kTpyMn97AdWv6//49WPhMa4JpcVhUESBCAvb8cTAOJVLpdx+UVAVhQ4jgM6VzFRL6oa2VvhZODs3bDD3vziRnvP1j2CqEqSElbI6eSfKcsglTYhmTKhV59i8epzZwhza/paD65+X3thw6eKpIhCUUQFzgNkGnQwASBu5zKEywWBMjT5QtFa0iDIotBn0iChemQfa9c7H9sfvrrF3bttjygoEgtFQ4xOFn+RQXOLDpIksBmT+8lTx/WWVr/8ofHgU5uEtR/VSgVRhRVEFCCTrmMJAHEhlwIuZwRtcBzTzoQMRUWSBs0cLvYY2Qe2v7HV+PD1rax+d72kREOCrMq0inxEAugfqG1MgspJetmC4crUMT2dh9dsNv/3mc3C7rqEUFIQEkKKSNpAFh3VEuxM8MKDgbQ1kQiSjUnG+KIaubRGXXDRMVLN0ZOMaEE4k0iE15JRDoGPFnXGP2DDPj5nkQJVvOjUqcp9Vy1lp8wdZtmGbdY2pT9T9ogAOg6XclnJJR7UwXJMCxL1cZCiijB22ZTQ3BWLxVFzR5uyJOifEQHBP3DRP2DBnvoE9O9XIv5gxUzltgvnurNG9NDrGpKZtuUBTSu2uoMAEHdzGcHl78FVM/npkjIypkGkLCZOOnmGPH/VUmHEzBGGwMBKN6ccsjP9ZRYgGls0aIjrMGNyf+WOyxdJ15x5hDm4okDbV5ewU1xbCJgCt727CADxKZfjuSzg8naQF5eZNiDdkmaFvcrkySfPVOeet8gZMGGAYacNE7sRZ1qSk2ngH4WAG/7oH9AcR1x+zJjwnZwIVh07xoiKzMAsQz1DBIGYr12t/UapEx/iGS4TuZzD5SdcqoN4vOCi0hOeTVk+uFqpGFhl796ww972+tb0jvc+kV2RSaFYmOxNH/kHsOx4L7aLKw5LF585XVg4bZDzwJMbtSfe3C4kNUMuiYVznQc2dacG8EVgBeFQLjdBwNNoMHRo6JbYa9wAZcZZ89VZZ86zew7qoestaUvD/gNUx+orUw7rC/Y3pYShg8ula8+fo9564Vx36qBKrbE5ZTUnde/7cvPtve8HDeA/gY7By7ncy+VWLkuDuqgcy4ZUcxIEURD6Txum9hzZ1/7o9S3WR//+wK7bWS9KqizJqkSmgU/mC8uOG5o1TBRic6b1V2tG9HD++fxW48E1m+2te5ul4sKQGJLFXHtrrW7i29U3A2H9wNFc5nJ5L+gLK9WYAFdg4rAF49T5FxwtT1o2xYgWR3UtrrnYsZhIwDeWXCYvAK89Z7IgnLJsXOieq48SVx491ggxZu1vTLkGlh3nxtt5B9rQv7O7rgZ7gUsNl1UQ4LAhwjYtSDUlgEmCMGLR+PCRKxdL45ZMMBRFMjhB2NSq3GdmHPoHGhJQXBKRvnPG1PAvL57vLp3Y10wlDKuem3FeApGvqeDdtnyz1J17g8td4PUavILLxUG1kFEjwBwB27RZqCgqjjl2stivZqC17fWt1rY3tlqpxqSiFoaZJIlUuOIDoKOwJaGDKDIYMbxKvmlopTN/7W579d9fN6w9CdmJoorn28dvU9s+P1wOir0Gv8tlLJfVQV5YuLkzocPmJMSqi6WaE6cpc89dyIbNGG64pm2jpoA+BHIU+sMswHyOxuY0tGimsHj6APlH3z+2tmz04GuNxpbtPjXf0MT+d64RwAFgu7ElXBZCG8IYubeyvL+wKzHmEJQOrFSOOGOeMu+8Rc7AmkG6Y1hWujn9ue8ldLP2ZjnQVN8MTkW5qh0x5w4xER/ILAujWn7rjPWrtprUfrwefE3WP3BJ0P0DqBFo2OGmKckqh/WUkQhmnjHP7TWsp6bF0xZ+DZ2JRAQ+mCuchD375fjkaSUNJ5/qii3Nl3N2GM2/9LhPHnEHl/vbbO741RfD5TYug7jcGfQTxiOCNBiawXpNGCjPWbFYnnXaPLuqb4XB/9/WMSZNJOAHxkYHATQdfRxYhUUgJOJbQRCO4V+Zk9VguxO/5NIcFAI4ALyPEHsNjOPybODXFz/t0T9g247Yf+pgZfaKRdL0/5ppl1aXmKmGpG2kiQi62zEgxuNgx2Kwf9V3AEQRmJYx117kMh68Yrjmbngy7Mx10+H8oJAjQ485A/O5fJ3Lx0HXCLzQYYqvNkEYPHe0Mm/lEnHy16aasYKInqpPOBQ67F6ILS2QqpkMqXE1IDU0gCtmEoUwqoXFcIPBa5TTVXGCJJeLDveHhRwb+4ezA/w9Li3BPm3AyyqsT4AYkoWRS2tC8y44Shy3tMYIhxQ93ZR0TN2k9mTdpQm0NEPtuedDavQYkOrr/zOpqy67Icdw+UcXPM2ZXNbnCwEg8Irv/+YyjMvvgr/YACy+0ZN1cQiXxKTxx09VZ5+3iA2fPcrgCoKV5ESQqTokdO20pNNglRRBfMES77C3/o9WtpHLcVxO5PJBJz3GCvDyaCCfCOAA9mbZbzKX5wO/4AQGZlqHVHOKFVaXKFO+MSs0//wl7uDJgw2wbENrSbvY1JQ0gi6CIIC8rw4S02aCMWAQSI2fmQJfxKNcRoHny6rroN+OvrEZXH7d7rcRgKnAvOd5XE6FNjRCyFl1wHUBnYHYkKSkX4U87bQ56qxvLmD9xvTVzIRupVpSme7G5CzsArhORupOOwusiioQk8mv+k7MF7gza75eBe3zY93HBcOPr3YIjwVoOh4AL2x4deD9A1lgMpGhmax6ZG95xjcXqHPPXej0GdFbs1K6iaXJBziD0ImKAN/0iSnjID5zNkj79x6qwAsjBHipznDwGuZgqfxH4DkQDwb8nluyfgW8j2N/Rz2/FLD5QGP4+qxv4A7wOhMF+xDi9j9ecy5KotB7wgClYkgPe9e6j6wPXt1i1H6yX2aSyJSQAkykS006RyljoHzaAM1LjwVlz26IvPUG2CWlh7qEwACvYc4z2UN4dFb6cFGzhCBlNzp21VqX/ZkOhxTQacGWSF/L+gfw4pIjgr0GWab9GJoFgiSIA2eNFPvUDHS2v/GBsfWVzdC4p0EWVVlAIqBio46ww77wH6YJZlUVNB53AsReeQEcXQdXVVt7EwkeWu9BN5XHCwGfLCyMmJ5Vmz7Nh9XpWFwjaEygk0oYMm+0cuT5S6SaYyfb4UgIW5hnQofeKibb4HAULviyjrucgOX9+0HvPxBqz1kFDJ2xdm7kagh5MnHoOBmVNQ9S+aCWYuiQmwZMDMviqKNq5AUXLhXGLp5gK5KkpxoTjk0XaB4O0Ibf+ZXDzjWBxJRp4MoylhISAfhw8tBBiCmbD+fLm7Z173ajcGlMGr9ssnzkqqOEkXNHm2Dblp3SMLUdiAlar2DBQXruM8sENxSG9IjRIDa3ZEKFRAD+AyZlYEoxFnCsD/y7ze5tI+WFDgt7lcqTls9S5p+3SOo1ut8ew3LirkOJRB0y1FwDsAsKoHnJ0ZwqbK9OwOd5GUIezxcWcGATktOg4xI0fG8aGIk0Vh6yfhMGgDxxyJ2a5fSSXPcx2r6twr5Dja9Uux/SI0dB7YoLQEgkfH8lsUBzCn8Er235jflCAnjiO0kN6tKmtNNmcZHBMvCKrdbScjgo9hx6Rwkg8o2fmDEbjP4DuSnQ5GtTgAjAQyN4fQkxU+vRvOABLhrX/F9NscwikBk8y8+qSfzTRRDkjkztw45Wja2mgStKsPfiK7hJUAhCPE4EkCPYBl7xBjZ5eD/obzYqQEMDJ4E1SQaYxZ7NZH8avIwzvO59Jy2Jz+HD1mpZYrwZzF69IT5vATDb9q0pQATw5cA2T5iZdS54hReBBJ/83QpXBd7QGOzja7RA8Nzc4GWiYXfZkeAVseyhJdEGAuBwBRGYrkNi8jRP3fKpM5AI4CBzCF6uNpoFvwzg+8Nug/twASAJPJng6gDf9uHPr9MEeEUs47I+kuY8Xg+YivtRm8wsTgAONwH0Pv24RtDiSxIgAjg0sLDowuxp+M8AvS+MfGSq0kJ8XW63AN7RGajsS7MCarM+Eixi+R/wejbmG/DGna1t2lzpFFjFJbD30ivBrKrOFA4RAeQu0DF2bFaC4B/AkNanB1SdEr4SNhoM6rkWIH31QYU9GL6V9RH8Nc/mv+1zjhEBfvLbxaXghCMgJhO+iwgQAbQdqAVgWjFeZtKUw+/jc/fHYbFgI9/867kW8B++gIPZwidk/STP5Mm8H9775Go/Mw1oOu7EjBbADIMIICC4NesfQD+BnYPP/9Tn1ilkQoHwLieAWv5uoq0zV7HtFda1H8nlpQDPNZpLh93/X0iloHnhDEhOmppJFPKTL4AIoH2oBy9SMBFyry3Z/+ljH+HrEk0A9AUIrE0VAtiWejZ4IdQg5hBgc8/G9ryA1GSCWVkFTjTGjwubCCBgwBtZsS0ZZtRtyYHnffLLCADV/hhfEZs4AaQcyBYKtQkH+t9hs8ogtW9/oL0vIDY3Q3zuAtCHDM04B4kAggnMqcf6gh/63D/w3MEWhOECtDgsoxEcRpkQ+hSxWSVGDK7KcT8JYl2H+Dkw/VpVoXn+4ky/ACKA4AK9PD8Br77gHh8+H3ry7/2qL6IfQONb+M9xBnstzyxoxzhg/ztsc4Vt3HM1dHhXR72QKyvghEIZn8BXdBAmAggQarP+Acyvf9VHz/WrrO/iK4/vSDYi0Oh4eQHtBCYT4UUuQ7j8Fg5Lqeg2vAGHceHmV242LQVWeSWYPXt5IUEfOAOJADofWGGHPdxPgu5vW74PWtFLHncobnzLPUj3i7YD+zR+E7yEqodyZO4ugw4cAiwK0oYPgZa5CzJagB+6BhEBdB3+kl386B/Qu+kZrs+aAIcEJgO9pTFIOp8VCXUU0En6DfB6Nb7g4/nC+/06NrQpCCDVNWVaiBt9+4Gg60QAeYZ01j+A6vADXfy7/wxeq/RWw4JO7ST+Gpe5XBaC1/rab6r/ZZ3z0i5e8+SlBfsgHYAIoHuAZbZ4k9EsLq93we/7hMsqny6ONeDlUSyHNubadxIw3n8WdFIf/kw0IBqF1PiJmRZiRAD5jZfBu7PgG1kbuTOA+f54QYrf2579KWsiYQ5Bd5Uf4xxgPkenJTMxywK7qBgS06b7Ii2YCMAfQKfYCC7XQof63TIxbLwc5Z0cGQdMkUMn5YEr3rqyFwNqZXjV77ud+lvQ82/bICbiFAUgfA4YLvsRlwHgOaAS7Xy9n4MXfcjFZh7oK0GH5egOGotDARN9poBX25BXIALwH1ANvQi8RKKV2cXZ2uRxzDHFS1CwXPfi7EbKZezPjgUWXf0AWtmTrw2ozdr7WNC0Nx8Xm0T7zbfAk/vurOAGmJXd2KgeV3ApBq9ZCTqtMO/+pSxZ7A/gWGD+wnVcbgKv3uJMLtO4lBzm6+F4Yaej30Ce3CRNBJDb+BDa0I8uwMDA+Z+zUpolgalZPwc6EMu5fNG1jmkM2IoHL4HBuyKf4PImdJaXP8fw/wUYADaMWBQze6IuAAAAAElFTkSuQmCC;fontFamily=Architects Daughter;fontSource=https%3A%2F%2Ffonts.googleapis.com%2Fcss%3Ffamily%3DArchitects%2BDaughter;fontSize=29;fontStyle=1;labelPosition=center;align=center;fontColor=#FFFFFF;" parent="IQo0LNaKbfwx1rOGdzC5-1" vertex="1">
          <mxGeometry x="10" y="136" width="106" height="106" as="geometry" />
        </mxCell>
        <mxCell id="IQo0LNaKbfwx1rOGdzC5-3" value="&lt;span style=&quot;font-size: 14px;&quot;&gt;&lt;b&gt;Task&lt;/b&gt;&lt;/span&gt;" style="sketch=0;outlineConnect=0;fontColor=#232F3E;gradientColor=none;fillColor=#ED7100;strokeColor=none;dashed=0;verticalLabelPosition=bottom;verticalAlign=top;align=center;html=1;fontSize=12;fontStyle=0;aspect=fixed;pointerEvents=1;shape=mxgraph.aws4.ecs_task;hachureGap=4;jiggle=2;curveFitting=1;fontFamily=Architects Daughter;fontSource=https%3A%2F%2Ffonts.googleapis.com%2Fcss%3Ffamily%3DArchitects%2BDaughter;" parent="IQo0LNaKbfwx1rOGdzC5-1" vertex="1">
          <mxGeometry x="550" y="312" width="68.61" height="89" as="geometry" />
        </mxCell>
        <mxCell id="IQo0LNaKbfwx1rOGdzC5-4" style="edgeStyle=orthogonalEdgeStyle;rounded=0;orthogonalLoop=1;jettySize=auto;html=1;exitX=0.5;exitY=1;exitDx=0;exitDy=0;exitPerimeter=0;sketch=1;curveFitting=1;jiggle=2;" parent="IQo0LNaKbfwx1rOGdzC5-1" source="IQo0LNaKbfwx1rOGdzC5-10" target="IQo0LNaKbfwx1rOGdzC5-3" edge="1">
          <mxGeometry relative="1" as="geometry" />
        </mxCell>
        <mxCell id="IQo0LNaKbfwx1rOGdzC5-5" style="edgeStyle=orthogonalEdgeStyle;rounded=0;orthogonalLoop=1;jettySize=auto;html=1;exitX=0.5;exitY=1;exitDx=0;exitDy=0;exitPerimeter=0;sketch=1;curveFitting=1;jiggle=2;" parent="IQo0LNaKbfwx1rOGdzC5-1" source="IQo0LNaKbfwx1rOGdzC5-10" target="IQo0LNaKbfwx1rOGdzC5-7" edge="1">
          <mxGeometry relative="1" as="geometry" />
        </mxCell>
        <mxCell id="IQo0LNaKbfwx1rOGdzC5-6" style="edgeStyle=orthogonalEdgeStyle;rounded=0;orthogonalLoop=1;jettySize=auto;html=1;exitX=0.5;exitY=1;exitDx=0;exitDy=0;exitPerimeter=0;sketch=1;curveFitting=1;jiggle=2;" parent="IQo0LNaKbfwx1rOGdzC5-1" source="IQo0LNaKbfwx1rOGdzC5-10" target="IQo0LNaKbfwx1rOGdzC5-8" edge="1">
          <mxGeometry relative="1" as="geometry" />
        </mxCell>
        <mxCell id="IQo0LNaKbfwx1rOGdzC5-7" value="&lt;span style=&quot;font-size: 14px;&quot;&gt;&lt;b&gt;Task&lt;/b&gt;&lt;/span&gt;" style="sketch=0;outlineConnect=0;fontColor=#232F3E;gradientColor=none;fillColor=#ED7100;strokeColor=none;dashed=0;verticalLabelPosition=bottom;verticalAlign=top;align=center;html=1;fontSize=12;fontStyle=0;aspect=fixed;pointerEvents=1;shape=mxgraph.aws4.ecs_task;hachureGap=4;jiggle=2;curveFitting=1;fontFamily=Architects Daughter;fontSource=https%3A%2F%2Ffonts.googleapis.com%2Fcss%3Ffamily%3DArchitects%2BDaughter;" parent="IQo0LNaKbfwx1rOGdzC5-1" vertex="1">
          <mxGeometry x="640" y="312" width="68.61" height="89" as="geometry" />
        </mxCell>
        <mxCell id="IQo0LNaKbfwx1rOGdzC5-8" value="&lt;span style=&quot;font-size: 14px;&quot;&gt;&lt;b&gt;Task&lt;/b&gt;&lt;/span&gt;" style="sketch=0;outlineConnect=0;fontColor=#232F3E;gradientColor=none;fillColor=#ED7100;strokeColor=none;dashed=0;verticalLabelPosition=bottom;verticalAlign=top;align=center;html=1;fontSize=12;fontStyle=0;aspect=fixed;pointerEvents=1;shape=mxgraph.aws4.ecs_task;hachureGap=4;jiggle=2;curveFitting=1;fontFamily=Architects Daughter;fontSource=https%3A%2F%2Ffonts.googleapis.com%2Fcss%3Ffamily%3DArchitects%2BDaughter;" parent="IQo0LNaKbfwx1rOGdzC5-1" vertex="1">
          <mxGeometry x="730" y="312" width="68.61" height="89" as="geometry" />
        </mxCell>
        <mxCell id="IQo0LNaKbfwx1rOGdzC5-9" value="" style="edgeStyle=orthogonalEdgeStyle;rounded=0;orthogonalLoop=1;jettySize=auto;html=1;" parent="IQo0LNaKbfwx1rOGdzC5-1" source="IQo0LNaKbfwx1rOGdzC5-10" target="IQo0LNaKbfwx1rOGdzC5-7" edge="1">
          <mxGeometry relative="1" as="geometry" />
        </mxCell>
        <mxCell id="IQo0LNaKbfwx1rOGdzC5-10" value="&lt;font size=&quot;1&quot; style=&quot;&quot;&gt;&lt;b style=&quot;font-size: 18px;&quot;&gt;ECS&lt;/b&gt;&lt;/font&gt;" style="rounded=1;whiteSpace=wrap;html=1;sketch=0;hachureGap=4;jiggle=2;curveFitting=1;fontFamily=Architects Daughter;fontSource=https%3A%2F%2Ffonts.googleapis.com%2Fcss%3Ffamily%3DArchitects%2BDaughter;fontSize=12;points=[[0,0,0],[0.25,0,0],[0.5,0,0],[0.75,0,0],[1,0,0],[0,1,0],[0.25,1,0],[0.5,1,0],[0.75,1,0],[1,1,0],[0,0.25,0],[0,0.5,0],[0,0.75,0],[1,0.25,0],[1,0.5,0],[1,0.75,0]];outlineConnect=0;fillColor=#ffe6cc;strokeColor=#d79b00;dashed=0;verticalLabelPosition=middle;verticalAlign=middle;fontStyle=0;aspect=fixed;shape=mxgraph.aws4.resourceIcon;resIcon=mxgraph.aws4.ecs;labelPosition=center;align=center;" parent="IQo0LNaKbfwx1rOGdzC5-1" vertex="1">
          <mxGeometry x="570" y="150" width="160" height="80" as="geometry" />
        </mxCell>
        <mxCell id="lZ3R_MHFYPP_TL1Qeg0f-0" value="&lt;b style=&quot;font-size: 14px;&quot;&gt;EventBridge&lt;/b&gt;" style="points=[[0,0,0],[0.25,0,0],[0.5,0,0],[0.75,0,0],[1,0,0],[0,1,0],[0.25,1,0],[0.5,1,0],[0.75,1,0],[1,1,0],[0,0.25,0],[0,0.5,0],[0,0.75,0],[1,0.25,0],[1,0.5,0],[1,0.75,0]];outlineConnect=0;fillColor=#e1d5e7;strokeColor=#9673a6;dashed=0;verticalLabelPosition=bottom;verticalAlign=top;align=left;html=1;fontSize=12;fontStyle=0;aspect=fixed;shape=mxgraph.aws4.resourceIcon;resIcon=mxgraph.aws4.eventbridge;hachureGap=4;fontFamily=Architects Daughter;fontSource=https%3A%2F%2Ffonts.googleapis.com%2Fcss%3Ffamily%3DArchitects%2BDaughter;" vertex="1" parent="IQo0LNaKbfwx1rOGdzC5-1">
          <mxGeometry x="360" y="145" width="90" height="90" as="geometry" />
        </mxCell>
        <mxCell id="lZ3R_MHFYPP_TL1Qeg0f-1" style="edgeStyle=orthogonalEdgeStyle;rounded=0;orthogonalLoop=1;jettySize=auto;html=1;exitX=0;exitY=0.5;exitDx=0;exitDy=0;exitPerimeter=0;entryX=1;entryY=0.5;entryDx=0;entryDy=0;entryPerimeter=0;startArrow=classic;startFill=1;sketch=1;curveFitting=1;jiggle=2;" edge="1" parent="IQo0LNaKbfwx1rOGdzC5-1" source="IQo0LNaKbfwx1rOGdzC5-10" target="lZ3R_MHFYPP_TL1Qeg0f-0">
          <mxGeometry relative="1" as="geometry" />
        </mxCell>
        <mxCell id="lZ3R_MHFYPP_TL1Qeg0f-3" value="Generate&lt;br&gt;Event" style="edgeLabel;html=1;align=center;verticalAlign=middle;resizable=0;points=[];" connectable="0" vertex="1" parent="lZ3R_MHFYPP_TL1Qeg0f-1">
          <mxGeometry x="0.0167" relative="1" as="geometry">
            <mxPoint as="offset" />
          </mxGeometry>
        </mxCell>
        <mxCell id="lZ3R_MHFYPP_TL1Qeg0f-6" style="edgeStyle=orthogonalEdgeStyle;rounded=0;orthogonalLoop=1;jettySize=auto;html=1;exitX=0;exitY=0.5;exitDx=0;exitDy=0;exitPerimeter=0;sketch=1;curveFitting=1;jiggle=2;" edge="1" parent="IQo0LNaKbfwx1rOGdzC5-1" source="lZ3R_MHFYPP_TL1Qeg0f-4" target="IQo0LNaKbfwx1rOGdzC5-2">
          <mxGeometry relative="1" as="geometry" />
        </mxCell>
        <mxCell id="lZ3R_MHFYPP_TL1Qeg0f-8" value="Send&lt;br&gt;Results" style="edgeLabel;html=1;align=center;verticalAlign=middle;resizable=0;points=[];" connectable="0" vertex="1" parent="lZ3R_MHFYPP_TL1Qeg0f-6">
          <mxGeometry x="-0.0297" y="1" relative="1" as="geometry">
            <mxPoint as="offset" />
          </mxGeometry>
        </mxCell>
        <mxCell id="lZ3R_MHFYPP_TL1Qeg0f-4" value="" style="sketch=0;points=[[0,0,0],[0.25,0,0],[0.5,0,0],[0.75,0,0],[1,0,0],[0,1,0],[0.25,1,0],[0.5,1,0],[0.75,1,0],[1,1,0],[0,0.25,0],[0,0.5,0],[0,0.75,0],[1,0.25,0],[1,0.5,0],[1,0.75,0]];outlineConnect=0;fontColor=#232F3E;fillColor=#ED7100;strokeColor=#ffffff;dashed=0;verticalLabelPosition=bottom;verticalAlign=top;align=center;html=1;fontSize=12;fontStyle=0;aspect=fixed;shape=mxgraph.aws4.resourceIcon;resIcon=mxgraph.aws4.lambda;" vertex="1" parent="IQo0LNaKbfwx1rOGdzC5-1">
          <mxGeometry x="200" y="150" width="78" height="78" as="geometry" />
        </mxCell>
        <mxCell id="lZ3R_MHFYPP_TL1Qeg0f-5" style="edgeStyle=orthogonalEdgeStyle;rounded=0;orthogonalLoop=1;jettySize=auto;html=1;exitX=0;exitY=0.5;exitDx=0;exitDy=0;exitPerimeter=0;entryX=1;entryY=0.5;entryDx=0;entryDy=0;entryPerimeter=0;sketch=1;curveFitting=1;jiggle=2;" edge="1" parent="IQo0LNaKbfwx1rOGdzC5-1" source="lZ3R_MHFYPP_TL1Qeg0f-0" target="lZ3R_MHFYPP_TL1Qeg0f-4">
          <mxGeometry relative="1" as="geometry" />
        </mxCell>
        <mxCell id="lZ3R_MHFYPP_TL1Qeg0f-7" value="Trigger&lt;br&gt;Function" style="edgeLabel;html=1;align=center;verticalAlign=middle;resizable=0;points=[];" connectable="0" vertex="1" parent="lZ3R_MHFYPP_TL1Qeg0f-5">
          <mxGeometry x="-0.0328" y="2" relative="1" as="geometry">
            <mxPoint as="offset" />
          </mxGeometry>
        </mxCell>
      </root>
    </mxGraphModel>
  </diagram>
  <diagram name="ECS EventBridge ECS" id="W1A3SuU3qlOBNXJr_rAA">
    <mxGraphModel grid="1" page="1" gridSize="10" guides="1" tooltips="1" connect="1" arrows="1" fold="1" pageScale="1" pageWidth="850" pageHeight="1100" math="0" shadow="0">
      <root>
        <mxCell id="rP7-Qt_0I5Ee_mu3qUXM-0" />
        <mxCell id="rP7-Qt_0I5Ee_mu3qUXM-1" parent="rP7-Qt_0I5Ee_mu3qUXM-0" />
        <mxCell id="rP7-Qt_0I5Ee_mu3qUXM-2" value="NPM" style="shape=image;verticalLabelPosition=middle;labelBackgroundColor=none;verticalAlign=middle;aspect=fixed;imageAspect=0;image=data:image/png,iVBORw0KGgoAAAANSUhEUgAAAQAAAAEACAYAAABccqhmAAAAGXRFWHRTb2Z0d2FyZQBBZG9iZSBJbWFnZVJlYWR5ccllPAAAAyRpVFh0WE1MOmNvbS5hZG9iZS54bXAAAAAAADw/eHBhY2tldCBiZWdpbj0i77u/IiBpZD0iVzVNME1wQ2VoaUh6cmVTek5UY3prYzlkIj8+IDx4OnhtcG1ldGEgeG1sbnM6eD0iYWRvYmU6bnM6bWV0YS8iIHg6eG1wdGs9IkFkb2JlIFhNUCBDb3JlIDUuMy1jMDExIDY2LjE0NTY2MSwgMjAxMi8wMi8wNi0xNDo1NjoyNyAgICAgICAgIj4gPHJkZjpSREYgeG1sbnM6cmRmPSJodHRwOi8vd3d3LnczLm9yZy8xOTk5LzAyLzIyLXJkZi1zeW50YXgtbnMjIj4gPHJkZjpEZXNjcmlwdGlvbiByZGY6YWJvdXQ9IiIgeG1sbnM6eG1wPSJodHRwOi8vbnMuYWRvYmUuY29tL3hhcC8xLjAvIiB4bWxuczp4bXBNTT0iaHR0cDovL25zLmFkb2JlLmNvbS94YXAvMS4wL21tLyIgeG1sbnM6c3RSZWY9Imh0dHA6Ly9ucy5hZG9iZS5jb20veGFwLzEuMC9zVHlwZS9SZXNvdXJjZVJlZiMiIHhtcDpDcmVhdG9yVG9vbD0iQWRvYmUgUGhvdG9zaG9wIENTNiAoTWFjaW50b3NoKSIgeG1wTU06SW5zdGFuY2VJRD0ieG1wLmlpZDoyM0VDOTlFRjJDNEExMUU3QjlGRENERkEwODdGN0ZCOCIgeG1wTU06RG9jdW1lbnRJRD0ieG1wLmRpZDoyM0VDOTlGMDJDNEExMUU3QjlGRENERkEwODdGN0ZCOCI+IDx4bXBNTTpEZXJpdmVkRnJvbSBzdFJlZjppbnN0YW5jZUlEPSJ4bXAuaWlkOjIzRUM5OUVEMkM0QTExRTdCOUZEQ0RGQTA4N0Y3RkI4IiBzdFJlZjpkb2N1bWVudElEPSJ4bXAuZGlkOjIzRUM5OUVFMkM0QTExRTdCOUZEQ0RGQTA4N0Y3RkI4Ii8+IDwvcmRmOkRlc2NyaXB0aW9uPiA8L3JkZjpSREY+IDwveDp4bXBtZXRhPiA8P3hwYWNrZXQgZW5kPSJyIj8+kz26BwAAMERJREFUeNrsfQecXVW1/tqn3ja9pvfeJ5X0kEooQeAvedIRiCEgghQRVERAH1VBkKcgWICnICqKEAi9IyFAElIgEJKQNn1uO/3897rnhp/wIJnJtHPPXV9+azLJzNw5d5dvr76Z67pwKHz3nTroDBj8VxcJAF8vcEDlf1sudCdiXGZzmc5lApdRXCrwMbNfZ1nZxeUDLu9yeYvL61xqwUdwJQmYaUKPm28Aefen4EQiQMgvFD34+1Z9n0RDBSO4XMxlGZfKL/n6F3fPyKwsy/67kcs7XP7M5WEu9QEeK4XLRC5HZAmymouYlZ1ctnF5M0uO+2lp+R/5TAB44t/M5bzsyX64KOEyLys3cvnf7OtuDdBYlWbH6WwuQ1rx/WkuT3D5S/bvRtpq/oSQp+/7uKwav6Kdm/+LKOByLpcNXFZzGRuAscKN/yGXn7Zy8yPCXE7g8kCWCK/iUkzbjQjAD7iEy9+z6mtnQeayiMvbXP7AZWAOjhNu4ge5/E9WyzlclHO5jstHXL7NRaVtRwTwGQ541rrI/3cbl1u68O2hbXwql/eyv7tHjqwL3KR/5fJfHfiaSCK/4PI+l2Np6xEBZOBmhXX+r7qSy3e66W1Gs797C5drsv4HPwM1pMWd9NqoDT3G5RnwHIqEfCUAme/6Ohtgnc4g3LkMsITLDT4Yb/QR/ChrU6OvoNOcsMxxQEjED4dZf9aJm/8/cSR4EYO7s2YCId8IAH+5ySXudOqDDOJyn8/GvYrLr8FzkJ3R4ZvftsEqKobklOkgJhLgCmJrf/QoLld08RJAR+xmLt8FL8xIyBcCOKD6q/wDY53mB0AHVLVPx38Al/vByyOY32Gv6iCjCtAyfxEY1T1A0NKt/ckfd9M4lIEXOsX8gUW0LfPIB4APgBmBmAXYCQ9zNJflOTAP47is4fIil1ntVwEYiE2NoA3sy7WAI0BqbmrNT6GzcnI3j8Nw8MKnz3IZRtszDwggxp9go8Fgj8WgWOhwLeCSHJuPWVkSeCS7GdoxswII3L6S6uuA6Xrm34fA+T4aB0yqWg9e1IDymIOuAeCuf5lrqfVcc5U6zhl4MniOplzEiVw2gZdD0PuwxzYRh+ZFS0EbPgJY+qBmwPHgpff6CZhLgXkD28FL1SYEkQDwxA/zp3hPZ/DvNINYxxHANwMwP6iWY379TVk7uW2Tm0xyE2A8NB7zNZAaGw6mBRzl4zHAgqxbwSu8mk9bNmAEcAB48mNFoML/dtr/cuO5LAzIHKFn/FLwUpcxhFjQFjNAjJvgFBWBzQUrBL8EWAC1NAfGYWLWT4I5BENp6waMADAPYIfJMnkBavu1gCCeFJhJdw14dQbnZVXkQ0LkJ3+yZjKkxk/MfP4lGNEeM6MbgFmE72e1ghht4YAQQIRv+g/4AfV4Usjkz7aTA44P8Jz1BS8/H51kJxxyDhnLhAFb5i4ANxQCZltf/I5ZOTgGYtYvgPUFZ9M2DgABoNqPJ3+Cf2K176WGZE2AoAPDZFhu+2/wvOZfzQHpNKRHjYH47CMzfoEvYHYOjwH6B+7lshZy1+FLBPCfZsBevvs/MBgUi4cdEpyZZ6phDXhx8xezn/9fArAsEAwDas9dCdrgoSA2N39RowjCGGBtAVYv9qdtnaMEgA8jchJYq7GMJnCYvoApeTqXs7In4d+zdv3nzACWToErCGCVVQBz7ANfGZA9RYMCrF7EgqtruRTS9s4xAnCzvoBdXAt4X2eZiMBhaAED8nxOsdkJphbf9bmx4JufaTrE53BNWWCeL4Cx6gBuFIya/CDrIzmZtngOEcABEkAPz1tcC8DP20gCRdD6rjVBBm6CldnT8L/BKz4CgWsB6eEjoGnxsZwMNKwZ6AfBbQuHpg22Z3vrUD4SIgCfIcKfqoGbAE8l2WcdJ1sJLCutpmn9DBgqvBy8sNlKZlkFgmlB3elng1lVjWnCcitShHMdE7M+knsD4u8IPgEcqBB8m2sBO6w2+QJ6AuWOfxlKMyYBY9uYrp3DiYA1nrQcrPKKHsw08mUMMFyI5deYTBWlJeFjAjjwYBgafE9rky+A+s0dHBWcBH4jxls2N86fPdKYv0AqbNzH7QUH3Px4/7g+rslqRCfScvB5U1A0BbaYDLZzKWpdpWB/mtJWYWhF2lj7uNDrwgdhoB0G2ykGrSvasvnJP4AVl69CfuSM5CYBoHfK5Lt+rQ5gt84XEKK93ToUu2boXStcfYoz1vmWO8F8BaqNQj7aRaDzcc4bjQArINeB15SlmgjAZ8BFiP0CNhsMdpkABcIhC4XStLVbB4ef94VgQQQs+QG3Wl3u1MDl7hh9PZSZMU4EhWDm03BgWzaMmHwP8qwtmZALD4gn/98SQiYycIhy4d60tdtGsCL/2Duj/tvK/7i9Qsucie4P3THadiiwikBzY1kiyAONAPMh8PKTzfnkH8iJGBCmCNdzG2A9dg8++BNX0bY+PCKIcCOrF1f/XXCV290+6vHOJPdWd7jWxEJmEVesIu2t0MgdDMj6B57mMibob7Yzk0AwxXRSdlPiyYxmPN6suxe8LK29rVdXAUq4GvB8imXMgImqm9EGvoQLDNrO7TEL0Ini8AnThXqQhB+7g4U/2T3t09kuYznbJZZBStBBZimuN+TBlVILwLvQBa/ZxdZy9UQAhwYm4mCJ6ingJWB8Vbw1BV5dO14c+TfwusG6h1JVUPvH3ICxnAAwN8B0adN2hjbAMvqwxcUUt4Mift8d6v7drTa+yXa6X2O75BLQRA1kbjiI+RA5OB28hik/4XI7mQBfDsw4w641WJ+Nteqz4eDJFpisg0U7mJSxLsu0eFGGerCFiaHAnVwT/XuCQYjRZu1sInD59i7lRMA1AvYORNVz3VHKSe4U86/Qz+BbPxM6RB+CG3wawIMNG5RiItEyIoDPA8Mnz4PXt67gMF9jNHgXZWzkctpXPReqqOgE/NDwcgMiAgApAZ1PBAL/WAYm9ABNeMktUs9zRgtnO+Otl7hWEAPLRSKQ8iN0OCSrsf4L2tu1OSAEgP3s8Qbc6R30PIOyNtdXXpSB14mlXDQFvMpBkfZol5oG1WCwYjCkf0I51wYmsnPcGvNNqLCizHKKwMgHbQBxVFZrRZOgNF8J4AAbdsaNt+h9xQaQD8EXyntxIeL9AVu5BvBcirSA7iACVPt7gM7tOEN+2K1Uljs1zmXuWGMrFFmoDWAOQRfe+NxdQLP3QvDChningpRPBICs9w/o/NRbvNUHu+FeD1/S5edNjUHK8TQBIoGuBSYSqVkicDGHwOmtHOdMhmvcUfonELMKMzkEeRE6xGjXneD5spbmCwHgXfdddXUTavnfzxLBaQf+E3MDNBcdgkImvqiQU7DbgETQCzQhAYJ0i9tfPdGZBD93h+u1EMZkIsiTZCL0Yz3O5dGsKRtYAjgGvNBIV6M66x94jctU/A88+bfxtbXF6JBW4oR2mgYF/MTHrMJ9IElXu0OUrzuTrN/CYC0JSoYI1I648cH/+Bp40QJsxFIURAK4qpufeRqX17k8yBfdAFQP1mpCxuaUyBTwCRHY0BPSwgeghi52hivHO1PMP0N/jTHAYiM3D8qPcV9hIxa81encIBHAMdkN6AdgA8gNEQGurrVBxSxBWWCORJqAL0gAF1Yx1wh6ctNgA0RCq5yRyjecScY/oI8RBtsuBh2kTA5BoIHXuf06e2BNDwIB+O2+PQwC/IRrAZteScGSRldwqopCIIj8qHFJF/ALGZSByQrBFJ53i9VvOmPEU93J5nPQQ4tmcgj0TJ5BwGcLTdZXuDwMPrvWrC0EMAq8jrO+W2CSwAZEROFvf3zuw5OffnGbVRYLOUWFYWCocxIP+GKOZP6xGgxuFOvSY26ZeoYzTrzIHWushXKjAEynGMxsVmGgcRJ4KfA/Bp/cXdEWAvg6+LWHIF4sqojSy5v2FK667Rn3itue0T/+uM6sLotCJCyD4xAL+AHoAkSfTS/QmQSWfJ/bU13mTILL3LH6JigyY8wATgZBTybC/IEfghfVOiOXCGC6n0eVb3GXn/ymHJHkv77+kfrtW5+BXz7wb8NIm1aPihgoikjagI80AiXThwD9ALbya7dX6ERnIvzUHaHXsohZDGnAHAIWbI0Ao1r3gxfVmuZ3AsBuu+N8f8LwHR6SRKguiwmNuiXf8vBa8dzrnnAeeWKjrgiCW1HqNQwmIvCPRoDlx9VcI0gAk29wBklL7KnuLe4IsxkUqxB0NwR20DWCaVkSQP/AQL8SwFjIkSukDmzuCD/xqyti4tb9LcqP7n9NuuTmNcYbb++0ygtDUFygkn/ATyYcYOmow02DtLgXJOVad6B8gjvZ+Y072HBBtFAj8Igg8P4BrC/AMLvqNwLIuVZbB4pXSmIqFBWGxOc37lZW3baGXf+bV4xPP222K0vCbiiUB4GoHJovBIYOMb14kxtWLnGHyyc5k6z/hQE6n0vHqzoM9IxhCf11XD6ELrrWrLUEkNOtkQR+2leWRJioSOIfnt2srLhxtfurh94yzbTFiSCa9Q8QEfgJ2IegGjThTSgIne+MlE91J1qrobfOTQYHQ4dyJpkosKYBHrh4rRnmD0z2AwEMzfURxQ0ekkXoURaD+rQh3fqXdfKqG5+yHluzxYjKkl1WHMmYBQT/aAQYMcA+BJWgC0+7pfJpzjjhHGe8+TpUmBHmJRMFvDUZ5g+8yeV3GeWoGwkgMFdIo6MwFpKhojTCNnzaoF59z8vCpbes0f69bpdRWhCC4sLQ53wJBH8A+xDEwJD/BhWZYqOVzgRzIxQbBZncAiPoEQOsvcH6glM7+oVbW8PcM1Cni+uZBWV8w9sOSKvf3SW+sXmvuWzm4PTyRSOlAf1K5ZaUDppu0c7zkUagZJOJdGDyQ26V+Kxbah/P9qfPZx9L/aBZskFiyUxvIgiicYCH8B+4jASvOrZLNYBwIBdVhgj4yBaHmS0Jyv1rNilnXfcv995H3tZt3bK4luBKskD+AZ8RgZohAl1IcSK4y+0dOsad7F7jjtF3Q9QsBA2iwU4muhK8/IEuJYDAA/0DVaVRsck0lVseeVu68Kanradf/FAvDMlOaUmE6gt8RgKIKNjQB9KswRWVW9x+mc5Ed7lD9QQomWSiSKZTRCCBGYR3EAF0uEbgQmFYgZLCkPjOjvrQJXe9IF9y0xr9rXW7jLKCsFMQC1Fasc/gXXFmZ6oOt4OiXuoOk49zp1q/h0FaCiSn6LOGpYHTCC7gchkRQGeYBdwuKC0IQ0GBKq5+d2fo4tufhZvve1VvqE86vSoLIKRK5CT0mUbg3WVgQ19IC1vcMPYhkJe7E63HoK8eAtdGjUANXh+CG8FrwU8E0BnagCQIUFkcYY4sKr95cmPorGsft373t3dNx7CdqrJoxiwg+M80KAWTlYEuvuUWKGc5Y6QTnSnm09A7rYCTKT8OWMPS+8C7t4AIoNP8A6IAVWUxti+hKzf88Q3hgpuetp577SOzQJXdkoIQiAKlFfsNuLArwMQQofg8FIfOdkbLZ7s1+htQaRWC4XpVh4EA1g9cTQTQ2ScL3+HFUQXKSiLiuu31ykV3PAdX/uJZY9PW/WZ5cQSiUZlIwHf+gQOhQx1CYEmPupWhk5wa9/vuaKMFFEwtdgOiw10E2T6ZRABdoGKWFYYgHFbkx9fuVFfdugZuvu81vbEuZWH/gXBIyiQbEfwFzCrsDWm+4G35524/9QR3ivk6VOuFwakvuIIIoAv9A4rEzYLSCF8+rnz34+vlVTc95T70z/WGa7tudXks40gk+E0jYBDmH/tBCta7EfVkZwI8Cn3NKBiZjkU5TgLYjXgGEUAXE0FYEqGqLCp80piUr/nda/L5P12tr3n5I6MgJENpEbUl86cmxzL+AR0gdJ4zmv3WHWBF+b8C0K34TCKAbjALMiGosAIVZTH29sd16uV3PS/8+FcvpbdtqzMrisNuNCLTQPlw3ko5CYTBlq5wh8NDbn8rwjWBHDcHvsGlDxFA96kEUF4UZnJIlh55bVvonJ89ad9072t6U2PaQnMBy47JP+Ank8C7w0DhJHC+Oxoegv5mDHRXzF0KwJZXpxMB+MA/0KM0ypKOG7pn9UblopvXWA/9Y4MeFgWrsjQKoiSQWeAjEigCC0JgSlc7w+23oEov4OZADt9htJgIwA8Li+/wqCph2bHwQV1L6JrfvSau+ulq86U3PtaLI4qDZcdUW+AXEmBQzDWBRhBClzgjoA4iVlHu5glgj8FRRAA+AfoH+IaH0tKo9PKWfeFL73xBuOauF7WPtzeYqA1EwwoNkk98AhVgwFqIqTe4Q03U0XL0LkN0ONUQAfjLNQCiV3YMoirJf3r5A/Wcnz7p3vHHN7VUQrMrSyMgimQWdDdwM/QAnf3e7SX9JXOFmZHRDnIQE4gA/ErPfKNXl8bEpGUrdz72rrLyZ0/Zf31qsxlVuLlQcoAIiAm6SwuQMx8d+RZ3oFsPUTNHTYGxRAC+1ghciIVlqCyNCVv2tcjfv+dl8bu3rjFeXbvDKI2pTmGBSoPUjSRQzjf9e25M+S30swVm52JUgHwAubLcSmIqKyoMC8+s/1S56BfPCtfe/ZKxa1ezXYX+gYhCZkE3IOO3AUN4yOnBtrlFNt5SlGPTECICyCFtQBYZlh0D5g888PzW0Mobn7J+8/DbupE0bCw7ljBsSEPVpVoAdhvaBmHpT9DLYiywnYWIAPxEBAoSQWkE6lK6evOf10rn3PCE/dgzmy1VEJzy4nCmvoA0gq7bGFGwxAfdnsIOt8jgGgERAKHzT54DacWVZVFxy94W5ap7XmZX3P6c9c76PTpea1aYvdaM0PlzgQ7Aj92QtNqtwLtnXUYEQOiqxYcaQSnf7LGoKj7z3i55xU1PCdfd/bK285NGo6IkDGG69rwL5gH7DZrCX6HaaQbVkXM5P5AIIBfNAgBJ9NqSgSrKf3hus/LtW9c49z+yLm2kTBuvPZclCht2JvD24i1uVHmHlZphsIgACF0PTCuOSCJUlEaF/Wkj9NM/vaWuuP5J/fFnt+phWXLKSiLkG+gkYIlwHcjuM06pDQG8oZgIIMf8A7GQlCGCTXubwlf++iXxytuf1Tdu3mditWEsQmnFHQ0ccxEcaT0UKikWtsIBu2tAoinOPbMAF2VZYYhZjiv9a+0O8dWNu43jZw5Jn3LUKKlvnxK5rjkNtmWTs7CDUAwmbHALtQ+cqDCONUhapsEYaQCEbiYCkW/wqtIoswRBve+p90Mr//sp+2+rNxlFIdmNRVXqPdBBwKvI9oNY8DELR8kHQPAZEbgQUSWoLo+yXS2p0PfvfVn82T2vpG3DtotiRAIdZX5hjcCHbmGK064TpLQsIoAAaQRFERViBap4/5pN6g9++bxm6JZdUhimcGEHAOsBtrnRpA6CEyTDigggYNpASBKhR1WB+MTbO0JX3f6cZmimXcA1AQoVtg+46XeAEjNAEAQiAIKf1VWBf6gojYiPr90RuvHeV3QZwFHpPsN2IwUszMAVXCIAgu9JgDGoLo+Jj776kfrQvzY6ZQVhYDTb7dgoLtj8YwokEMkHQMgFYJWhEpbFXzy6Dl57e4dRVhimQWkHAaSYCLVMzVw3TgRAyAGfAEBhRIG0aUl3P7rOjsd1R1XIFGjPZpEClgtIBBBwYASgpCgMr2zZqzzy9CajKKoAUH4QgQggfyAJDC8zFR9asxl2fNpkFlHLMQIRQJ6ZAmEFdjYklMee/8BWBMElLYBABJBXJOBCJKwIT765XeBagBtSqQyEQASQV4iGJNi2p1l47q0dRlimykECEUBeQRQYMEWUXly3gyXiKTMUIi2ACICQV76AkpgK6z+ud7fsaHSjKl1bTgRAyLsJ1xwn9PaG3ZZtOS75Amk9EPIMuOnf3rYfDGoakvcgIzAffQGSALub0pGQKruyLNKAEAEQ8gmYDtzYkEx/mDKMSFguohEhAiDk06SLAjSlDCGRNkVFIiuQCICQV8AtrzuuqrmOKpIPgAiAkH/IbHva/HQY0BDkOQkQiAAIBAIRAIFAIAIgEAhEAAQCgQiAQCAQARAIBCIAAoFABEAgEIgACAQCEQCBQCACIBAIRAAEAoEIgEAgEAEQCAQiAAKBQARAIBCIAAgEAhEAgUAgAiAQCEQABAKBCIBAIBABEAgEIgACgUAEQCAQiAAIBAIRAIFAIAIgEAhEAAQCgQiAQCAQARAIBCIAAoFABEAgEIgACAQCEQCBQCACIBAIRAAEAoEIgEAgAiAQCEQABAKBCIBAIBABEAgEIgACgUAEQCAQiAAIBAIRAIFAIAIgEAhEAAQCgQiAQCAQARAIBCIAAoFABEAgEIgACAQCEQCBQCACIPgCLg0BEQANQR4TgOtyoXEgAiDkHSy+80sU2YhIgmUTCxABEPILumlD7/KYVBRVRdN2aECIAAj5BMOwoao8xgqjimVbRABEAIS8gsPV/pAquYMrCpJA/kAiAEKegW95WRKEmtE9i2zXZYxGhAiAkE/7n//h237EgHKjMqKmdYfMACIAQl4hntJhUK9iZeKIaqmxKU1qABEAIZ9gmQ4oEZnNq+ljRRXJNsgZSARAyB8wfuQ3Nqdh6pjeoaG9S+yUZgEpAUQAhHzSAvipX1ISZkum9Hd13eIMQBRABEDIG2D8T7dsOGbWYHF4zyKrMaERBxABEPIJ8aQBFZUxefmCEWCbjmnZlBZABJCLRxlWt9Dp1XZfAJfGuA7HzRuqHDmmp1nfknYFgQaSCCDXVjFjAuW0HR5M0wY1LAvnfm2CVKhIekvKIFOACCB3Tn9BFKVoeWEx1bcePhpa0jB+VA/l4pMmMlMzLZNMASKAXNH+8bQSJVGgJduOcXQ4CcQ1+PpRI5X/N2uwsbc2bjtkVREB5AIFMEEAOaIAaQDtsKIYVglaYDguu+ysGerRk/pptQ0p22FAJEAE4G8VgIkMQoURm39u07S2hwQYtCR0EGRBvP7b80JH1fTV9uyP27rtZL5GIALwJRzHBVkWUmpIiuPnhHYsCoFBEzcFFFUSf3Lh3NApc4ZqzU1pO66RY5AIwKewueoaLS1UCyqKQ5Zu0sy2d2Hwnd7MNQFJFsWrV8wK/fD0aU5pWDX21qfctGFnvk4gAvANLCSAikKlsLpIsjSDVIAOIoF4Uoe4YYnfOHas/OvLF7Hls4cYYNnWvqZUpqkIOQeIAHxiA2AskEFxZVFakiXLJWdgh/kEsGqwlm/4Xr2K5GtWzlLuvnQhHDm6lxFv0eyGFi1DAsQDRADdvFK5FsBt1IohPaOhgrDoUGlrB5KAl2TZHNehLq6xCWN6Sjd/50jpmrNmOAPKYsbeuqST5BoYgQige/0Apg2FPUrcoqqitG3RguwMIsCIS11jGgzXFU48aqR834+Oli47qUYvkiVzb0PSNWzyDxABdJcVwM0ANaqKvUf3U6y06ZDLuvOIwOBku2d/HCIxVfjW8omhOy5ZAMtnDTXNtGXvb0q5Fp8LGn4igK4FV1Nt24Uew3vZheWFhslNAkInLh6BQTJlwL7GFBs0sEy+7ttzlTu+M9+eOaxKj7doVlNSp9wBIoCuhZHUoKhXWahqaA/bTOmUFNQ1vJvxD9Q2p2DaxD7Krd9dqPzw9Gl2n+KYsbc+YSd1K6M2EBUQAXQJLG7/D5g8RA4XRGyHbr3pMrPA4dpXfVMaLAbCyUePVu+9agm76PgJRoEkGLWNSSdjFtBQEQF0Nsy0CZVDe4q9R/dxtHia1NCuHn/Thr31SSgsCcsXnDo5/MvvLmTHTx6gpZO6WdeigZ3xD9Cc5BIBfJxTKin2uGcgDps1UghHVMMgX0C3aASJpAH7OBEMHVIuX3/RPPXGb81xjxhSpTU2pe3mlAHkJcwdAtiea29MT2hQNqhaGTR1qGumDPIFdCOamjVo0Qxx/uxBym2XLlCuPnWKOaA0qu2vTzroHyBtwP8E8GZOqqL85B82b5RQ1rtU11Lkke4+bYBxs8CBWq4N2AyEU5aNVe+8bKF0zpJRpuKCua/B8w8Q/EsAm3OTAEyIVRbLY5bUyMxyTMuk5KDuJgK8lbi2Mc1KyqPSpWdNU+/53mI4buoAQ+NaGjYjQZct0bQ/NYDaXHyD6eYU9K0ZKA6fNcLUmlMUEvCBbwDTiuMJA/Y3pWH4sEr5ulVz1Bu/NcuZ2L/c4FqC1aJ51ZxEBP4hgN1c3srFN+hy1ZKf/MK4ZVPCfcf0c9MtKZp1nxABbvD6xhSkDIstmDVY/tWVi8UfnjbN6V0UNvfWJ50UlR37hgAQ/8zNlQZgpA1gksgmnXQEFJcX6umWNHmg/eQfsJxMtMASmHja8WOVOy9bKJy5YLgpOo6xpzEJJnUj8gUBPMKlMWdtz6QGBT1KxOmnz3ViRZE0RgmIBHy0EPlc6LqVIYLy8gLxqhWz5N9euYQdO6m/kU4aVn1cc4kEupcA9nP5fS7rnOgPKB/cIzz9tLksElU1/DfBf0ikDKhtTgvDh1bK118wR77p/DnuiOpCbV99womnTa8LNA1TlxMA4h4uWi6/4VRTEqpH9g7NWbGIlVQXG/zf1DvEh/4B9N1gWnHCsNji2YPle65eqnxv+WS9IqLoGDbUbcom7A4C2MDlwVx/00gCpf0r1TnnLhT7j+uvpZsSJvoJyCTwH7C+YE9dAqSwLJ51wvjwr65YLJ45f4QmWLa5v4n8A11NAIhbuOR81810UwoiZQXizLMXqFNPmu6EI6qZqG+xbcsh/dKH/oGUV3aMbcmkq86bGf75hfPc+aN6pZMJw2xMekopTVvbIR3Gz7zP5WYuV+a2ngmg84UjqbIwfOE4tcfw3ubm5zeYOzd8YicbU4oaVUFUJLpoxF9TBi1xDVKSyCaO762MGV7lPPfGduv+f23UN+5oEJWQKBVGFJqyTtYAEDdw2ZL7tibLtBNPNiYgWlUkTz1ltjr77PkwsGagDrZtppuTLt0x4MM542p/PdfgNNsRlh45VLnz8kXixSdOsEpUWd/T4JkFpA50ngaASHA5m8tzXJQgLCoME1qiyLCAaOaQHrD3/V3Glhc2aru3fKoYjiOq0RAwvDKb+MA3c5apL2jgplyBIp138kTpyMn97AdWv6//49WPhMa4JpcVhUESBCAvb8cTAOJVLpdx+UVAVhQ4jgM6VzFRL6oa2VvhZODs3bDD3vziRnvP1j2CqEqSElbI6eSfKcsglTYhmTKhV59i8epzZwhza/paD65+X3thw6eKpIhCUUQFzgNkGnQwASBu5zKEywWBMjT5QtFa0iDIotBn0iChemQfa9c7H9sfvrrF3bttjygoEgtFQ4xOFn+RQXOLDpIksBmT+8lTx/WWVr/8ofHgU5uEtR/VSgVRhRVEFCCTrmMJAHEhlwIuZwRtcBzTzoQMRUWSBs0cLvYY2Qe2v7HV+PD1rax+d72kREOCrMq0inxEAugfqG1MgspJetmC4crUMT2dh9dsNv/3mc3C7rqEUFIQEkKKSNpAFh3VEuxM8MKDgbQ1kQiSjUnG+KIaubRGXXDRMVLN0ZOMaEE4k0iE15JRDoGPFnXGP2DDPj5nkQJVvOjUqcp9Vy1lp8wdZtmGbdY2pT9T9ogAOg6XclnJJR7UwXJMCxL1cZCiijB22ZTQ3BWLxVFzR5uyJOifEQHBP3DRP2DBnvoE9O9XIv5gxUzltgvnurNG9NDrGpKZtuUBTSu2uoMAEHdzGcHl78FVM/npkjIypkGkLCZOOnmGPH/VUmHEzBGGwMBKN6ccsjP9ZRYgGls0aIjrMGNyf+WOyxdJ15x5hDm4okDbV5ewU1xbCJgCt727CADxKZfjuSzg8naQF5eZNiDdkmaFvcrkySfPVOeet8gZMGGAYacNE7sRZ1qSk2ngH4WAG/7oH9AcR1x+zJjwnZwIVh07xoiKzMAsQz1DBIGYr12t/UapEx/iGS4TuZzD5SdcqoN4vOCi0hOeTVk+uFqpGFhl796ww972+tb0jvc+kV2RSaFYmOxNH/kHsOx4L7aLKw5LF585XVg4bZDzwJMbtSfe3C4kNUMuiYVznQc2dacG8EVgBeFQLjdBwNNoMHRo6JbYa9wAZcZZ89VZZ86zew7qoestaUvD/gNUx+orUw7rC/Y3pYShg8ula8+fo9564Vx36qBKrbE5ZTUnde/7cvPtve8HDeA/gY7By7ncy+VWLkuDuqgcy4ZUcxIEURD6Txum9hzZ1/7o9S3WR//+wK7bWS9KqizJqkSmgU/mC8uOG5o1TBRic6b1V2tG9HD++fxW48E1m+2te5ul4sKQGJLFXHtrrW7i29U3A2H9wNFc5nJ5L+gLK9WYAFdg4rAF49T5FxwtT1o2xYgWR3UtrrnYsZhIwDeWXCYvAK89Z7IgnLJsXOieq48SVx491ggxZu1vTLkGlh3nxtt5B9rQv7O7rgZ7gUsNl1UQ4LAhwjYtSDUlgEmCMGLR+PCRKxdL45ZMMBRFMjhB2NSq3GdmHPoHGhJQXBKRvnPG1PAvL57vLp3Y10wlDKuem3FeApGvqeDdtnyz1J17g8td4PUavILLxUG1kFEjwBwB27RZqCgqjjl2stivZqC17fWt1rY3tlqpxqSiFoaZJIlUuOIDoKOwJaGDKDIYMbxKvmlopTN/7W579d9fN6w9CdmJoorn28dvU9s+P1wOir0Gv8tlLJfVQV5YuLkzocPmJMSqi6WaE6cpc89dyIbNGG64pm2jpoA+BHIU+sMswHyOxuY0tGimsHj6APlH3z+2tmz04GuNxpbtPjXf0MT+d64RwAFgu7ElXBZCG8IYubeyvL+wKzHmEJQOrFSOOGOeMu+8Rc7AmkG6Y1hWujn9ue8ldLP2ZjnQVN8MTkW5qh0x5w4xER/ILAujWn7rjPWrtprUfrwefE3WP3BJ0P0DqBFo2OGmKckqh/WUkQhmnjHP7TWsp6bF0xZ+DZ2JRAQ+mCuchD375fjkaSUNJ5/qii3Nl3N2GM2/9LhPHnEHl/vbbO741RfD5TYug7jcGfQTxiOCNBiawXpNGCjPWbFYnnXaPLuqb4XB/9/WMSZNJOAHxkYHATQdfRxYhUUgJOJbQRCO4V+Zk9VguxO/5NIcFAI4ALyPEHsNjOPybODXFz/t0T9g247Yf+pgZfaKRdL0/5ppl1aXmKmGpG2kiQi62zEgxuNgx2Kwf9V3AEQRmJYx117kMh68Yrjmbngy7Mx10+H8oJAjQ485A/O5fJ3Lx0HXCLzQYYqvNkEYPHe0Mm/lEnHy16aasYKInqpPOBQ67F6ILS2QqpkMqXE1IDU0gCtmEoUwqoXFcIPBa5TTVXGCJJeLDveHhRwb+4ezA/w9Li3BPm3AyyqsT4AYkoWRS2tC8y44Shy3tMYIhxQ93ZR0TN2k9mTdpQm0NEPtuedDavQYkOrr/zOpqy67Icdw+UcXPM2ZXNbnCwEg8Irv/+YyjMvvgr/YACy+0ZN1cQiXxKTxx09VZ5+3iA2fPcrgCoKV5ESQqTokdO20pNNglRRBfMES77C3/o9WtpHLcVxO5PJBJz3GCvDyaCCfCOAA9mbZbzKX5wO/4AQGZlqHVHOKFVaXKFO+MSs0//wl7uDJgw2wbENrSbvY1JQ0gi6CIIC8rw4S02aCMWAQSI2fmQJfxKNcRoHny6rroN+OvrEZXH7d7rcRgKnAvOd5XE6FNjRCyFl1wHUBnYHYkKSkX4U87bQ56qxvLmD9xvTVzIRupVpSme7G5CzsArhORupOOwusiioQk8mv+k7MF7gza75eBe3zY93HBcOPr3YIjwVoOh4AL2x4deD9A1lgMpGhmax6ZG95xjcXqHPPXej0GdFbs1K6iaXJBziD0ImKAN/0iSnjID5zNkj79x6qwAsjBHipznDwGuZgqfxH4DkQDwb8nluyfgW8j2N/Rz2/FLD5QGP4+qxv4A7wOhMF+xDi9j9ecy5KotB7wgClYkgPe9e6j6wPXt1i1H6yX2aSyJSQAkykS006RyljoHzaAM1LjwVlz26IvPUG2CWlh7qEwACvYc4z2UN4dFb6cFGzhCBlNzp21VqX/ZkOhxTQacGWSF/L+gfw4pIjgr0GWab9GJoFgiSIA2eNFPvUDHS2v/GBsfWVzdC4p0EWVVlAIqBio46ww77wH6YJZlUVNB53AsReeQEcXQdXVVt7EwkeWu9BN5XHCwGfLCyMmJ5Vmz7Nh9XpWFwjaEygk0oYMm+0cuT5S6SaYyfb4UgIW5hnQofeKibb4HAULviyjrucgOX9+0HvPxBqz1kFDJ2xdm7kagh5MnHoOBmVNQ9S+aCWYuiQmwZMDMviqKNq5AUXLhXGLp5gK5KkpxoTjk0XaB4O0Ibf+ZXDzjWBxJRp4MoylhISAfhw8tBBiCmbD+fLm7Z173ajcGlMGr9ssnzkqqOEkXNHm2Dblp3SMLUdiAlar2DBQXruM8sENxSG9IjRIDa3ZEKFRAD+AyZlYEoxFnCsD/y7ze5tI+WFDgt7lcqTls9S5p+3SOo1ut8ew3LirkOJRB0y1FwDsAsKoHnJ0ZwqbK9OwOd5GUIezxcWcGATktOg4xI0fG8aGIk0Vh6yfhMGgDxxyJ2a5fSSXPcx2r6twr5Dja9Uux/SI0dB7YoLQEgkfH8lsUBzCn8Er235jflCAnjiO0kN6tKmtNNmcZHBMvCKrdbScjgo9hx6Rwkg8o2fmDEbjP4DuSnQ5GtTgAjAQyN4fQkxU+vRvOABLhrX/F9NscwikBk8y8+qSfzTRRDkjkztw45Wja2mgStKsPfiK7hJUAhCPE4EkCPYBl7xBjZ5eD/obzYqQEMDJ4E1SQaYxZ7NZH8avIwzvO59Jy2Jz+HD1mpZYrwZzF69IT5vATDb9q0pQATw5cA2T5iZdS54hReBBJ/83QpXBd7QGOzja7RA8Nzc4GWiYXfZkeAVseyhJdEGAuBwBRGYrkNi8jRP3fKpM5AI4CBzCF6uNpoFvwzg+8Nug/twASAJPJng6gDf9uHPr9MEeEUs47I+kuY8Xg+YivtRm8wsTgAONwH0Pv24RtDiSxIgAjg0sLDowuxp+M8AvS+MfGSq0kJ8XW63AN7RGajsS7MCarM+Eixi+R/wejbmG/DGna1t2lzpFFjFJbD30ivBrKrOFA4RAeQu0DF2bFaC4B/AkNanB1SdEr4SNhoM6rkWIH31QYU9GL6V9RH8Nc/mv+1zjhEBfvLbxaXghCMgJhO+iwgQAbQdqAVgWjFeZtKUw+/jc/fHYbFgI9/867kW8B++gIPZwidk/STP5Mm8H9775Go/Mw1oOu7EjBbADIMIICC4NesfQD+BnYPP/9Tn1ilkQoHwLieAWv5uoq0zV7HtFda1H8nlpQDPNZpLh93/X0iloHnhDEhOmppJFPKTL4AIoH2oBy9SMBFyry3Z/+ljH+HrEk0A9AUIrE0VAtiWejZ4IdQg5hBgc8/G9ryA1GSCWVkFTjTGjwubCCBgwBtZsS0ZZtRtyYHnffLLCADV/hhfEZs4AaQcyBYKtQkH+t9hs8ogtW9/oL0vIDY3Q3zuAtCHDM04B4kAggnMqcf6gh/63D/w3MEWhOECtDgsoxEcRpkQ+hSxWSVGDK7KcT8JYl2H+Dkw/VpVoXn+4ky/ACKA4AK9PD8Br77gHh8+H3ry7/2qL6IfQONb+M9xBnstzyxoxzhg/ztsc4Vt3HM1dHhXR72QKyvghEIZn8BXdBAmAggQarP+Acyvf9VHz/WrrO/iK4/vSDYi0Oh4eQHtBCYT4UUuQ7j8Fg5Lqeg2vAGHceHmV242LQVWeSWYPXt5IUEfOAOJADofWGGHPdxPgu5vW74PWtFLHncobnzLPUj3i7YD+zR+E7yEqodyZO4ugw4cAiwK0oYPgZa5CzJagB+6BhEBdB3+kl386B/Qu+kZrs+aAIcEJgO9pTFIOp8VCXUU0En6DfB6Nb7g4/nC+/06NrQpCCDVNWVaiBt9+4Gg60QAeYZ01j+A6vADXfy7/wxeq/RWw4JO7ST+Gpe5XBaC1/rab6r/ZZ3z0i5e8+SlBfsgHYAIoHuAZbZ4k9EsLq93we/7hMsqny6ONeDlUSyHNubadxIw3n8WdFIf/kw0IBqF1PiJmRZiRAD5jZfBu7PgG1kbuTOA+f54QYrf2579KWsiYQ5Bd5Uf4xxgPkenJTMxywK7qBgS06b7Ii2YCMAfQKfYCC7XQof63TIxbLwc5Z0cGQdMkUMn5YEr3rqyFwNqZXjV77ud+lvQ82/bICbiFAUgfA4YLvsRlwHgOaAS7Xy9n4MXfcjFZh7oK0GH5egOGotDARN9poBX25BXIALwH1ANvQi8RKKV2cXZ2uRxzDHFS1CwXPfi7EbKZezPjgUWXf0AWtmTrw2ozdr7WNC0Nx8Xm0T7zbfAk/vurOAGmJXd2KgeV3ApBq9ZCTqtMO/+pSxZ7A/gWGD+wnVcbgKv3uJMLtO4lBzm6+F4Yaej30Ce3CRNBJDb+BDa0I8uwMDA+Z+zUpolgalZPwc6EMu5fNG1jmkM2IoHL4HBuyKf4PImdJaXP8fw/wUYADaMWBQze6IuAAAAAElFTkSuQmCC;fontFamily=Architects Daughter;fontSource=https%3A%2F%2Ffonts.googleapis.com%2Fcss%3Ffamily%3DArchitects%2BDaughter;fontSize=29;fontStyle=1;labelPosition=center;align=center;fontColor=#FFFFFF;" parent="rP7-Qt_0I5Ee_mu3qUXM-1" vertex="1">
          <mxGeometry x="150" y="145" width="106" height="106" as="geometry" />
        </mxCell>
        <mxCell id="rP7-Qt_0I5Ee_mu3qUXM-3" value="&lt;span style=&quot;font-size: 14px;&quot;&gt;&lt;b&gt;Task&lt;/b&gt;&lt;/span&gt;" style="sketch=0;outlineConnect=0;fontColor=#232F3E;gradientColor=none;fillColor=#ED7100;strokeColor=none;dashed=0;verticalLabelPosition=bottom;verticalAlign=top;align=center;html=1;fontSize=12;fontStyle=0;aspect=fixed;pointerEvents=1;shape=mxgraph.aws4.ecs_task;hachureGap=4;jiggle=2;curveFitting=1;fontFamily=Architects Daughter;fontSource=https%3A%2F%2Ffonts.googleapis.com%2Fcss%3Ffamily%3DArchitects%2BDaughter;" parent="rP7-Qt_0I5Ee_mu3qUXM-1" vertex="1">
          <mxGeometry x="550" y="312" width="68.61" height="89" as="geometry" />
        </mxCell>
        <mxCell id="rP7-Qt_0I5Ee_mu3qUXM-4" style="edgeStyle=orthogonalEdgeStyle;rounded=0;orthogonalLoop=1;jettySize=auto;html=1;exitX=0.5;exitY=1;exitDx=0;exitDy=0;exitPerimeter=0;sketch=1;curveFitting=1;jiggle=2;" parent="rP7-Qt_0I5Ee_mu3qUXM-1" source="rP7-Qt_0I5Ee_mu3qUXM-10" target="rP7-Qt_0I5Ee_mu3qUXM-3" edge="1">
          <mxGeometry relative="1" as="geometry" />
        </mxCell>
        <mxCell id="rP7-Qt_0I5Ee_mu3qUXM-5" style="edgeStyle=orthogonalEdgeStyle;rounded=0;orthogonalLoop=1;jettySize=auto;html=1;exitX=0.5;exitY=1;exitDx=0;exitDy=0;exitPerimeter=0;sketch=1;curveFitting=1;jiggle=2;" parent="rP7-Qt_0I5Ee_mu3qUXM-1" source="rP7-Qt_0I5Ee_mu3qUXM-10" target="rP7-Qt_0I5Ee_mu3qUXM-7" edge="1">
          <mxGeometry relative="1" as="geometry" />
        </mxCell>
        <mxCell id="rP7-Qt_0I5Ee_mu3qUXM-6" style="edgeStyle=orthogonalEdgeStyle;rounded=0;orthogonalLoop=1;jettySize=auto;html=1;exitX=0.5;exitY=1;exitDx=0;exitDy=0;exitPerimeter=0;sketch=1;curveFitting=1;jiggle=2;" parent="rP7-Qt_0I5Ee_mu3qUXM-1" source="rP7-Qt_0I5Ee_mu3qUXM-10" target="rP7-Qt_0I5Ee_mu3qUXM-8" edge="1">
          <mxGeometry relative="1" as="geometry" />
        </mxCell>
        <mxCell id="rP7-Qt_0I5Ee_mu3qUXM-7" value="&lt;span style=&quot;font-size: 14px;&quot;&gt;&lt;b&gt;Task&lt;/b&gt;&lt;/span&gt;" style="sketch=0;outlineConnect=0;fontColor=#232F3E;gradientColor=none;fillColor=#ED7100;strokeColor=none;dashed=0;verticalLabelPosition=bottom;verticalAlign=top;align=center;html=1;fontSize=12;fontStyle=0;aspect=fixed;pointerEvents=1;shape=mxgraph.aws4.ecs_task;hachureGap=4;jiggle=2;curveFitting=1;fontFamily=Architects Daughter;fontSource=https%3A%2F%2Ffonts.googleapis.com%2Fcss%3Ffamily%3DArchitects%2BDaughter;" parent="rP7-Qt_0I5Ee_mu3qUXM-1" vertex="1">
          <mxGeometry x="640" y="312" width="68.61" height="89" as="geometry" />
        </mxCell>
        <mxCell id="rP7-Qt_0I5Ee_mu3qUXM-8" value="&lt;span style=&quot;font-size: 14px;&quot;&gt;&lt;b&gt;Task&lt;/b&gt;&lt;/span&gt;" style="sketch=0;outlineConnect=0;fontColor=#232F3E;gradientColor=none;fillColor=#ED7100;strokeColor=none;dashed=0;verticalLabelPosition=bottom;verticalAlign=top;align=center;html=1;fontSize=12;fontStyle=0;aspect=fixed;pointerEvents=1;shape=mxgraph.aws4.ecs_task;hachureGap=4;jiggle=2;curveFitting=1;fontFamily=Architects Daughter;fontSource=https%3A%2F%2Ffonts.googleapis.com%2Fcss%3Ffamily%3DArchitects%2BDaughter;" parent="rP7-Qt_0I5Ee_mu3qUXM-1" vertex="1">
          <mxGeometry x="730" y="312" width="68.61" height="89" as="geometry" />
        </mxCell>
        <mxCell id="rP7-Qt_0I5Ee_mu3qUXM-9" value="" style="edgeStyle=orthogonalEdgeStyle;rounded=0;orthogonalLoop=1;jettySize=auto;html=1;" parent="rP7-Qt_0I5Ee_mu3qUXM-1" source="rP7-Qt_0I5Ee_mu3qUXM-10" target="rP7-Qt_0I5Ee_mu3qUXM-7" edge="1">
          <mxGeometry relative="1" as="geometry" />
        </mxCell>
        <mxCell id="QL6gIQ8SWndZkTVkyO3U-3" style="edgeStyle=orthogonalEdgeStyle;rounded=0;orthogonalLoop=1;jettySize=auto;html=1;exitX=0;exitY=1;exitDx=0;exitDy=0;exitPerimeter=0;sketch=1;curveFitting=1;jiggle=2;" edge="1" parent="rP7-Qt_0I5Ee_mu3qUXM-1" source="rP7-Qt_0I5Ee_mu3qUXM-10" target="QL6gIQ8SWndZkTVkyO3U-0">
          <mxGeometry relative="1" as="geometry">
            <Array as="points">
              <mxPoint x="570" y="290" />
              <mxPoint x="450" y="290" />
            </Array>
          </mxGeometry>
        </mxCell>
        <mxCell id="rP7-Qt_0I5Ee_mu3qUXM-10" value="&lt;font size=&quot;1&quot; style=&quot;&quot;&gt;&lt;b style=&quot;font-size: 18px;&quot;&gt;ECS&lt;/b&gt;&lt;/font&gt;" style="rounded=1;whiteSpace=wrap;html=1;sketch=0;hachureGap=4;jiggle=2;curveFitting=1;fontFamily=Architects Daughter;fontSource=https%3A%2F%2Ffonts.googleapis.com%2Fcss%3Ffamily%3DArchitects%2BDaughter;fontSize=12;points=[[0,0,0],[0.25,0,0],[0.5,0,0],[0.75,0,0],[1,0,0],[0,1,0],[0.25,1,0],[0.5,1,0],[0.75,1,0],[1,1,0],[0,0.25,0],[0,0.5,0],[0,0.75,0],[1,0.25,0],[1,0.5,0],[1,0.75,0]];outlineConnect=0;fillColor=#ffe6cc;strokeColor=#d79b00;dashed=0;verticalLabelPosition=middle;verticalAlign=middle;fontStyle=0;aspect=fixed;shape=mxgraph.aws4.resourceIcon;resIcon=mxgraph.aws4.ecs;labelPosition=center;align=center;" parent="rP7-Qt_0I5Ee_mu3qUXM-1" vertex="1">
          <mxGeometry x="570" y="150" width="160" height="80" as="geometry" />
        </mxCell>
        <mxCell id="QL6gIQ8SWndZkTVkyO3U-1" style="edgeStyle=orthogonalEdgeStyle;rounded=0;orthogonalLoop=1;jettySize=auto;html=1;exitX=1;exitY=1;exitDx=0;exitDy=0;exitPerimeter=0;sketch=1;curveFitting=1;jiggle=2;entryX=0;entryY=1;entryDx=0;entryDy=0;entryPerimeter=0;" edge="1" parent="rP7-Qt_0I5Ee_mu3qUXM-1" source="rP7-Qt_0I5Ee_mu3qUXM-11" target="rP7-Qt_0I5Ee_mu3qUXM-10">
          <mxGeometry relative="1" as="geometry" />
        </mxCell>
        <mxCell id="QL6gIQ8SWndZkTVkyO3U-2" value="Trigger&lt;br&gt;Active Scan&lt;br&gt;Task" style="edgeLabel;html=1;align=center;verticalAlign=middle;resizable=0;points=[];" connectable="0" vertex="1" parent="QL6gIQ8SWndZkTVkyO3U-1">
          <mxGeometry x="-0.0427" y="-1" relative="1" as="geometry">
            <mxPoint as="offset" />
          </mxGeometry>
        </mxCell>
        <mxCell id="rP7-Qt_0I5Ee_mu3qUXM-11" value="&lt;b style=&quot;font-size: 14px;&quot;&gt;EventBridge&lt;/b&gt;" style="points=[[0,0,0],[0.25,0,0],[0.5,0,0],[0.75,0,0],[1,0,0],[0,1,0],[0.25,1,0],[0.5,1,0],[0.75,1,0],[1,1,0],[0,0.25,0],[0,0.5,0],[0,0.75,0],[1,0.25,0],[1,0.5,0],[1,0.75,0]];outlineConnect=0;fillColor=#e1d5e7;strokeColor=#9673a6;dashed=0;verticalLabelPosition=bottom;verticalAlign=top;align=left;html=1;fontSize=12;fontStyle=0;aspect=fixed;shape=mxgraph.aws4.resourceIcon;resIcon=mxgraph.aws4.eventbridge;hachureGap=4;fontFamily=Architects Daughter;fontSource=https%3A%2F%2Ffonts.googleapis.com%2Fcss%3Ffamily%3DArchitects%2BDaughter;" parent="rP7-Qt_0I5Ee_mu3qUXM-1" vertex="1">
          <mxGeometry x="360" y="145" width="90" height="90" as="geometry" />
        </mxCell>
        <mxCell id="rP7-Qt_0I5Ee_mu3qUXM-12" style="edgeStyle=orthogonalEdgeStyle;rounded=0;orthogonalLoop=1;jettySize=auto;html=1;exitX=0;exitY=0.5;exitDx=0;exitDy=0;exitPerimeter=0;entryX=1;entryY=0.5;entryDx=0;entryDy=0;entryPerimeter=0;startArrow=classic;startFill=1;sketch=1;curveFitting=1;jiggle=2;" parent="rP7-Qt_0I5Ee_mu3qUXM-1" source="rP7-Qt_0I5Ee_mu3qUXM-10" target="rP7-Qt_0I5Ee_mu3qUXM-11" edge="1">
          <mxGeometry relative="1" as="geometry" />
        </mxCell>
        <mxCell id="rP7-Qt_0I5Ee_mu3qUXM-13" value="Generate&lt;br&gt;Event" style="edgeLabel;html=1;align=center;verticalAlign=middle;resizable=0;points=[];" parent="rP7-Qt_0I5Ee_mu3qUXM-12" vertex="1" connectable="0">
          <mxGeometry x="0.0167" relative="1" as="geometry">
            <mxPoint as="offset" />
          </mxGeometry>
        </mxCell>
        <mxCell id="rP7-Qt_0I5Ee_mu3qUXM-14" style="edgeStyle=orthogonalEdgeStyle;rounded=0;orthogonalLoop=1;jettySize=auto;html=1;sketch=1;curveFitting=1;jiggle=2;" parent="rP7-Qt_0I5Ee_mu3qUXM-1" source="QL6gIQ8SWndZkTVkyO3U-0" target="rP7-Qt_0I5Ee_mu3qUXM-2" edge="1">
          <mxGeometry relative="1" as="geometry">
            <mxPoint x="200" y="189" as="sourcePoint" />
          </mxGeometry>
        </mxCell>
        <mxCell id="rP7-Qt_0I5Ee_mu3qUXM-15" value="Send&lt;br&gt;Results" style="edgeLabel;html=1;align=center;verticalAlign=middle;resizable=0;points=[];" parent="rP7-Qt_0I5Ee_mu3qUXM-14" vertex="1" connectable="0">
          <mxGeometry x="-0.0297" y="1" relative="1" as="geometry">
            <mxPoint x="79" y="-1" as="offset" />
          </mxGeometry>
        </mxCell>
        <mxCell id="QL6gIQ8SWndZkTVkyO3U-0" value="" style="sketch=0;outlineConnect=0;fillColor=#1ba1e2;strokeColor=#006EAF;dashed=0;verticalLabelPosition=bottom;verticalAlign=top;align=center;html=1;fontSize=12;fontStyle=0;aspect=fixed;pointerEvents=1;shape=mxgraph.aws4.ecs_task;hachureGap=4;jiggle=2;curveFitting=1;fontFamily=Architects Daughter;fontSource=https%3A%2F%2Ffonts.googleapis.com%2Fcss%3Ffamily%3DArchitects%2BDaughter;fontColor=#ffffff;" vertex="1" parent="rP7-Qt_0I5Ee_mu3qUXM-1">
          <mxGeometry x="416" y="370" width="68.61" height="89" as="geometry" />
        </mxCell>
      </root>
    </mxGraphModel>
  </diagram>
</mxfile>
